<?xml version="1.0" encoding="utf-8"?>
<!-- Generator: Adobe Illustrator 16.0.0, SVG Export Plug-In . SVG Version: 6.00 Build 0)  -->
<!DOCTYPE svg PUBLIC "-//W3C//DTD SVG 1.1//EN" "http://www.w3.org/Graphics/SVG/1.1/DTD/svg11.dtd">
<svg version="1.1" id="Layer_1" xmlns="http://www.w3.org/2000/svg" xmlns:xlink="http://www.w3.org/1999/xlink" x="0px" y="0px"
	 width="432px" height="432px" viewBox="0 0 432 432" enable-background="new 0 0 432 432" xml:space="preserve">
<path fill-rule="evenodd" clip-rule="evenodd" d="M259.261,224.318c1.712,1.842,3.426,3.68,5.521,5.93
	c-1.61,0.377-2.986,0.699-4.88,1.145c1.411,1.541,2.659,2.898,4.218,4.604c-11.493-1.898-14.717-11.636-5.279-24.458
	c2.478,0.884,5.196,1.853,7.912,2.822c-1.529-7.115-16.407-10.931-28.6-7.139c-0.607-2.148-0.722-4.636-1.925-6.364
	c-2.74-3.95-5.735-10.287-9.137-10.631c-5.516-0.559-13.58-0.687-14.863,8.629c-0.152,1.104-2.696,1.966-4.22,2.77
	c-2.423,1.283-5.616,1.828-7.244,3.739c-3.913,4.594-7.241,3.768-10.776,0.41c3.155-2.93,6.23-5.789,9.497-8.825
	c-4.862-7.722-10.734-2.642-16.438-1.267c-4.293-3.531-3.523-8.032-0.679-11.482c2.352-2.853,6.3-4.39,9.864-6.721
	c0.466,0.797,1.035,1.772,1.655,2.836c4.606-3.639,9.087-7.179,11.525-9.105c5.423-0.837,8.854-1.366,12.404-1.915
	c-3.833-14.661-12.591-20.375-32.595-22.25c5.381-22.334-2.226-40.653-17.825-56.248c-2.251-2.251-5.912-3.208-9.051-4.424
	c-9.402-3.64-18.924-6.967-28.265-10.75c-2.424-0.982-4.354-3.184-6.833-5.066c1.084-0.411,1.583-0.796,1.851-0.675
	c20.133,9.097,41.995,11.724,63.106,17.215c38.689,10.063,68.119,33.015,88.191,67.74c0.674,1.17,1.455,2.277,2.709,4.227
	c1.005-2.645,1.738-4.585,2.818-7.436c1.531,3.146,2.759,5.668,4.094,8.413c0.901-0.778,1.616-1.396,2.384-2.059
	c2.028,4.025,3.959,7.86,6.562,13.02c7.224-15.594,13.54-30.075,20.596-44.185c5.657-11.31,11.473-22.677,18.555-33.109
	c10.049-14.802,26.052-21.512,42.03-28.003c11.36-4.614,22.461-9.863,35.694-15.719c-8.279,7.859-15.413,14.628-22.988,21.821
	c13.24,10.16,18.028,29.998,37.694,37.947c-3.857,2.004-6.373,4.034-9.203,4.667c-24.458,5.475-33.932,23.332-38.239,45.611
	c-0.288,1.5-0.85,2.951-1.278,4.403c-15.344-3.865-20.584-0.196-22.368,15.511c-0.678,5.951-1.335,11.962-1.205,17.929
	c0.085,3.677,1.68,7.321,2.502,10.623c-6.697,3.094-15.205,4.904-20.445,10.042c-5.241,5.142-7.215,13.609-10.753,20.892
	c-2.683-1.665-5.122-3.183-9.322-5.791c-0.564,7.982-1.018,14.441-1.479,20.957c-3.257,0.227-10.658,11.389-15.011,23.588
	c-0.769-1.486-1.279-2.486-2.336-4.535c-3.032,5.41-5.76,10.281-8.794,15.695c-0.956-2.063-1.829-3.945-3.008-6.486
	c-12.866,9.914-28.685,7.949-42.859,12.129c-9.855,2.904-19.631,6.588-28.797,11.205c-13.337,6.717-15.397,29.104-4.347,41.322
	c2.724,3.01,8.705,3.672,13.332,4.217c5.939,0.701,12.268-0.865,17.98,0.467c7.676,1.785,18.414,3.334,21.599,8.691
	c5.849,9.844,14.768,7.6,22.239,10.838c4.712,2.041,8.845,5.42,12.672,9.234c-14.312-3.088-27.865-3.389-42.065-0.521
	c-6.508,1.316-14.894-1.234-21.014-4.604c-11.666-6.42-22.732-14.152-33.273-22.338c-11.545-8.957-11.646-21.684-8.966-34.795
	c2.739-13.422,9.766-23.773,21.644-30.67c8.178-4.744,16.423-9.371,24.691-13.955c7.266-4.029,7.633-5.146,3.171-12.016
	c-2.175-3.346-4.035-7.086-6.885-9.732c-1.631-1.514-4.967-1.186-8.06-1.789c2.701-1.25,5.238-2.426,8.771-4.057
	c-3.565-1.486-6.419-2.674-10.084-4.197h8.644c-2.036-1.874-3.173-2.922-4.284-3.945c6.552-2.301,10.824,0.922,16.89,12.703
	c2.827-1.535,5.917-4.621,8.41-4.197c2.901,0.492,5.28,4.059,8.286,6.633c5.383-6.834,7.602-15.099,6.946-23.422
	c-0.221-2.81-6.024-5.185-9.275-7.758C260.4,222.973,259.83,223.646,259.261,224.318"/>
<path fill-rule="evenodd" clip-rule="evenodd" fill="#ED1C24" d="M103.356,272.205c-3.913,0.59-7.833,1.691-11.745,1.664
	c-8.849-0.064-16.19,2.42-23.294,8.203c-4.255,3.469-11.012,3.854-16.625,5.676c-4.863,1.584-9.7,3.24-14.547,4.865
	c0.086,0.693,0.174,1.389,0.258,2.082c3.079,1.285,6.154,2.572,9.698,4.053c-0.639,1.113-1.074,2.943-1.905,3.146
	c-10.184,2.479-20.351,5.201-30.685,6.826c-5.719,0.898-8.467-3.154-7.634-8.818c0.962-6.516,2.468-12.658,10.148-15.02
	c1.829-0.561,3.103-3.537,4.243-5.615c2.141-3.895,4-7.941,7.34-11.348c0.419,2.367,0.837,4.732,1.243,7.023
	c9.994,0.111,13.138-14.127,23.573-11.246c8.853-3.25,13.612-12.146,23.599-13.941c4.098-0.74,7.321-5.908,11.116-8.84
	c7.275-5.619,16.294-5.217,24.688-7.09c3.816-0.852,8.114-2.363,10.778-5.004c6.598-6.531,14.108-10.42,23.132-12.352
	c2.745-0.588,5.018-3.825,7.295-6.062c2.226-2.183,4.189-4.634,7.638-6.12c-0.612,1.638-1.225,3.275-2.569,6.869
	c6.356-2.535,11.349-4.393,16.228-6.51c4.748-2.063,9.379-4.395,15.994-7.52c-1.869,2.726-2.365,3.887-3.222,4.631
	c-6.905,5.989-13.477,12.48-20.96,17.645c-5.571,3.842-12.214,6.285-18.627,8.69c-5.244,1.969-9.428,4.52-11.625,10.748
	c2.958,0.323,5.353,0.586,9.232,1.013c-6.673,3.981-12.394,7.392-18.208,10.858c1.098,1.492,1.965,2.67,3.542,4.813
	c-12.888,3.93-24.937,7.605-38.15,11.635c3.665,1.418,6.785,2.623,9.905,3.83C103.258,271.395,103.307,271.799,103.356,272.205"/>
</svg>
