<?xml version="1.0" encoding="utf-8"?>
<!-- Generator: Adobe Illustrator 23.0.2, SVG Export Plug-In . SVG Version: 6.00 Build 0)  -->
<svg version="1.1" id="Layer_1" xmlns="http://www.w3.org/2000/svg" xmlns:xlink="http://www.w3.org/1999/xlink" x="0px" y="0px"
	 viewBox="0 0 154.9853 251.0835" enable-background="new 0 0 154.9853 251.0835" xml:space="preserve">
<g>
	<path d="M25.3907,39.7353l3.1357-1.7343l-1.0479-1.8955l-3.1367,1.7334l-1.5527-2.8077l3.1367-1.7343l-1.0469-1.8955
		l-3.1367,1.7343l-1.5527-2.8086l3.1367-1.7343l-1.0478-1.8965l-10.211,5.6445l1.0479,1.8965l3.1357-1.7344l1.5518,2.8086
		l-3.1348,1.7344l1.0469,1.8955l3.1367-1.7334l1.5518,2.8086l-3.1358,1.7324l1.0479,1.8965l3.1357-1.7334l9.3398,16.8965
		c0.1797-2.5957,0.4576-5.2061,0.8243-7.8115L25.3907,39.7353z"/>
	<path d="M4.0684,42.0361l2.2598,2.2774l-2.543,2.5234l1.5244,1.5391l2.5439-2.5235l2.2598,2.2783l-2.5449,2.5225l1.5254,1.5391
		l2.5449-2.5235l18.9502,19.1119c-0.0684-2.0972-0.0586-4.2281,0.0156-6.3755L14.834,46.5l2.544-2.5225l-1.5245-1.5381
		l-2.5449,2.5225l-2.2597-2.2773l2.5449-2.5245l-1.5254-1.538l-2.5449,2.5234l-2.2588-2.2773l2.5449-2.5245l-1.5254-1.538L0,43.0205
		l1.5254,1.5381L4.0684,42.0361z"/>
	<path d="M96.4785,76.1504l-2.5234-1.0547c-0.1484-0.062-1.4375-0.6138-3.1191-1.7114c-2.3301-1.5201-5.4146-4.0894-7.2754-7.8609
		c-0.0113-0.0229-0.0215-0.0468-0.0322-0.0698c-0.1397-0.0073-0.2774-0.021-0.419-0.021H44.4727
		c-0.1406,0-0.2778,0.0137-0.417,0.021c-0.1123,0.2305-0.2295,0.4556-0.3506,0.6772c-0.6055,1.1075-1.313,2.1036-2.0693,2.9947
		c-0.7007,0.8257-1.4409,1.5605-2.1792,2.2075c-0.4033,0.353-0.8052,0.6826-1.1988,0.9839
		c-0.5244,0.4018-1.0336,0.7568-1.5117,1.0688c-0.3486,0.2276-0.6777,0.4292-0.9858,0.6104
		c-1.1773,0.6914-2.0137,1.0508-2.1314,1.0996l-2.5234,1.0547l-0.2402-2.7256c-0.084-0.9541-0.1455-1.9199-0.1963-2.8911
		c-2.2398,1.1963-4.5889,2.6875-6.959,4.5923c-5.2656,4.2475-10.4473,10.5014-14.1694,19.1806
		c-3.7344,8.6812-6.0401,19.7085-6.0381,33.6377c0,3.0293,0.1074,6.1997,0.3354,9.52c0.2886,4.2217,3.8052,7.4532,7.9746,7.4532
		c0.1831,0,0.3677-0.0064,0.5533-0.0191c4.4091-0.3032,7.7373-4.122,7.434-8.5293c-0.2041-2.9707-0.2968-5.7754-0.2968-8.4248
		c0-12.185,2.0068-20.9673,4.7348-27.3144c3.5713-8.2036,8.271-12.5567,12.5083-15.1543v54.2036
		c-0.2519,1.5664-0.686,4.3213-1.2427,8.0864l2.6041-1.8349l20.2636-14.2818L90.836,108.769V83.81
		c1.2207,0.9698,2.518,2.4058,3.8374,4.6583c1.7309,3.0063,3.4101,7.6484,4.29,14.5727l14.3745-10.1309
		c-0.313-1.2719-0.6455-2.5107-1.0171-3.6821c-3.0683-9.8183-8.4355-16.2407-14.0088-19.6977
		c-0.4414-0.2774-0.8803-0.5298-1.3169-0.7715c-0.0507,1.5752-0.1416,3.1323-0.2763,4.666L96.4785,76.1504z"/>
	<path d="M44.5762,177.3232c-5.2314-0.289-9.2891-1.2339-12.6196-2.9463c-2.0889,17.4102-4.3233,39.667-5.6201,63.5279
		c-0.3741,6.894,4.9116,12.7851,11.8056,13.1592c0.231,0.0127,0.4605,0.0185,0.689,0.0185
		c6.5918,0.0005,12.1084-5.1587,12.4702-11.8223c1.2715-23.4633,3.4951-45.4692,5.5591-62.5688
		c-3.2959,0.4492-6.5215,0.6953-9.6299,0.6953C46.3242,177.3867,45.4385,177.3642,44.5762,177.3232z"/>
	<path d="M76.1704,239.2593c0.3614,6.6621,5.877,11.8242,12.4712,11.8242c0.2281,0,0.4576-0.0059,0.688-0.0186
		c6.8926-0.374,12.1773-6.2646,11.8057-13.1591c-1.5816-29.0772-4.5547-55.774-6.9595-74.2159
		c-7.8115,4.3492-15.936,7.7598-23.9204,10.0962C72.4136,191.2598,74.8262,214.4409,76.1704,239.2593z"/>
	<path d="M90.836,118.8183l-12.69,8.9434l-11.7632,8.29l-4.6113,3.25l-14.1616,9.9805l-13.6831,9.6436
		c-0.1089,0.8027-0.2188,1.6225-0.3306,2.4648c1.2549,0.4282,2.4312,0.9683,3.521,1.6514c1.1524,0.7588,3.9278,1.6836,8.0772,1.875
		c0.6884,0.0342,1.3916,0.0527,2.1181,0.0527c3.3662,0,7.2095-0.4116,11.1836-1.1538c0.7451-5.5786,1.4195-10.2627,1.9488-13.8047
		c0.0376-0.25,0.0737-0.4902,0.1098-0.729h6.3623c0.4668,3.0977,1.0562,7.147,1.7163,11.9942
		c8.0699-2.5347,16.17-6.2564,23.7139-10.9029c-0.6567-4.54-1.186-7.9468-1.5112-9.9887V118.8183z"/>
	<path d="M59.6353,133.207l-20.1768,14.2197l-4.354,3.0689l-18.7793,13.2349c-5.3574,1.3984-9.334,3.3066-9.5097,3.3496
		c-2.1104,0.9775-3.0274,3.4814-2.0479,5.5927c0.1074,0.2334,0.2363,0.4541,0.3799,0.6582c1.1494,1.6309,3.335,2.2608,5.21,1.3907
		l0.0019-0.001c0,0,0.1885-0.0879,0.6231-0.2734c1.5166-0.6514,5.625-2.2764,9.957-3.1436
		c4.3555-0.9443,8.7637-0.7695,10.6025,0.5449c0.2178,0.1363,0.4497,0.2539,0.6743,0.3809
		c3.4146,1.9297,7.604,2.8291,12.4556,3.0967c3.7534,0.1796,7.9473-0.0513,12.439-0.7041c4.0781-0.5933,8.4096-1.5542,12.8916-2.876
		c7.5786-2.2359,15.5844-5.5449,23.5659-10.023c-1.1011-1.9419-1.5586-4.2505-1.1587-6.5966
		c0.0239-0.1402,0.0376-0.2798,0.0679-0.4205c0.0962-0.4477,0.1928-0.9155,0.2895-1.3925c0.065-0.3179,0.1294-0.6407,0.1939-0.9698
		c-0.1016,0.0621-0.2032,0.1241-0.3047,0.1861c-8.0049,4.8462-16.1494,8.3945-23.752,10.7549
		c-2.893,0.8984-5.7104,1.6328-8.4072,2.1938c-0.7705,0.1611-1.5298,0.3062-2.2798,0.4404
		c-4.937,0.8819-9.414,1.1895-13.1147,0.9952c-4.2627-0.1963-7.4756-1.1436-9.0498-2.1778c-0.8819-0.5532-1.795-0.98-2.7227-1.3237
		c-2.2808-0.8447-4.6611-1.1294-6.9609-1.1362c-0.2305,0.0019-0.461,0.0078-0.6924,0.0156l8.6201-6.0752l9.8623-6.9502
		l17.252-12.1587l7.5722-5.3369l4.273-3.0117l17.5796-12.3892l8.6894-6.124l15.107-10.647l22.3071-15.7212
		c-0.085,0.2227-0.1856,0.4356-0.2676,0.6612c-1.0762,3.0488-1.7139,6.4316-0.9375,9.9443c0.4453,1.832,0.2559,5.1767-0.9922,9.2558
		c-2.4267,8.209-8.7676,19.1402-18.4551,29.5694c-0.1416,1.0019-0.3159,2.2187-0.5151,3.5791
		c-0.4292,2.9326-0.977,6.5469-1.5781,10.2197c9.02-7.9692,16.1382-16.6767,21.2046-24.9609
		c3.4257-5.6104,5.9199-11.0244,7.4121-15.9834c1.4697-4.9668,2.0273-9.4688,1.1396-13.5352
		c-0.3017-1.2637-0.1123-3.126,0.6573-5.2617c1.121-3.1914,3.4384-6.7559,5.4775-9.3916c1.0185-1.3232,1.9619-2.4268,2.6416-3.1904
		c0.3389-0.3809,0.6133-0.6758,0.7969-0.8711c0.1797-0.1953,0.2539-0.2686,0.2539-0.2686c1.6308-1.6592,1.6064-4.3252-0.0498-5.9541
		c-1.6582-1.6308-4.3233-1.6074-5.9541,0.0508c-0.1035,0.1094-3.2246,3.2734-6.3389,7.8164l-27.6108,19.4595l-14.6123,10.2978
		l-8.3755,5.9029L59.6353,133.207z"/>
	<path d="M113.5977,139.0625c0.168-1.1646,0.3247-2.3101,0.4702-3.4375c0.1436-1.1104,0.2764-2.2031,0.3984-3.2783
		c0.084-0.7408,0.1695-1.4829,0.2437-2.2075c0.001-0.0113,0.0029-0.023,0.0039-0.0342h0.0015c0,0,0-0.0005,0-0.001
		c0.601-5.8945,0.8798-11.2456,0.8798-16.1201c-0.0009-4.4297-0.2426-8.4478-0.6743-12.1397l-15.3384,10.8101
		c0.0054,0.4419,0.0147,0.875,0.0147,1.3296c0,4.2627-0.2466,9.0752-0.8003,14.4902h0.001c0,0,0,0.001,0,0.0015
		c-0.0005,0.0049-0.001,0.0102-0.002,0.0151c-0.5971,5.8272-1.5556,12.3565-2.9443,19.6382
		c-0.1719,0.9004-0.3511,1.814-0.5366,2.7378c-0.1885,0.9404-0.3882,1.8999-0.5904,2.8647
		c-0.0981,0.4668-0.1894,0.9219-0.291,1.3946c-0.4272,1.9946-0.0635,3.9702,0.8687,5.6152c0.3305,0.583,0.7256,1.1279,1.1909,1.6123
		c1.0674,1.1104,2.4663,1.9248,4.085,2.2725c0.5644,0.1211,1.1289,0.1797,1.6835,0.1797c3.6924,0,7.0118-2.5694,7.8184-6.3243
		c0.4688-2.1875,0.896-4.309,1.2998-6.3916c0.1997-1.0312,0.3911-2.0493,0.5757-3.0551
		C112.5913,145.5664,113.1382,142.2427,113.5977,139.0625z"/>
	<path d="M58.6914,59.6435c8.4688,1.9712,16.9297-1.1274,22.2139-7.3115c-5.229-33.2578-13.5825-37.083-17.1133-37.083
		c-3.5307,0-11.8843,3.8252-17.1133,37.083C49.6909,55.8691,53.8194,58.5088,58.6914,59.6435z"/>
	<path d="M32.6206,69.5508c0.0191,0.4502,0.042,0.8999,0.0684,1.3476c0.0464,0.7876,0.1001,1.5723,0.1685,2.3516
		c0,0,0.5712-0.2412,1.4423-0.7271c0.7808-0.436,1.8047-1.08,2.8921-1.9282c0.0264-0.0205,0.0528-0.042,0.0791-0.063
		c0.2539-0.1997,0.5074-0.4087,0.7647-0.6313c0.8745-0.7573,1.7553-1.6392,2.5532-2.669c0.1494-0.1928,0.2861-0.4028,0.4287-0.6049
		c0.1323-0.1875,0.2705-0.3658,0.3965-0.5621c1.0503-1.6377,1.8545-3.5703,2.1328-5.8144c0.2598-2.0952,0.7217-5.771,1.4526-10.1636
		C46.8784,38.793,50.564,22.728,57.3194,16.1938c1.9052-1.8427,4.0493-2.9438,6.4716-2.9438c2.4229,0,4.5665,1.1011,6.4717,2.9443
		C77.022,22.7319,80.708,38.811,82.586,50.105c0.7295,4.3842,1.1899,8.0532,1.4492,10.145c0.249,2.0078,0.9321,3.7529,1.8227,5.2744
		c0.105,0.1792,0.2007,0.3682,0.3116,0.541c1.2216,1.9043,2.7724,3.398,4.2207,4.5283c2.3003,1.7955,4.3344,2.6563,4.3344,2.6563
		c0.1587-1.8052,0.2535-3.6358,0.295-5.481C95.7246,36.2207,79.7603,0,63.791,0C50.126,0,36.4634,26.5259,33.2471,53.9492
		c-0.3184,2.7153-0.5352,5.4395-0.6387,8.1475c-0.0288,0.7583-0.0478,1.5151-0.0586,2.2705
		C32.524,66.1069,32.5474,67.8369,32.6206,69.5508z"/>
</g>
</svg>
