<?xml version="1.0" encoding="utf-8"?>
<!-- Generator: Adobe Illustrator 23.0.2, SVG Export Plug-In . SVG Version: 6.00 Build 0)  -->
<svg version="1.1" id="Layer_1" xmlns="http://www.w3.org/2000/svg" xmlns:xlink="http://www.w3.org/1999/xlink" x="0px" y="0px"
	 viewBox="0 0 216.8564 303.2853" enable-background="new 0 0 216.8564 303.2853" xml:space="preserve">
<g>
	<path d="M40.7141,89.9221c7.4356-23.3794,14.5957-46.2935,13.1182-55.7847c-0.9727-6.2412,17.0781-7.4892,13.0977-14.7119
		c-4.6524-8.4404,8.624,0.5254,6.8535-8.3086c-0.9834-4.9013-7.752-9.5615-16.3487-10.9961
		c-8.5966-1.4336-2.6377,10.1797-5.6806,19.7061c-2.1299,6.668-21.9112,18.1963-4.8047,20.5107
		c-1.0977,13.2969-9.7774,27.3203-11.8281,40.3125c-0.3858,2.063-0.8643,4.2618-1.4092,6.5498
		c-1.5664,0.1836-3.0947,0.8262-4.3653,1.9507c-3.3095,2.9263-3.6181,7.9829-0.6914,11.2925
		c0.375,0.4243,0.7539,0.8252,1.1309,1.2393c-3.4902,11.789-7.6455,23.9917-10.4336,32.7177
		c-8.2158,25.7207-24.3877,64.295-17.8213,66.7422c6.5664,2.4473,6.8574-24.7539,14.2793-38.1289
		c8.0313-15.2812,12.168-31.4297,17.0049-47.7568c0.7734-2.6104,1.5879-5.2842,2.4258-7.9942
		c1.042,0.9903,2.0859,1.9546,3.1347,2.8726l3.4444-19.0029C41.4514,90.7302,41.0813,90.3367,40.7141,89.9221z"/>
	<path d="M214.8479,100.4421c2.9278-3.3105,2.6182-8.3652-0.6904-11.2915c-3.3096-2.9282-8.3652-2.6201-11.291,0.69
		c-0.3926,0.4428-0.7871,0.8618-1.1807,1.2905l3.4443,18.999C208.4104,107.2576,211.6653,104.0432,214.8479,100.4421z"/>
	<path d="M125.7385,48.8596c-6.124-6.5796-15.788-14.5395-28.8896-18.0513c-23.709-6.3554-24.75,3.25-25.75,6
		c13.834-0.7949,20.0762,12.1617,22.4062,23.2442c5.6241-2.8399,11.8487-5.3838,18.1143-7.4258
		C116.4007,51.0691,121.1487,49.8166,125.7385,48.8596z M92.4563,38.7361l-1.3965,1.6269l-0.4423-2.0976l-1.9795-0.8262
		l1.8603-1.0684l0.1738-2.1377l1.5909,1.4385l2.0859-0.4961l-0.876,1.9571l1.1153,1.832L92.4563,38.7361z M106.2268,45.0222
		l-0.2158,2.751l-2.0518-1.8438l-2.6835,0.6446l1.1201-2.5225l-1.4424-2.3525l2.7451,0.2871l1.791-2.0987l0.5762,2.6983
		l2.5498,1.0547L106.2268,45.0222z"/>
	<path d="M97.8967,82.1755c2.5977-11.1543,12.4014-18.9453,23.837-18.9453c1.8662,0,3.7431,0.2168,5.5761,0.6445
		c6.5547,1.5259,11.8809,5.5689,15.1973,10.8682c12.4326-6.8101,19.8379-14.4585,18.0674-19.8906
		c-2.0518-6.2984-15.8223-7.7417-33.2901-4.2803c-4.7919,0.9492-9.8603,2.2656-15.0439,3.9551
		c-6.7373,2.1953-12.9492,4.7837-18.3486,7.5488c-13.8985,7.1192-22.3985,15.4107-20.5157,21.1914
		c1.668,5.1187,11.0782,7.0264,23.918,5.7061C97.18,86.7414,97.3655,84.4587,97.8967,82.1755z"/>
	<path d="M126.8557,65.821c-12.0996-2.8164-24.1933,4.708-27.0117,16.8076c-0.4785,2.0552-0.6523,4.1089-0.5625,6.1182
		c0.0303,0.6651,0.0879,1.3252,0.1758,1.979c0.2168,1.6113,0.6074,3.1812,1.1562,4.6865c0.2237,0.1436,0.4727,0.2828,0.7217,0.4283
		c0.4766,0.2783,0.9541,0.583,1.2598,1.0127c0.624,0.875,1.2881,1.8164,2.0625,2.747c0.71,0.8526,1.4053,1.7813,2.2363,2.6192
		c0.6045,0.6084,0.8985,1.6259,1.3994,2.4023l-0.0312,0.2158c-0.0401,0.2652-0.0742,0.5376-0.1084,0.8101
		c-0.0596,0.478-0.1055,0.9634-0.0938,1.4673c0.0088,0.3393,0.0362,0.6587,0.0723,0.9682c0.0801,0.7037,0.2139,1.3345,0.3457,1.8765
		c0.459,1.9014,1.5098,2.8662,3.1221,2.8662l0.1328,0.0039c0.0976,0.0039,0.1982,0.0059,0.2998,0.0059
		c1.2266,0,2.2217-0.5186,2.9385-1.5196c0.0117-0.0131,0.0302-0.0244,0.0429-0.0375c0.0899-0.0928,0.1973-0.1783,0.3116-0.271
		c0.3857-0.3174,0.9013-0.7535,1.3076-1.3731c0.0342-0.0518,0.0713-0.0952,0.1035-0.1494c0.1279-0.2153,0.2578-0.4414,0.3877-0.666
		c0.3769,0.5366,0.7724,1.0234,1.2891,1.1318c0.0937,0.0195,0.1904,0.0108,0.2871,0.0073c1.0371-0.0395,2.2255-1.2963,3.3027-1.2963
		c1.1768,0,2.3809,1.0009,3.4824,0.7705c0.5547-0.1163,1.1621-0.1475,1.7608-0.1993c0.0371,0.0699,0.0634,0.1377,0.1045,0.208
		c0.0136,0.0235,0.0302,0.042,0.0449,0.0645c0.0156,0.0254,0.0332,0.0474,0.0498,0.0718c0.5605,0.831,1.3994,1.186,2.0283,1.4101
		c0.0557,0.0201,0.1133,0.0411,0.165,0.0591c0.0352,0.0127,0.0713,0.0254,0.1065,0.0352c0.0605,0.1718,0.1211,0.3857,0.164,0.5371
		c0.2129,0.7363,0.7081,2.4599,2.4971,2.4599c2.0488,0,3.2256-2.624,3.5635-4.0146c0.0391-0.1641,0.0928-0.3418,0.1475-0.5313
		c0.1855-0.6254,0.4091-1.4008,0.4511-2.2714c0.002-0.0454,0.0098-0.0879,0.0108-0.1338c0.0185-0.7578-0.1787-1.4346-0.3555-2.0303
		c-0.0117-0.0405-0.0215-0.0767-0.0332-0.1167c-0.0742-0.2549-0.1416-0.4976-0.169-0.6841
		c-0.0273-0.1933-0.0576-0.4018-0.0927-0.6211c-0.0088-0.0556-0.0215-0.1167-0.0313-0.1733
		c0.0987-0.0396,0.1953-0.0811,0.293-0.1216c0.4932-0.2051,0.9639-0.4297,1.3105-0.7793c0.8301-0.8359,0.8614-2.3769,1.5713-3.2285
		c0.7735-0.9297,1.7051-1.6465,2.3282-2.5215c0.7441-1.0439,1.1806-2.2793,1.6982-3.1269c0.5732-0.9361,0.6797-1.9219,0.8867-2.6026
		c0.0469-0.1557,0.1006-0.2949,0.166-0.4136c-0.0351,0.0074-0.0722,0.0113-0.1054,0.0196
		c0.6367-4.7007-0.2452-9.3159-2.3037-13.3037c-0.3067-0.5943-0.6387-1.1753-0.9961-1.7398
		C137.6975,70.8767,132.8372,67.2146,126.8557,65.821z M134.5803,107.0798c-0.0146,0.6079-0.1796,1.2041-0.3388,1.7422
		c-0.0811,0.2754-0.1602,0.5396-0.2168,0.7734c-0.291,1.2032-1.1153,2.4844-1.6172,2.4844c-0.4277,0-0.5147-1.0322-0.8643-1.8745
		c-0.0771-0.1875-0.164-0.3691-0.2754-0.5239c-0.2851-0.398-1.1181-0.5059-1.7041-0.8272c-0.0117-0.0058-0.0224-0.0117-0.0332-0.018
		c-0.0556-0.0313-0.1025-0.0699-0.1523-0.106c-0.1221-0.0884-0.2324-0.187-0.3066-0.3125
		c-0.3672-0.6191-0.5254-1.4141-0.9258-2.0859c-0.3848-0.6465-0.7774-1.293-1.1953-1.918
		c-0.4336-0.6484-0.4932-1.5664-0.9659-2.1152c-0.5283-0.6153-1.3906-0.8106-1.9716-1.2002
		c-0.669-0.4483-1.2657-1.4541-2.0098-1.4541c-0.7441,0-1.0645,1.4179-1.7334,1.8662c-0.5811,0.3896-1.3115,0.5244-1.8398,1.1387
		c-0.4737,0.5498-1.587,0.6865-2.0215,1.3339c-0.419,0.625,0.1308,1.878-0.2539,2.5254c-0.1495,0.2505-0.2911,0.4981-0.4346,0.7456
		c-0.0547,0.0953-0.1113,0.1919-0.166,0.2862c-0.1817,0.3159-0.3604,0.6264-0.5371,0.9243
		c-0.128,0.2163-0.2979,0.3999-0.4776,0.5718c-0.4179,0.3989-0.9072,0.7148-1.1758,1.0903c-0.1445,0.2017-0.29,0.3437-0.4355,0.4482
		c-0.4678,0.3365-0.9297,0.251-1.3291,0.251c-0.501,0-0.8867-0.1328-1.1768-1.334c-0.0039-0.0146-0.0068-0.0332-0.0097-0.0483
		c-0.1641-0.6807-0.3311-1.4771-0.3535-2.3775c-0.001-0.0385,0.0029-0.0786,0.0029-0.1176
		c-0.001-0.2276,0.0117-0.4595,0.0342-0.6944c0.0049-0.0532,0.0097-0.1069,0.0156-0.1606c0.0518-0.4766,0.1309-0.9658,0.2002-1.4707
		c0.1094-0.793-0.5195-1.834-0.2656-2.6377c0.2441-0.7725,0.9043-1.5059,1.3047-2.2373c0.3906-0.71,1.1347-1.2578,1.6943-1.8809
		c0.5342-0.5957,1.1182-1.2207,1.8262-1.6953c0.6523-0.4375,1.5781-0.3916,2.3925-0.6924c0.7266-0.2685,1.3965-0.8681,2.2637-1.0048
		c0.7627-0.1192,1.5967,0.3955,2.4756,0.3955c0.8789,0,1.5957,0.247,2.3584,0.3662c0.8662,0.1357,1.7861-0.3789,2.5127-0.1114
		c0.8144,0.3008,1.3652,0.9707,2.0176,1.4082c0.707,0.4747,1.9091,0.4024,2.4433,0.9971c0.5596,0.624,0.4727,1.7569,0.8623,2.4678
		c0.4014,0.7305,1.0899,1.3486,1.335,2.1211c0.248,0.7856,0.3916,1.624,0.5,2.4009c0.0029,0.0171,0.0068,0.0356,0.0088,0.0522
		c0.0019,0.0176,0.0088,0.0352,0.0107,0.0523c0.086,0.5576,0.2891,1.1206,0.419,1.6596
		C134.5364,106.5569,134.5872,106.8249,134.5803,107.0798z"/>
	<path d="M100.8977,116.8513c-37.0761-5.4004-57.0468-25.7109-57.0468-25.7109l-0.3262,1.8017l-3.3867,18.6895l-8.8516,48.8428
		c0,0,40.0625-1.334,50.0625-2c10-0.6661-8.667,108.6669-32.333,136.1669c0,0,18.7715-2.6235,39.1904-4.5371
		c-0.0449,0.6827-0.0195,1.3521,0.044,2.0113c0.5683,5.9228,5.3437,10.7353,11.4726,11.1421
		c6.8125,0.4531,12.7041-4.7022,13.1572-11.5157l0.0928-1.3994l0.1338-2.0088c1.7627-0.0713,3.4775-0.124,5.1318-0.1562
		l3.5147-19.7862l3.5146,19.7862c1.6534,0.0322,3.3692,0.0849,5.1309,0.1562l0.1338,2.0088l0.0928,1.3994
		c0.4531,6.8135,6.3447,11.9688,13.1572,11.5157c6.1289-0.4068,10.9043-5.2193,11.4726-11.1421
		c0.0635-0.6592,0.0889-1.3286,0.044-2.0113c20.4189,1.9136,39.1914,4.5371,39.1914,4.5371
		c-23.666-27.5-42.333-136.833-32.333-136.1669c10,0.666,50.0625,2,50.0625,2l-8.8516-48.8477l-3.3867-18.686l-0.3262-1.8003
		c0,0-19.7734,20.1206-56.5078,25.6367c0.1817-0.6079,0.3672-1.2339,0.5166-1.8789c0.0196-0.0855,0.0215-0.1675,0.0352-0.252
		c0.1504-0.9067,0.0117-1.7588-0.1162-2.4531c-0.0606-0.334-0.1524-0.8428-0.1172-1.0059c0.1045-0.4853,0.2646-0.9824,0.4336-1.5078
		c0.2002-0.6152,0.4053-1.2509,0.54-1.9306c0.1426-0.7002,0.2403-1.3916,0.336-2.0625c0.0712-0.501,0.1396-0.9912,0.2294-1.4659
		c0.0606-0.3281,0.2901-0.749,0.5342-1.1933c0.3418-0.625,0.7295-1.334,0.876-2.1817c0.083-0.4873,0.2852-0.9863,0.5-1.5156
		c0.2441-0.6074,0.499-1.2324,0.6074-1.9248c0.0752-0.4678,0.1934-0.9404,0.3106-1.3974c0.3271-1.2969,0.667-2.6387-0.0879-3.8711
		c-0.2627-0.4307-0.7813-0.9634-1.6719-1.2686c0.3994,0.7798-0.2637,2.2031-0.5254,3.8467c-0.1572,0.9922-0.875,2.0918-1.1035,3.414
		c-0.1855,1.0733-1.1738,2.1045-1.4062,3.3526c-0.2051,1.1025-0.3155,2.2861-0.5577,3.4971
		c-0.2236,1.1191-0.7148,2.2226-0.9707,3.413c-0.2422,1.1319,0.4756,2.5069,0.2051,3.6846
		c-0.2285,0.9927-0.5605,1.9849-0.835,2.9946c-0.04,0.1465-0.0878,0.2896-0.124,0.4371c-0.125,0.5058-0.4385,0.9658-0.7734,1.4218
		c-0.0772,0.1045-0.1524,0.2095-0.2295,0.314c-0.041,0.0547-0.0811,0.1094-0.1201,0.1641
		c-0.2998,0.4135-0.5723,0.8354-0.6953,1.2963c-0.3047,1.1397-0.9287,2.1797-1.2588,3.3155
		c-0.3321,1.1396,0.7715,2.7109,0.416,3.8301c-0.3633,1.1376-2.2217,1.7578-2.6104,2.8593c-0.0888,0.2525-0.123,0.523-0.1357,0.8013
		c-0.041,0.9702,0.2451,2.0464-0.0869,2.8843c-0.4463,1.1259-1.3809,2.0097-1.8565,3.0566
		c-0.5068,1.1143-1.3408,1.9815-1.8808,2.9824c-0.5899,1.0909-0.8721,2.2403-1.501,3.169c-0.708,1.0439-1.8906,1.4609-2.6504,2.2588
		c-0.8828,0.9277-0.9209,2.6093-1.874,3.1406c-1.082,0.6045-2.3242,0.6367-3.4961,0.6367c-1.1699,0-1.8926-0.9609-2.9736-1.5635
		c-0.9532-0.5312-2.5996-0.2451-3.4834-1.1728c-0.7598-0.7969-1.4483-1.8486-2.1573-2.8926
		c-0.6298-0.9287-1.0927-2.0644-1.6826-3.1553c-0.541-1.0029-1.3301-1.958-1.8369-3.0732
		c-0.4766-1.0469-1.0596-2.1133-1.5059-3.2402c-0.4169-1.0542,0.5713-2.6524,0.2422-3.7823
		c-0.0078-0.0254-0.0068-0.0542-0.0156-0.0791c-0.3887-1.1035-1.8633-1.8457-2.2266-2.9853
		c-0.3564-1.1211-1.1015-2.1436-1.4335-3.2842c-0.3301-1.1348-0.4434-2.3438-0.7481-3.4844
		c-0.1357-0.5073-0.2461-1.0205-0.3564-1.5332c-0.0098-0.0478-0.0225-0.0957-0.0332-0.1435
		c-0.0225-0.1075-0.0489-0.2124-0.0713-0.3194c-0.1045-0.4926-0.2061-0.9848-0.3262-1.4687
		c-0.0264-0.1055-0.0684-0.2071-0.1006-0.3106c-0.3203-1.0415-0.8935-2.0161-1.1318-3.0488
		c-0.2696-1.1738,0.9209-2.6504,0.6787-3.7803c-0.2549-1.1904-2.1367-2.0107-2.3604-3.1299
		c-0.2431-1.2119,1.0244-2.666,0.8184-3.7695c-0.0225-0.1211-0.044-0.2305-0.0664-0.3496c-0.21-1.1094-0.417-2.1567-0.585-3.125
		c-0.2295-1.3242-2.0371-2.2363-2.1953-3.2295c-0.2441-1.5312-0.8496-2.9404-0.6191-3.7944
		c0.0215-0.0781,0.0498-0.1509,0.0859-0.2193c-0.1582,0.0542-0.3213,0.104-0.456,0.1714c-0.0694,0.0352-0.1221,0.0772-0.1856,0.1153
		c-0.5088,0.3022-0.8486,0.6777-1.043,0.9985c-0.7636,1.2568-0.413,2.6533-0.0732,4.002c0.1191,0.4677,0.2402,0.9511,0.3154,1.416
		c0.1729,1.0869,0.9131,1.8496,1.5098,2.4648c0.2373,0.2442,0.6338,0.6533,0.6904,0.792c0.1162,0.6738,0.252,1.3809,0.3936,2.1231
		l0.2441,1.2851c-0.0351,0.1709-0.1748,0.5254-0.2734,0.7676c-0.3399,0.8535-0.7647,1.914-0.5205,3.1191
		c0.2353,1.1856,1.0732,1.9649,1.747,2.5928c0.1875,0.1729,0.4522,0.4209,0.5879,0.582c-0.0439,0.1944-0.1562,0.5088-0.2373,0.7334
		c-0.2812,0.7886-0.6181,1.7583-0.4424,2.835c0.0127,0.0752,0.0206,0.1494,0.0381,0.2256
		C100.3772,115.636,100.6487,116.2756,100.8977,116.8513z M161.0764,270.1169l3.0752,1.293l2.8086-1.8018l-0.2783,3.3233
		l2.5801,2.1133l-3.2461,0.7636l-1.2129,3.1075l-1.7295-2.8516l-3.3301-0.1934l2.1787-2.5254L161.0764,270.1169z M141.7171,241.3601
		l3.3173,0.3467l2.167-2.5371l0.6953,3.2627l3.0821,1.2763l-2.8877,1.6699l-0.2617,3.3252l-2.4805-2.2294l-3.2432,0.7792
		l1.3545-3.0488L141.7171,241.3601z M150.1321,208.3767l-0.1689,1.4106l-0.4444,3.7144l-3.6963-3.6035l-5.0644,1l2.2861-4.6289
		l-2.5166-4.5078l5.1074,0.7441l3.5098-3.7861l0.1357,0.7924l0.7364,4.2964l4.6845,2.1661L150.1321,208.3767z M125.3147,166.8406
		l0.0147,0.0341l4.5634,0.9727l-3.5488,3.0312l0.4844,4.6426l-3.918-2.4009l-0.0625-0.0385l-2.2002,0.977l-2.0654,0.9175
		l1.0908-4.5371l-3.1201-3.4717l1.6357-0.1284l3.0157-0.2368l2.3388-4.0401L125.3147,166.8406z M100.9397,233.6296l3.3174,0.3467
		l2.167-2.5371l0.6953,3.2627l3.082,1.2764l-2.8877,1.6699l-0.2617,3.3252l-2.4804-2.2295l-3.2432,0.7793l1.3545-3.0488
		L100.9397,233.6296z M94.2923,194.2556l0.2929-0.1685l0.1836-0.1054l2.416-1.3882l0.2705-3.3252l2.4747,2.2373l3.2451-0.7705
		l-1.3623,3.0439l1.7353,2.8496l-3.3164-0.3554l-2.1728,2.5312l-0.6875-3.2636l-2.5254-1.0542l-0.2793-0.1167L94.2923,194.2556z
		 M88.0169,125.8083l0.2705-3.3252l2.4746,2.2373l3.2451-0.7705l-1.3623,3.044l1.7353,2.8496l-3.3164-0.3555l-2.1728,2.5313
		l-0.6875-3.2637l-3.0791-1.2852L88.0169,125.8083z M61.1848,145.1872l-4.0214-1.7187l-3.6934,2.3389l0.3906-4.3545l-3.3652-2.7901
		l4.2617-0.9736l1.6143-4.0635l2.2441,3.7529l4.3623,0.2793l-2.876,3.293L61.1848,145.1872z M80.9348,266.1355l-2.1728,2.5303
		l-0.6875-3.2637l-3.0791-1.2852l2.8926-1.6621l0.2705-3.3242l2.4746,2.2363l3.2451-0.7695l-1.3623,3.0439l1.7353,2.8487
		L80.9348,266.1355z M169.7063,131.8376l-1.7129-1.54l-0.7675-0.6904l-3.2432,0.7793l1.3545-3.0489l-1.7432-2.8437l3.3174,0.3457
		l2.167-2.5361l0.6953,3.2626l3.082,1.2754l-2.8877,1.67l-0.0986,1.2539L169.7063,131.8376z M191.3245,138.9538l-3.0117,3.5079
		l-0.9522-4.5245l-4.2676-1.7802l4.0088-2.3037l0.375-4.6084l3.4297,3.1005l4.4981-1.0683l-1.8877,4.2207l2.4052,3.9482
		L191.3245,138.9538z"/>
</g>
</svg>
