<?xml version="1.0" encoding="UTF-8"?><svg xmlns="http://www.w3.org/2000/svg" xmlns:xlink="http://www.w3.org/1999/xlink" contentScriptType="text/ecmascript" width="93.75pt" zoomAndPan="magnify" contentStyleType="text/css" viewBox="0 0 93.75 93.749996" height="93.749996pt" preserveAspectRatio="xMidYMid meet" version="1.2"><defs/><g xml:id="surface1" id="surface1"><path style=" stroke:none;fill-rule:nonzero;fill:rgb(4.708862%,29.798889%,46.269226%);fill-opacity:1;" d="M 21.761719 73.339844 C 21.761719 73.894531 21.761719 81.480469 22.972656 82.039062 C 24.054688 82.539062 24.859375 75.433594 24.859375 74.878906 C 24.859375 74.320312 21.761719 72.78125 21.761719 73.339844 "/><path style=" stroke:none;fill-rule:nonzero;fill:rgb(87.449646%,48.629761%,46.269226%);fill-opacity:1;" d="M 33.199219 81.136719 C 28.789062 79.859375 23 74.96875 19.183594 72.851562 C 18.378906 73.109375 16.59375 71.585938 16.59375 71.585938 C 16.59375 71.585938 16.765625 68.214844 17.761719 68.355469 C 20.242188 68.707031 21.058594 70.925781 21.058594 70.925781 C 21.058594 70.925781 28.695312 72.855469 34.5 75.238281 C 39.324219 77.222656 34.96875 81.652344 33.199219 81.136719 "/><path style=" stroke:none;fill-rule:nonzero;fill:rgb(87.449646%,48.629761%,46.269226%);fill-opacity:1;" d="M 18.265625 66.746094 C 18.410156 65.851562 19.371094 65.703125 19.40625 66.132812 C 19.445312 66.5625 19.152344 67.167969 19.203125 68.015625 C 19.242188 68.707031 20.308594 69.738281 20.308594 69.738281 L 18.21875 68.84375 L 17.777344 68.109375 C 17.777344 68.109375 18.167969 67.316406 18.265625 66.746094 "/><path style=" stroke:none;fill-rule:nonzero;fill:rgb(3.919983%,56.469727%,77.249146%);fill-opacity:1;" d="M 36.699219 84.574219 C 32.882812 84.871094 23.890625 82.699219 22.972656 82.039062 C 22.050781 81.375 25.363281 73.984375 23.140625 71.464844 C 22.371094 70.59375 33.363281 74.726562 35.839844 74.765625 C 38.316406 74.804688 43.679688 71.257812 46.605469 69.929688 C 49.53125 68.601562 52.769531 67.007812 54.582031 66.746094 L 51.5625 78.683594 C 51.5625 78.683594 42.476562 84.128906 36.699219 84.574219 "/><g clip-rule="nonzero"><path style=" stroke:none;fill-rule:nonzero;fill:rgb(18.818665%,14.509583%,19.60907%);fill-opacity:1;" d="M 20.648438 59.617188 C 20.824219 58.882812 20.445312 58.523438 20.152344 59.484375 C 19.859375 60.445312 15.878906 74.035156 15.878906 74.035156 L 16.78125 74.273438 C 16.78125 74.273438 20.476562 60.351562 20.648438 59.617188 "/></g><path style=" stroke:none;fill-rule:nonzero;fill:rgb(82.749939%,61.959839%,12.939453%);fill-opacity:1;" d="M 19.261719 62.507812 C 19.726562 60.925781 20.074219 59.742188 20.152344 59.484375 C 20.445312 58.523438 20.824219 58.882812 20.648438 59.617188 C 20.601562 59.820312 20.285156 61.027344 19.855469 62.667969 L 19.261719 62.507812 "/><g clip-rule="nonzero"><path style=" stroke:none;fill-rule:nonzero;fill:rgb(12.939453%,9.408569%,12.939453%);fill-opacity:1;" d="M 16.78125 74.273438 C 16.808594 74.167969 16.628906 74.03125 16.378906 73.964844 C 16.132812 73.898438 15.90625 73.929688 15.878906 74.035156 C 15.851562 74.136719 16.03125 74.277344 16.277344 74.34375 C 16.527344 74.410156 16.75 74.378906 16.78125 74.273438 "/></g><path style=" stroke:none;fill-rule:nonzero;fill:rgb(97.24884%,60.389709%,59.21936%);fill-opacity:1;" d="M 19.183594 69.460938 C 19.414062 69.742188 19.074219 70.160156 18.691406 69.875 C 18.269531 69.558594 17.769531 69.050781 17.214844 68.601562 C 16.699219 68.1875 17.464844 67.691406 17.902344 68.082031 C 18.34375 68.472656 18.875 69.085938 19.183594 69.460938 "/><path style=" stroke:none;fill-rule:nonzero;fill:rgb(97.24884%,60.389709%,59.21936%);fill-opacity:1;" d="M 18.6875 70.386719 C 18.898438 70.699219 18.496094 71.070312 18.132812 70.726562 C 17.730469 70.351562 17.269531 69.769531 16.738281 69.234375 C 16.25 68.742188 17.09375 68.355469 17.507812 68.816406 C 17.921875 69.273438 18.40625 69.964844 18.6875 70.386719 "/><path style=" stroke:none;fill-rule:nonzero;fill:rgb(97.24884%,60.389709%,59.21936%);fill-opacity:1;" d="M 18.238281 71.191406 C 18.429688 71.515625 18.011719 71.863281 17.667969 71.5 C 17.285156 71.105469 16.855469 70.496094 16.359375 69.933594 C 15.898438 69.417969 16.761719 69.078125 17.148438 69.558594 C 17.539062 70.039062 17.980469 70.753906 18.238281 71.191406 "/><g clip-rule="nonzero"><path style=" stroke:none;fill-rule:nonzero;fill:rgb(97.24884%,60.389709%,59.21936%);fill-opacity:1;" d="M 17.898438 71.800781 C 18.097656 72.089844 17.738281 72.453125 17.390625 72.140625 C 17.011719 71.800781 16.566406 71.261719 16.066406 70.773438 C 15.601562 70.324219 16.371094 69.929688 16.765625 70.351562 C 17.160156 70.769531 17.625 71.410156 17.898438 71.800781 "/></g><path style=" stroke:none;fill-rule:nonzero;fill:rgb(97.648621%,65.489197%,16.859436%);fill-opacity:1;" d="M 25 64.222656 C 25 64.222656 24.128906 63.152344 24.179688 62.632812 C 24.226562 62.117188 24.875 60.988281 24.875 60.988281 C 24.875 60.988281 23.988281 61.828125 23.277344 61.804688 C 22.566406 61.78125 21.621094 61.109375 21.621094 61.109375 C 21.621094 61.109375 22.574219 62.023438 22.445312 62.699219 C 22.3125 63.378906 21.746094 64.34375 21.746094 64.34375 C 21.746094 64.34375 22.71875 63.484375 23.34375 63.527344 C 23.96875 63.574219 25 64.222656 25 64.222656 "/><path style=" stroke:none;fill-rule:nonzero;fill:rgb(97.648621%,65.489197%,16.859436%);fill-opacity:1;" d="M 20.339844 55.777344 C 20.339844 55.777344 20.648438 55.144531 20.898438 55.054688 C 21.148438 54.960938 21.816406 55.015625 21.816406 55.015625 C 21.816406 55.015625 21.234375 54.792969 21.089844 54.460938 C 20.945312 54.128906 21.050781 53.546875 21.050781 53.546875 C 21.050781 53.546875 20.832031 54.183594 20.492188 54.273438 C 20.148438 54.359375 19.570312 54.308594 19.570312 54.308594 C 19.570312 54.308594 20.183594 54.570312 20.300781 54.867188 C 20.417969 55.164062 20.339844 55.777344 20.339844 55.777344 "/><path style=" stroke:none;fill-rule:nonzero;fill:rgb(97.648621%,65.489197%,16.859436%);fill-opacity:1;" d="M 23.535156 58.980469 C 23.535156 58.980469 23.453125 58.585938 23.539062 58.457031 C 23.621094 58.332031 23.945312 58.128906 23.945312 58.128906 C 23.945312 58.128906 23.597656 58.226562 23.417969 58.125 C 23.238281 58.019531 23.085938 57.722656 23.085938 57.722656 C 23.085938 57.722656 23.207031 58.085938 23.082031 58.242188 C 22.957031 58.398438 22.675781 58.574219 22.675781 58.574219 C 22.675781 58.574219 23.046875 58.480469 23.199219 58.578125 C 23.355469 58.671875 23.535156 58.980469 23.535156 58.980469 "/><g clip-rule="nonzero"><path style=" stroke:none;fill-rule:nonzero;fill:rgb(97.648621%,65.489197%,16.859436%);fill-opacity:1;" d="M 16.238281 61.898438 C 16.238281 61.898438 16.546875 61.269531 16.796875 61.175781 C 17.050781 61.085938 17.714844 61.140625 17.714844 61.140625 C 17.714844 61.140625 17.128906 60.914062 16.988281 60.582031 C 16.84375 60.25 16.949219 59.671875 16.949219 59.671875 C 16.949219 59.671875 16.734375 60.304688 16.386719 60.394531 C 16.046875 60.484375 15.46875 60.433594 15.46875 60.433594 C 15.46875 60.433594 16.085938 60.691406 16.199219 60.988281 C 16.3125 61.285156 16.238281 61.898438 16.238281 61.898438 "/></g><g clip-rule="nonzero"><path style=" stroke:none;fill-rule:nonzero;fill:rgb(97.648621%,65.489197%,16.859436%);fill-opacity:1;" d="M 16.453125 64.976562 C 16.453125 64.976562 16.371094 64.582031 16.453125 64.453125 C 16.539062 64.324219 16.859375 64.121094 16.859375 64.121094 C 16.859375 64.121094 16.515625 64.21875 16.335938 64.117188 C 16.15625 64.015625 16.003906 63.714844 16.003906 63.714844 C 16.003906 63.714844 16.125 64.078125 16 64.238281 C 15.875 64.394531 15.59375 64.570312 15.59375 64.570312 C 15.59375 64.570312 15.960938 64.476562 16.121094 64.574219 C 16.273438 64.667969 16.453125 64.976562 16.453125 64.976562 "/></g><path style=" stroke:none;fill-rule:nonzero;fill:rgb(97.648621%,65.489197%,16.859436%);fill-opacity:1;" d="M 26.648438 55.21875 C 26.648438 55.21875 26.300781 55.011719 26.261719 54.863281 C 26.222656 54.71875 26.285156 54.34375 26.285156 54.34375 C 26.285156 54.34375 26.125 54.664062 25.929688 54.726562 C 25.730469 54.792969 25.40625 54.703125 25.40625 54.703125 C 25.40625 54.703125 25.757812 54.859375 25.792969 55.054688 C 25.824219 55.253906 25.769531 55.578125 25.769531 55.578125 C 25.769531 55.578125 25.949219 55.242188 26.121094 55.191406 C 26.300781 55.140625 26.648438 55.21875 26.648438 55.21875 "/><g clip-rule="nonzero"><path style=" stroke:none;fill-rule:nonzero;fill:rgb(97.648621%,65.489197%,16.859436%);fill-opacity:1;" d="M 16.949219 55.695312 C 16.949219 55.695312 16.605469 55.488281 16.566406 55.34375 C 16.523438 55.195312 16.589844 54.824219 16.589844 54.824219 C 16.589844 54.824219 16.429688 55.140625 16.234375 55.207031 C 16.035156 55.269531 15.710938 55.183594 15.710938 55.183594 C 15.710938 55.183594 16.0625 55.335938 16.097656 55.535156 C 16.128906 55.734375 16.070312 56.054688 16.070312 56.054688 C 16.070312 56.054688 16.25 55.722656 16.425781 55.671875 C 16.601562 55.621094 16.949219 55.695312 16.949219 55.695312 "/></g><g clip-rule="nonzero"><path style=" stroke:none;fill-rule:nonzero;fill:rgb(3.919983%,5.488586%,9.799194%);fill-opacity:1;" d="M 53.804688 93.738281 C 51.59375 92.113281 49.292969 92.433594 47.359375 93.738281 L 53.804688 93.738281 "/></g><g clip-rule="nonzero"><path style=" stroke:none;fill-rule:nonzero;fill:rgb(5.879211%,8.628845%,15.289307%);fill-opacity:1;" d="M 68.246094 93.738281 C 65.863281 91.8125 62.507812 90.867188 59.371094 93.738281 L 68.246094 93.738281 "/></g><path style=" stroke:none;fill-rule:nonzero;fill:rgb(3.919983%,56.469727%,77.249146%);fill-opacity:1;" d="M 44.847656 71.855469 C 43.5 72.304688 36.949219 77.578125 36.699219 76.292969 C 36.214844 73.800781 38.492188 63.699219 40.238281 59.679688 C 42.335938 54.855469 44.082031 53.335938 45.96875 52.179688 C 49.761719 49.851562 53.445312 49.480469 53.445312 49.480469 C 53.445312 49.480469 46.199219 71.40625 44.847656 71.855469 "/><g clip-rule="nonzero"><path style=" stroke:none;fill-rule:nonzero;fill:rgb(5.879211%,8.628845%,15.289307%);fill-opacity:1;" d="M 70.007812 93.738281 C 68.394531 89.941406 66.574219 88.066406 66.574219 88.066406 C 66.574219 88.066406 47.707031 85.6875 45.933594 88.066406 C 45.042969 89.261719 44.1875 91.222656 43.566406 93.738281 L 70.007812 93.738281 "/></g><path style=" stroke:none;fill-rule:nonzero;fill:rgb(96.859741%,57.649231%,54.508972%);fill-opacity:1;" d="M 66.210938 88.066406 C 65.320312 89.824219 47.84375 90.832031 45.574219 88.066406 C 44.222656 86.417969 48.039062 77.945312 46.992188 75.195312 C 44.933594 69.78125 48.566406 59.6875 48.566406 59.6875 L 54.554688 50.496094 C 54.554688 50.496094 58.792969 45.703125 63.363281 50.496094 C 67.40625 54.746094 65.296875 73.871094 65.472656 76.261719 C 65.648438 78.648438 67.652344 85.238281 66.210938 88.066406 "/><g clip-rule="nonzero"><path style=" stroke:none;fill-rule:nonzero;fill:rgb(3.529358%,50.588989%,69.799805%);fill-opacity:1;" d="M 42.917969 78.714844 C 43.019531 83.824219 42.980469 88.835938 42.820312 93.738281 L 76.292969 93.738281 L 75.414062 88.644531 C 75.414062 88.644531 74.878906 79.964844 74.835938 74.539062 C 74.785156 69.242188 66.945312 65.515625 67.027344 59.246094 C 67.078125 55.652344 68.804688 52.085938 67.230469 50.800781 C 65.902344 49.726562 63.0625 48.941406 61.609375 48.558594 C 57.9375 47.601562 51.101562 49.433594 49.039062 51.996094 C 47.378906 54.054688 42.691406 60.6875 42.917969 66.835938 C 43.050781 70.644531 42.839844 75.003906 42.917969 78.714844 "/><path style=" stroke:none;fill-rule:nonzero;fill:rgb(3.138733%,45.878601%,63.529968%);fill-opacity:1;" d="M 42.914062 78.714844 C 42.960938 81.027344 42.976562 83.3125 42.964844 85.582031 C 45.679688 86.4375 48.570312 86.304688 51.253906 87.414062 C 53.09375 88.179688 54.234375 90.011719 55.746094 91.207031 C 57.542969 92.625 59.691406 93.039062 61.644531 93.738281 L 76.289062 93.738281 L 75.410156 88.644531 C 75.410156 88.644531 74.882812 79.964844 74.835938 74.535156 C 74.789062 69.242188 66.945312 65.515625 67.03125 59.25 C 67.078125 55.652344 68.808594 52.082031 67.230469 50.804688 C 65.90625 49.726562 63.0625 48.945312 61.605469 48.5625 C 57.933594 47.601562 51.105469 49.4375 49.039062 51.996094 C 47.375 54.054688 42.691406 60.691406 42.914062 66.835938 C 43.050781 70.640625 42.835938 75 42.914062 78.714844 "/></g><path style=" stroke:none;fill-rule:nonzero;fill:rgb(3.919983%,32.939148%,48.629761%);fill-opacity:1;" d="M 77.28125 36.230469 C 77.28125 36.230469 70.03125 36.828125 68.421875 34.105469 C 67.789062 33.039062 68.394531 31.417969 69.699219 31.417969 C 71 31.417969 77.28125 36.230469 77.28125 36.230469 "/><path style=" stroke:none;fill-rule:nonzero;fill:rgb(96.859741%,57.649231%,54.508972%);fill-opacity:1;" d="M 55.917969 51.964844 C 60.515625 52.378906 61.613281 48.539062 61.613281 48.539062 L 61.042969 46.136719 C 61.042969 46.136719 66.140625 43.378906 67.816406 39.96875 C 69.632812 36.265625 69.289062 33.855469 69.953125 29.410156 C 70.785156 23.820312 64.609375 21.660156 64.609375 21.660156 L 53.199219 24.507812 C 53.199219 24.507812 50.785156 23.957031 49.953125 28.296875 C 49.019531 33.167969 48.671875 39.808594 50.789062 43.480469 C 51.820312 45.257812 54.550781 45.757812 54.550781 45.757812 L 55.050781 48.871094 C 55.050781 48.871094 51.320312 51.546875 55.917969 51.964844 "/><path style=" stroke:none;fill-rule:nonzero;fill:rgb(80.389404%,35.688782%,38.038635%);fill-opacity:1;" d="M 51.820312 37.0625 C 51.511719 37.0625 51.199219 37.019531 50.929688 36.917969 C 50.65625 36.816406 50.425781 36.660156 50.28125 36.429688 C 50.183594 36.277344 50.132812 36.089844 50.132812 35.875 C 50.132812 35.84375 50.132812 35.808594 50.136719 35.777344 C 50.144531 35.65625 50.167969 35.558594 50.207031 35.480469 C 50.25 35.398438 50.300781 35.335938 50.363281 35.292969 C 50.492188 35.199219 50.648438 35.175781 50.804688 35.171875 C 50.929688 35.171875 51.058594 35.191406 51.167969 35.207031 C 51.277344 35.226562 51.375 35.242188 51.433594 35.242188 C 51.449219 35.242188 51.460938 35.242188 51.46875 35.238281 C 51.476562 35.238281 51.480469 35.238281 51.480469 35.238281 C 51.792969 34.921875 51.921875 34.511719 51.921875 34.035156 C 51.925781 33.550781 51.785156 33 51.558594 32.429688 C 51.546875 32.40625 51.558594 32.378906 51.585938 32.367188 C 51.589844 32.363281 51.597656 32.363281 51.601562 32.363281 C 51.621094 32.363281 51.640625 32.375 51.648438 32.394531 C 51.875 32.972656 52.019531 33.535156 52.019531 34.035156 C 52.019531 34.53125 51.882812 34.96875 51.546875 35.304688 C 51.53125 35.320312 51.511719 35.328125 51.492188 35.332031 C 51.476562 35.335938 51.457031 35.335938 51.433594 35.335938 C 51.359375 35.335938 51.265625 35.320312 51.152344 35.304688 C 51.042969 35.285156 50.921875 35.269531 50.804688 35.269531 L 50.800781 35.269531 C 50.695312 35.269531 50.589844 35.285156 50.503906 35.320312 C 50.417969 35.359375 50.34375 35.421875 50.296875 35.523438 C 50.261719 35.589844 50.238281 35.675781 50.230469 35.785156 C 50.230469 35.816406 50.226562 35.84375 50.226562 35.875 C 50.226562 36.074219 50.277344 36.242188 50.363281 36.378906 C 50.449219 36.515625 50.570312 36.628906 50.722656 36.714844 C 51.019531 36.890625 51.421875 36.96875 51.816406 36.96875 C 51.820312 36.96875 51.820312 36.96875 51.820312 36.96875 C 51.851562 36.96875 51.882812 36.96875 51.910156 36.96875 C 51.910156 36.96875 51.914062 36.96875 51.914062 36.96875 C 51.9375 36.96875 51.960938 36.988281 51.960938 37.015625 C 51.960938 37.039062 51.941406 37.0625 51.914062 37.0625 C 51.882812 37.0625 51.851562 37.0625 51.820312 37.0625 "/><path style=" stroke:none;fill-rule:nonzero;fill:rgb(13.328552%,4.708862%,4.309082%);fill-opacity:1;" d="M 53.804688 33.566406 C 53.757812 34.160156 53.941406 34.65625 54.210938 34.679688 C 54.484375 34.695312 54.738281 34.234375 54.785156 33.644531 C 54.828125 33.050781 54.644531 32.558594 54.375 32.539062 C 54.101562 32.515625 53.847656 32.980469 53.804688 33.566406 "/><path style=" stroke:none;fill-rule:nonzero;fill:rgb(13.328552%,4.708862%,4.309082%);fill-opacity:1;" d="M 49.691406 33.289062 C 49.648438 33.882812 49.832031 34.378906 50.101562 34.398438 C 50.375 34.417969 50.628906 33.953125 50.675781 33.363281 C 50.71875 32.773438 50.535156 32.277344 50.265625 32.257812 C 49.992188 32.238281 49.738281 32.699219 49.691406 33.289062 "/><path style=" stroke:none;fill-rule:nonzero;fill:rgb(82.749939%,82.348633%,82.348633%);fill-opacity:1;" d="M 50.863281 30.714844 C 50.730469 30.800781 50.183594 30.683594 49.546875 30.804688 C 49.433594 30.820312 49.421875 30.351562 49.636719 30.183594 C 50.050781 29.851562 50.761719 29.796875 50.929688 29.796875 C 51.273438 29.792969 50.996094 30.628906 50.863281 30.714844 "/><path style=" stroke:none;fill-rule:nonzero;fill:rgb(82.749939%,82.348633%,82.348633%);fill-opacity:1;" d="M 53.710938 31.027344 C 55.300781 30.746094 56.4375 31.585938 56.640625 31.386719 C 57.046875 30.992188 55.332031 29.710938 53.796875 29.796875 C 53.335938 29.820312 53.574219 31.054688 53.710938 31.027344 "/><path style=" stroke:none;fill-rule:nonzero;fill:rgb(82.749939%,82.348633%,82.348633%);fill-opacity:1;" d="M 67.839844 21.894531 C 70.03125 23.75 70.710938 28.613281 70.539062 33.609375 C 70.433594 36.515625 69.757812 47.421875 66.820312 50.507812 C 65.8125 50.507812 63.839844 49.605469 63.839844 49.605469 L 61.613281 48.539062 C 61.613281 48.539062 60.605469 46.574219 60.699219 45.472656 C 61.019531 41.835938 62.765625 35.207031 62.699219 34.660156 C 62.285156 37.6875 61.089844 37.210938 61.089844 37.210938 C 61.089844 37.210938 60.792969 35.648438 60.71875 34.398438 C 60.503906 30.238281 59.976562 26.640625 53.601562 25.378906 C 50.085938 25.308594 50.066406 27.777344 50.066406 27.777344 C 50.066406 27.777344 48.226562 25.902344 50.183594 24.046875 C 51.152344 23.128906 65.535156 19.949219 67.839844 21.894531 "/><path style=" stroke:none;fill-rule:nonzero;fill:rgb(96.859741%,57.649231%,54.508972%);fill-opacity:1;" d="M 62.699219 34.660156 C 62.699219 34.660156 61.8125 37.578125 62.703125 37.730469 C 63.589844 37.878906 64.683594 37.75 65.417969 36.246094 C 66.148438 34.75 65.398438 33.460938 64.507812 33.316406 C 63.621094 33.164062 62.699219 34.660156 62.699219 34.660156 "/><path style=" stroke:none;fill-rule:nonzero;fill:rgb(96.078491%,47.44873%,51.759338%);fill-opacity:1;" d="M 53.417969 36.398438 C 53.417969 36.835938 54.117188 37.191406 54.980469 37.191406 C 55.84375 37.191406 56.542969 36.835938 56.542969 36.398438 C 56.542969 35.960938 55.84375 35.605469 54.980469 35.605469 C 54.117188 35.605469 53.417969 35.960938 53.417969 36.398438 "/><path style=" stroke:none;fill-rule:nonzero;fill:rgb(82.749939%,82.348633%,82.348633%);fill-opacity:1;" d="M 49.21875 38.308594 C 47.597656 43.910156 50.210938 57.664062 52.46875 57.664062 C 54.726562 57.664062 62.699219 49.378906 62.699219 34.660156 C 62.699219 34.660156 61.035156 33.71875 60.789062 35.195312 C 60.542969 36.671875 61.871094 40.84375 58.515625 41.882812 C 55.160156 42.925781 58.304688 37.808594 52.101562 37.367188 C 50.238281 37.238281 49.21875 38.308594 49.21875 38.308594 "/><path style=" stroke:none;fill-rule:nonzero;fill:rgb(96.859741%,57.649231%,54.508972%);fill-opacity:1;" d="M 50.179688 38.058594 C 50.347656 39.808594 52.324219 40.066406 52.855469 38.058594 L 50.179688 38.058594 "/><path style=" stroke:none;fill-rule:nonzero;fill:rgb(3.919983%,32.939148%,48.629761%);fill-opacity:1;" d="M 42.914062 22.648438 C 42.914062 22.648438 47.960938 26.382812 51.09375 25.851562 C 52.324219 25.640625 52.917969 23.617188 52.078125 22.628906 C 51.238281 21.636719 42.914062 22.648438 42.914062 22.648438 "/><path style=" stroke:none;fill-rule:nonzero;fill:rgb(3.138733%,45.878601%,63.529968%);fill-opacity:1;" d="M 71.550781 7.992188 C 70.9375 7.960938 68.8125 6.050781 67.902344 5.199219 C 67.867188 5.175781 67.851562 5.15625 67.832031 5.140625 C 67.867188 5.199219 68.042969 5.449219 67.902344 5.59375 C 67.691406 5.800781 67.480469 5.390625 67.589844 5.832031 C 67.675781 6.183594 67.789062 6.65625 67.917969 7.234375 C 68 7.574219 68.09375 7.960938 68.1875 8.367188 C 68.203125 8.449219 68.21875 8.535156 68.246094 8.625 C 68.320312 8.976562 68.402344 9.351562 68.488281 9.742188 C 68.722656 10.785156 68.972656 11.96875 69.226562 13.226562 C 69.375 13.960938 69.519531 14.730469 69.671875 15.511719 C 69.871094 16.605469 70.0625 17.738281 70.242188 18.871094 C 70.398438 19.890625 70.550781 20.914062 70.667969 21.925781 C 70.835938 23.191406 70.953125 24.441406 71.027344 25.625 C 71.085938 26.441406 71.113281 27.234375 71.113281 27.976562 C 71.113281 29.285156 71.027344 30.460938 70.828125 31.417969 C 69.769531 30.8125 62.382812 26.609375 62.382812 26.609375 C 62.382812 26.609375 50.859375 27.066406 50.238281 25.898438 C 50.097656 25.152344 50.144531 24.214844 50.355469 23.15625 L 50.355469 23.148438 C 50.5 22.382812 50.722656 21.558594 51.007812 20.679688 C 51.90625 17.972656 53.425781 14.8125 55.167969 11.800781 C 55.347656 11.496094 55.523438 11.195312 55.699219 10.894531 C 56.863281 8.941406 58.113281 7.074219 59.320312 5.464844 L 59.328125 5.457031 C 60.09375 4.425781 60.855469 3.5 61.570312 2.714844 C 63.011719 1.132812 64.269531 0.128906 65.117188 0.0703125 C 65.125 0.0703125 65.125 0.0703125 65.132812 0.0703125 C 65.140625 0.0703125 65.140625 0.0703125 65.148438 0.0703125 C 66.054688 0.015625 66.871094 0.28125 67.589844 0.730469 C 67.648438 0.765625 67.699219 0.796875 67.757812 0.839844 L 67.765625 0.839844 C 68.714844 1.472656 69.496094 2.398438 70.113281 3.25 C 70.910156 4.347656 71.429688 5.324219 71.667969 5.351562 C 71.859375 5.367188 72.128906 5.117188 72.410156 4.792969 C 72.964844 4.15625 73.585938 3.242188 73.820312 3.457031 C 74.175781 3.78125 72.335938 8.027344 71.550781 7.992188 "/><path style=" stroke:none;fill-rule:nonzero;fill:rgb(1.959229%,33.329773%,47.059631%);fill-opacity:1;" d="M 68.671875 5.90625 L 67.816406 5.132812 L 67.359375 3.929688 Z M 68.671875 5.90625 "/><path style=" stroke:none;fill-rule:nonzero;fill:rgb(1.959229%,33.329773%,47.059631%);fill-opacity:1;" d="M 67.699219 6.289062 L 67.589844 5.617188 L 66.609375 5.132812 Z M 67.699219 6.289062 "/><path style=" stroke:none;fill-rule:nonzero;fill:rgb(2.349854%,61.178589%,81.17981%);fill-opacity:1;" d="M 53.917969 21.574219 L 52.578125 22.375 L 52.484375 23.925781 L 51.304688 22.90625 L 50.355469 23.148438 C 50.5 22.382812 50.722656 21.558594 51.007812 20.679688 L 51.117188 20.691406 L 52.109375 19.488281 L 52.460938 21.007812 L 53.917969 21.574219 "/><path style=" stroke:none;fill-rule:nonzero;fill:rgb(2.349854%,61.178589%,81.17981%);fill-opacity:1;" d="M 59.632812 26.265625 L 58.449219 25.246094 L 56.9375 25.640625 L 57.542969 24.207031 L 56.703125 22.898438 L 58.261719 23.03125 L 59.25 21.832031 L 59.605469 23.34375 L 61.0625 23.910156 L 59.726562 24.714844 L 59.632812 26.265625 "/><path style=" stroke:none;fill-rule:nonzero;fill:rgb(2.349854%,61.178589%,81.17981%);fill-opacity:1;" d="M 70.667969 21.925781 L 70.132812 21.457031 L 68.621094 21.847656 L 69.226562 20.421875 L 68.378906 19.113281 L 69.9375 19.238281 L 70.242188 18.871094 C 70.398438 19.890625 70.550781 20.914062 70.667969 21.925781 "/><path style=" stroke:none;fill-rule:nonzero;fill:rgb(2.349854%,61.178589%,81.17981%);fill-opacity:1;" d="M 58.886719 11.800781 L 57.542969 12.601562 L 57.449219 14.152344 L 56.269531 13.144531 L 54.757812 13.535156 L 55.363281 12.101562 L 55.167969 11.800781 C 55.347656 11.496094 55.523438 11.195312 55.699219 10.894531 L 56.082031 10.925781 L 57.074219 9.726562 L 57.425781 11.234375 L 58.886719 11.800781 "/><path style=" stroke:none;fill-rule:nonzero;fill:rgb(2.349854%,61.178589%,81.17981%);fill-opacity:1;" d="M 62.976562 13.269531 L 61.796875 12.253906 L 60.28125 12.644531 L 60.890625 11.214844 L 60.046875 9.90625 L 61.605469 10.035156 L 62.597656 8.835938 L 62.953125 10.347656 L 64.40625 10.914062 L 63.070312 11.71875 L 62.976562 13.269531 "/><path style=" stroke:none;fill-rule:nonzero;fill:rgb(2.349854%,61.178589%,81.17981%);fill-opacity:1;" d="M 63.246094 4.214844 L 61.902344 5.023438 L 61.8125 6.574219 L 60.628906 5.558594 L 59.121094 5.949219 L 59.320312 5.464844 L 59.328125 5.457031 C 60.09375 4.425781 60.855469 3.5 61.570312 2.714844 L 61.785156 3.648438 L 63.246094 4.214844 "/><path style=" stroke:none;fill-rule:nonzero;fill:rgb(2.349854%,61.178589%,81.17981%);fill-opacity:1;" d="M 67.777344 3.535156 L 66.367188 3.425781 L 65.476562 4.523438 L 65.144531 3.15625 L 63.824219 2.652344 L 65.027344 1.914062 L 65.101562 0.507812 L 66.175781 1.421875 L 67.542969 1.054688 L 67.007812 2.355469 L 67.777344 3.535156 "/><path style=" stroke:none;fill-rule:nonzero;fill:rgb(2.349854%,61.178589%,81.17981%);fill-opacity:1;" d="M 67.21875 24.238281 L 65.65625 24.164062 L 64.707031 25.398438 L 64.296875 23.902344 L 62.824219 23.390625 L 64.128906 22.535156 L 64.164062 20.984375 L 65.382812 21.957031 L 66.882812 21.507812 L 66.324219 22.960938 L 67.21875 24.238281 "/><path style=" stroke:none;fill-rule:nonzero;fill:rgb(2.349854%,61.178589%,81.17981%);fill-opacity:1;" d="M 71.113281 27.976562 L 70.25 29.101562 L 69.835938 27.601562 L 68.359375 27.085938 L 69.671875 26.234375 L 69.703125 24.683594 L 70.929688 25.660156 L 71.027344 25.625 C 71.085938 26.441406 71.113281 27.234375 71.113281 27.976562 "/><path style=" stroke:none;fill-rule:nonzero;fill:rgb(2.349854%,61.178589%,81.17981%);fill-opacity:1;" d="M 65.683594 18.332031 L 64.121094 18.253906 L 63.175781 19.492188 L 62.761719 17.992188 L 61.289062 17.480469 L 62.59375 16.625 L 62.632812 15.074219 L 63.851562 16.046875 L 65.347656 15.597656 L 64.792969 17.050781 L 65.683594 18.332031 "/><path style=" stroke:none;fill-rule:nonzero;fill:rgb(2.349854%,61.178589%,81.17981%);fill-opacity:1;" d="M 58.882812 19.320312 L 57.332031 19.109375 L 56.28125 20.257812 L 56.003906 18.730469 L 54.582031 18.089844 L 55.957031 17.355469 L 56.132812 15.8125 L 57.257812 16.886719 L 58.789062 16.570312 L 58.109375 17.96875 L 58.882812 19.320312 "/><path style=" stroke:none;fill-rule:nonzero;fill:rgb(2.349854%,61.178589%,81.17981%);fill-opacity:1;" d="M 69.671875 15.511719 L 69.277344 15.464844 L 68.21875 16.613281 L 67.949219 15.078125 L 66.523438 14.4375 L 67.902344 13.703125 L 68.078125 12.160156 L 69.199219 13.238281 L 69.226562 13.226562 C 69.375 13.960938 69.519531 14.730469 69.671875 15.511719 "/><path style=" stroke:none;fill-rule:nonzero;fill:rgb(2.349854%,61.178589%,81.17981%);fill-opacity:1;" d="M 68.488281 9.742188 L 67.371094 9.585938 L 66.316406 10.734375 L 66.039062 9.210938 L 64.621094 8.566406 L 65.996094 7.835938 L 66.164062 6.285156 L 67.296875 7.359375 L 67.917969 7.234375 C 68 7.574219 68.09375 7.960938 68.1875 8.367188 L 68.144531 8.449219 L 68.246094 8.625 C 68.320312 8.976562 68.402344 9.351562 68.488281 9.742188 "/><path style=" stroke:none;fill-rule:nonzero;fill:rgb(2.349854%,61.178589%,81.17981%);fill-opacity:1;" d="M 72.972656 5.773438 L 71.421875 5.566406 L 70.375 6.71875 L 70.097656 5.183594 L 68.671875 4.539062 L 70.046875 3.808594 L 70.113281 3.25 C 70.910156 4.347656 71.429688 5.324219 71.667969 5.351562 C 71.859375 5.367188 72.128906 5.117188 72.410156 4.792969 L 72.972656 5.773438 "/><path style=" stroke:none;fill-rule:nonzero;fill:rgb(3.919983%,56.469727%,77.249146%);fill-opacity:1;" d="M 42.644531 23.816406 C 43.109375 24.285156 47.5625 27.152344 51.886719 27.464844 C 56.207031 27.777344 60.648438 27.046875 64.507812 28.609375 C 68.371094 30.171875 75.195312 35.269531 76.378906 35.996094 C 77.5625 36.722656 78.1875 35.714844 77.253906 34.964844 C 76.320312 34.210938 68.585938 28.089844 65.226562 26.734375 C 61.871094 25.378906 55.996094 25.65625 52.066406 25.171875 C 47.847656 24.652344 43.820312 23.320312 43.136719 22.773438 C 42.457031 22.226562 42.175781 23.347656 42.644531 23.816406 "/><path style=" stroke:none;fill-rule:nonzero;fill:rgb(90.589905%,90.19928%,90.19928%);fill-opacity:1;" d="M 55.816406 37.1875 C 56.132812 37.589844 54.832031 39.160156 53.253906 39.160156 C 51.675781 39.160156 51.253906 37.953125 51.289062 37.660156 C 51.320312 37.363281 52.046875 36.660156 52.515625 36.914062 C 54.300781 37.882812 55.5 36.785156 55.816406 37.1875 "/><path style=" stroke:none;fill-rule:nonzero;fill:rgb(90.589905%,90.19928%,90.19928%);fill-opacity:1;" d="M 48.820312 37.085938 C 48.558594 37.484375 48.71875 39.160156 50.023438 39.160156 C 51.332031 39.160156 51.679688 37.953125 51.652344 37.660156 C 51.625 37.363281 51.070312 36.765625 50.679688 37.015625 C 49.6875 37.65625 49.082031 36.683594 48.820312 37.085938 "/><path style=" stroke:none;fill-rule:nonzero;fill:rgb(95.689392%,95.689392%,95.689392%);fill-opacity:1;" d="M 38.996094 77.960938 L 50.722656 82.992188 L 51.109375 64.484375 C 51.109375 64.484375 51.210938 63.71875 49.324219 62.210938 C 47.441406 60.703125 39.691406 59.574219 39.691406 59.574219 L 38.199219 60.1875 L 38.996094 77.960938 "/><path style=" stroke:none;fill-rule:nonzero;fill:rgb(95.689392%,95.689392%,95.689392%);fill-opacity:1;" d="M 63.226562 77.960938 L 51.5 82.992188 L 51.113281 64.484375 C 51.113281 64.484375 51.011719 63.71875 52.898438 62.210938 C 54.78125 60.703125 62.53125 59.574219 62.53125 59.574219 L 64.023438 60.1875 L 63.226562 77.960938 "/><path style=" stroke:none;fill-rule:nonzero;fill:rgb(81.959534%,81.568909%,81.568909%);fill-opacity:1;" d="M 53.132812 65.109375 C 53.132812 65.453125 52.226562 65.734375 51.109375 65.734375 C 49.996094 65.734375 49.089844 65.453125 49.089844 65.109375 C 49.089844 64.761719 49.996094 64.484375 51.109375 64.484375 C 52.226562 64.484375 53.132812 64.761719 53.132812 65.109375 "/><path style=" stroke:none;fill-rule:nonzero;fill:rgb(42.749023%,8.628845%,9.408569%);fill-opacity:1;" d="M 64.746094 79.472656 L 53.019531 84.507812 L 53.027344 64.925781 L 64.238281 60.09375 L 64.746094 60.347656 L 64.746094 79.472656 "/><path style=" stroke:none;fill-rule:nonzero;fill:rgb(42.749023%,8.628845%,9.408569%);fill-opacity:1;" d="M 37.476562 79.472656 L 49.203125 84.507812 L 49.195312 64.925781 L 37.980469 60.09375 L 37.476562 60.347656 L 37.476562 79.472656 "/><path style=" stroke:none;fill-rule:nonzero;fill:rgb(42.749023%,8.628845%,9.408569%);fill-opacity:1;" d="M 53.027344 64.925781 C 52.757812 65.234375 52.003906 65.460938 51.109375 65.460938 C 50.21875 65.460938 49.460938 65.234375 49.195312 64.925781 C 49.128906 65.003906 49.089844 65.085938 49.089844 65.171875 C 49.089844 65.605469 49.996094 65.953125 51.109375 65.953125 C 52.226562 65.953125 53.132812 65.605469 53.132812 65.171875 C 53.132812 65.085938 53.09375 65.003906 53.027344 64.925781 "/><path style=" stroke:none;fill-rule:nonzero;fill:rgb(61.569214%,13.328552%,14.898682%);fill-opacity:1;" d="M 64.746094 79.949219 L 53.019531 84.980469 L 53.019531 65.382812 L 64.746094 60.347656 L 64.746094 79.949219 "/><path style=" stroke:none;fill-rule:nonzero;fill:rgb(61.569214%,13.328552%,14.898682%);fill-opacity:1;" d="M 37.476562 79.949219 L 49.203125 84.980469 L 49.203125 65.382812 L 37.476562 60.347656 L 37.476562 79.949219 "/><path style=" stroke:none;fill-rule:nonzero;fill:rgb(75.689697%,19.999695%,19.219971%);fill-opacity:1;" d="M 53.019531 84.980469 C 53.019531 84.980469 52.484375 85.59375 50.949219 85.59375 C 49.414062 85.59375 49.203125 84.980469 49.203125 84.980469 L 49.203125 65.390625 C 49.203125 65.390625 49.703125 65.886719 51.109375 65.886719 C 52.519531 65.886719 53.019531 65.390625 53.019531 65.390625 L 53.019531 84.980469 "/><path style=" stroke:none;fill-rule:nonzero;fill:rgb(4.708862%,29.798889%,46.269226%);fill-opacity:1;" d="M 61.066406 83.355469 C 61.066406 85.066406 59.808594 87.855469 58.707031 87.855469 C 57.609375 87.855469 56.25 84.292969 56.003906 82.597656 C 55.539062 79.34375 55.707031 76.292969 55.707031 76.292969 C 55.707031 76.292969 61.066406 81.644531 61.066406 83.355469 "/><path style=" stroke:none;fill-rule:nonzero;fill:rgb(97.24884%,60.389709%,59.21936%);fill-opacity:1;" d="M 73.867188 80.828125 C 70.074219 78.460938 59.664062 77.835938 55.324219 73.785156 C 55.121094 72.960938 53.441406 71.875 53.441406 71.875 C 53.441406 71.875 50.484375 73.511719 51.113281 74.203125 C 52.5625 75.796875 54.152344 75.996094 54.152344 75.996094 C 54.152344 75.996094 65.316406 85.867188 70.890625 86.925781 C 75.078125 87.714844 76.410156 81.847656 73.867188 80.828125 "/><path style=" stroke:none;fill-rule:nonzero;fill:rgb(97.24884%,60.389709%,59.21936%);fill-opacity:1;" d="M 50.933594 69.539062 C 50.664062 69.332031 50.28125 69.65625 50.554688 70.003906 C 50.859375 70.390625 51.347656 70.839844 51.78125 71.34375 C 52.183594 71.8125 52.808594 72.585938 52.808594 72.585938 L 53.792969 72.191406 C 53.792969 72.191406 52.628906 71.09375 52.253906 70.695312 C 51.875 70.296875 51.292969 69.820312 50.933594 69.539062 "/><path style=" stroke:none;fill-rule:nonzero;fill:rgb(97.24884%,60.389709%,59.21936%);fill-opacity:1;" d="M 49.882812 69.867188 C 49.582031 69.679688 49.246094 70.054688 49.574219 70.386719 C 49.933594 70.75 50.492188 71.167969 51.003906 71.644531 C 51.476562 72.085938 52.21875 72.816406 52.21875 72.816406 L 53.152344 72.304688 C 53.152344 72.304688 51.820312 71.296875 51.378906 70.921875 C 50.941406 70.550781 50.28125 70.117188 49.882812 69.867188 "/><path style=" stroke:none;fill-rule:nonzero;fill:rgb(97.24884%,60.389709%,59.21936%);fill-opacity:1;" d="M 49.066406 70.40625 C 48.761719 70.234375 48.445312 70.628906 48.789062 70.941406 C 49.171875 71.285156 49.75 71.667969 50.285156 72.117188 C 50.78125 72.53125 51.800781 73.46875 51.800781 73.46875 L 52.46875 72.660156 C 52.46875 72.660156 51.082031 71.726562 50.621094 71.375 C 50.164062 71.027344 49.484375 70.632812 49.066406 70.40625 "/><path style=" stroke:none;fill-rule:nonzero;fill:rgb(97.24884%,60.389709%,59.21936%);fill-opacity:1;" d="M 48.910156 71.230469 C 48.617188 71.035156 48.269531 71.402344 48.589844 71.742188 C 48.9375 72.117188 49.480469 72.550781 49.972656 73.042969 C 50.433594 73.5 51.289062 74.386719 51.289062 74.386719 L 52.101562 73.773438 C 52.101562 73.773438 50.800781 72.722656 50.375 72.335938 C 49.945312 71.949219 49.304688 71.496094 48.910156 71.230469 "/><path style=" stroke:none;fill-rule:nonzero;fill:rgb(97.24884%,60.389709%,59.21936%);fill-opacity:1;" d="M 53.042969 70.566406 C 52.921875 70.042969 53.269531 69.484375 53.507812 69.972656 C 53.734375 70.429688 54.351562 71.082031 54.699219 71.824219 C 54.96875 72.410156 55.324219 73.785156 55.324219 73.785156 L 53.472656 72.113281 L 53.535156 71.632812 C 53.535156 71.632812 53.164062 71.089844 53.042969 70.566406 "/><path style=" stroke:none;fill-rule:nonzero;fill:rgb(97.24884%,60.389709%,59.21936%);fill-opacity:1;" d="M 65.980469 69.230469 C 65.980469 69.230469 68.535156 76.660156 68.367188 83.105469 C 68.550781 84.855469 73.355469 87.253906 74.828125 84.152344 C 75.664062 79.816406 76.046875 71.183594 72.808594 62.21875 C 70.679688 56.34375 65.980469 69.230469 65.980469 69.230469 "/><g clip-rule="nonzero"><path style=" stroke:none;fill-rule:nonzero;fill:rgb(3.919983%,56.469727%,77.249146%);fill-opacity:1;" d="M 56.664062 74.820312 C 58.996094 76.894531 58.011719 86.949219 58.707031 87.855469 C 59.097656 88.363281 67.761719 89.011719 72.808594 88.253906 C 76.804688 87.65625 77.960938 83.082031 78 82.667969 C 78.660156 75.582031 74.625 50.9375 67.230469 50.804688 C 65.710938 51.335938 64.875 62.824219 65.710938 68.21875 C 65.757812 69.652344 68.027344 77.957031 68.027344 77.957031 C 68.027344 77.957031 55.75 74.003906 56.664062 74.820312 "/></g><path style=" stroke:none;fill-rule:nonzero;fill:rgb(1.959229%,58.428955%,80.778503%);fill-opacity:1;" d="M 44.496094 90.023438 L 44.542969 88.945312 L 43.675781 88.296875 L 44.722656 88.007812 L 45.078125 86.992188 L 45.675781 87.890625 L 46.757812 87.910156 L 46.082031 88.753906 L 46.398438 89.785156 L 45.382812 89.40625 L 44.496094 90.023438 "/><g clip-rule="nonzero"><path style=" stroke:none;fill-rule:nonzero;fill:rgb(1.959229%,55.688477%,76.858521%);fill-opacity:1;" d="M 71.726562 93.738281 L 69.464844 93.738281 L 69.625 93.691406 L 69.996094 92.558594 L 70.675781 93.542969 L 71.878906 93.542969 L 71.726562 93.738281 "/></g></g></svg>