<?xml version="1.0" encoding="utf-8"?>
<!-- Generator: Adobe Illustrator 23.0.2, SVG Export Plug-In . SVG Version: 6.00 Build 0)  -->
<svg version="1.1" id="Layer_1" xmlns="http://www.w3.org/2000/svg" xmlns:xlink="http://www.w3.org/1999/xlink" x="0px" y="0px"
	 viewBox="0 0 165.1059 266.28" enable-background="new 0 0 165.1059 266.28" xml:space="preserve" fill="#ffffff">
<g>
	<path d="M77.8066,17.3205l-0.6577-3.5307c5.8657-1.0567,8.9341,3.2792,11.3823,10.1044c0.0943,0.1094,0.1914,0.2129,0.2837,0.3243
		c4.5571,5.5068,6.4448,13.2334,7.0762,20.4951c2.8305,4.914,6.7348,8.1626,12.9765,8.7344
		c-13.2968-11.668-5.6679-30.834-10.707-42.834C92.0966-4.4808,75.0552-2.7688,68.1157,11.28h-1.9346l-1.125,6.0405
		c1.9795-0.4888,4.106-0.7358,6.376-0.7358C73.7017,16.5847,75.8272,16.8317,77.8066,17.3205z"/>
	<path d="M93.9516,209.1501c-0.6972,0.1035-1.414,0.1572-2.1259,0.1572c-4.4971,0-8.6045-2.122-11.2881-5.459l7.6196,51.7505
		c0.9145,6.2124,6.2519,10.6807,12.3491,10.6812c0.6069,0,1.2207-0.0444,1.8389-0.1353c6.8291-1.0053,11.5508-7.3569,10.5439-14.188
		l-6.4848-44.04c-1.2222-1.2236-2.3819-2.4961-3.4532-3.8315C100.747,206.7273,97.6152,208.6106,93.9516,209.1501z"/>
	<path d="M79.4742,196.6237c0,0,0,0.0015,0,0.002c0.9131,6.2119,6.2549,10.6797,12.3525,10.6807c0.6055,0,1.2178-0.044,1.835-0.1348
		c3.3281-0.4907,6.1484-2.2564,8.0561-4.7227c-4.392-5.9721-7.4184-12.8652-9.2524-20.1264
		c-1.5649-6.1958-2.2637-12.649-2.2441-19.0064c0.0278-9.1592,1.5649-18.1059,4.2324-25.7905
		c0.251-0.7227,0.5088-1.437,0.7793-2.1362c0.8852-2.2881,1.8667-4.4541,2.9472-6.4512c1.0953,0.2593,2.19,0.4814,3.2803,0.6733
		l0.8486-7.3916c-1.475,0.6616-2.9716,1.3325-4.5039,2.0191c-4.5551,2.0415-9.3623,4.1967-14.2631,6.4092
		c-3.0435,1.374-6.1202,2.7685-9.2046,4.1767c-1.395,0.6372-2.7901,1.2759-4.1831,1.9165c-0.6138,0.2822-1.2242,0.565-1.8365,0.8477
		c-8.0669,3.7212-15.9799,7.4604-23.1259,11.0078c-0.5093,0.2529-1.0205,0.5063-1.5215,0.7568l0.6177,5.3819l-5.6294,38.2334
		l-0.002,0.0151c-1.0059,6.8291,3.7148,13.1807,10.5449,14.1875c0.6172,0.0908,1.2285,0.1348,1.835,0.1348
		c6.084-0.001,11.4106-4.4478,12.3437-10.6363c0.0025-0.0151,0.0069-0.0293,0.0088-0.0444l4.9058-33.3096h2.0215h2.2304h2.022
		L79.4742,196.6237z"/>
	<path d="M51.0377,209.3073c-0.7129,0-1.4278-0.0537-2.127-0.1572c-5.269-0.7764-9.4512-4.3193-11.3198-8.9326l-7.6187,51.7412
		c-1.0048,6.8291,3.7168,13.1807,10.5459,14.186c0.6177,0.0909,1.232,0.1353,1.8384,0.1353c6.0967,0,11.4356-4.4683,12.3496-10.6812
		l7.6172-51.7465C59.6392,207.1872,55.5332,209.3073,51.0377,209.3073z"/>
	<path d="M78.688,71.9665l-0.1456-1.7715c-0.3779-4.6826-0.2304-10.9863,0.3653-15.6885c0.5185-4.0781,3.999-6.0058,6.54-7.414
		c0.9551-0.5313,2.7334-1.5156,2.7334-1.9785v-0.0996l0.0098-0.0977c0.0791-0.7881-0.0078-1.3857-0.2373-1.6387
		c-0.209-0.2304-0.7354-0.3652-1.4414-0.3652c-1.8213,0-4.7324,0.877-7.9873,2.4043c-1.6475,0.7734-3.2256,8.1582-3.3067,15.4922
		l-0.0244,1.9785h-1.9765H69.646h-1.9776l-0.0234-1.9766c-0.084-7.3379-1.6602-14.7226-3.3067-15.4941
		c-3.2558-1.5273-6.166-2.4043-7.9843-2.4043c-0.709,0-1.2334,0.1348-1.4444,0.3652c-0.2295,0.253-0.3154,0.8506-0.2373,1.6387
		l0.0098,0.0977v0.0996c0,0.4629,1.7783,1.4472,2.7324,1.9785c2.542,1.4082,6.0225,3.3359,6.541,7.414
		c0.5957,4.6983,0.7442,11.002,0.3672,15.6856l-0.1426,1.7744l-1.7793,0.0654c0,0-0.1391,0.0049-0.3808,0.0069
		c1.3579,0.6235,2.7988,1.1206,4.3105,1.4726c5.0581,1.1778,10.1123,0.543,14.4912-1.4726c-0.228-0.002-0.3574-0.0069-0.3574-0.0069
		L78.688,71.9665z"/>
	<path d="M58.2148,69.8117c2.273,0.2857,4.1138,0.2222,4.1138,0.2222c0.3574-4.4219,0.2344-10.6172-0.3574-15.2744
		c-0.7149-5.627-9.2891-6.0283-9.2891-9.6455c-0.7148-7.2354,8.9375-3.2813,12.5039-1.6084
		c4.2891,2.0097,4.459,17.2822,4.459,17.2822h3.5723c0,0,0.1718-15.2725,4.4589-17.2822c3.5684-1.6729,13.2207-5.627,12.5059,1.6084
		c0,3.6172-8.5752,4.0185-9.2891,9.6455c-0.5927,4.6572-0.7148,10.8525-0.3574,15.2744c0,0,1.8281,0.063,4.0903-0.2192
		c3.396-0.4244,7.771-1.629,8.4146-5.0064c0.562-2.9536,2.3535-15.5371-0.1475-26.8301c-0.4858-2.1943-1.1328-4.3403-1.9839-6.3574
		c-2.3686-5.6128-6.311-10.2236-12.6948-12.1123c-2.0107-0.5947-4.2593-0.9238-6.7822-0.9238c-2.5234,0-4.7725,0.3296-6.7837,0.9243
		c-20.4824,6.06-15.8003,40.1743-14.8257,45.2993C50.4649,68.1779,54.8218,69.385,58.2148,69.8117z"/>
	<path d="M112.0377,117.8381c0.3725,1.0259,0.7382,2.0957,1.0942,3.2222c0.5439,1.7216,1.0684,3.5556,1.5645,5.5273
		c0.0024,0.0107,0.0063,0.0205,0.0092,0.0313c0.3145,1.2587,0.6153,2.5751,0.9038,3.9394c0.4722-0.0146,0.9395-0.0327,1.4014-0.0547
		c4.793-0.2304,8.9971-0.853,12.1162-1.4555c0.898-0.1734,1.6992-0.3443,2.4063-0.504c-0.4087-2.0258-0.8472-3.9707-1.314-5.8374
		c-0.0024-0.0107-0.0068-0.0205-0.0093-0.0307c-0.5205-2.0903-1.084-4.0703-1.6748-5.9737
		c-0.6372-2.0517-1.3139-3.9936-2.0239-5.8374c-5.1177,2.7886-9.8696,4.9878-14.2647,6.879
		C112.1792,117.7746,112.1054,117.8073,112.0377,117.8381z"/>
	<path d="M123.13,93.6291c-0.1563-0.4175-0.3252-0.8491-0.5162-1.3061c-8.7671-20.9688-28.6757-14.7164-33.4526-12.8555
		c-0.6719,0.2617-1.0474,0.4375-1.0474,0.4375s0.066,0.0557,0.1802,0.1514c1.2642,1.0566,9.2232,7.6616,17.3389,13.2231
		c2.4673,1.6909,4.9472,3.2827,7.2583,4.5942c1.7466-0.8003,3.5732-1.5966,5.4863-2.3838
		C119.9048,94.8615,121.4839,94.2399,123.13,93.6291z"/>
	<path d="M6.2423,162.3679c-0.2222-0.8872-0.3326-1.8164-0.2984-2.7754c0.0684-1.9302,0.1611-3.8247,0.27-5.6943l-0.0278-0.0792
		c0,0-7.8105,3.0958-5.8789,7.1758C1.3629,163.2263,4.0347,163.0144,6.2423,162.3679z"/>
	<path d="M31.2564,158.2722l4.3301-2.0489l-1.8857-3.9853c2.9873-1.5938,6.2368-3.2593,9.6655-4.9697
		c0.02-0.0103,0.0405-0.0205,0.061-0.0303c0.6992-0.3491,1.4058-0.6992,2.1196-1.0518c6.6656-3.289,13.9444-6.727,21.3706-10.1562
		c0.6402-0.2959,1.2823-0.5913,1.9244-0.8867c11.6069-5.3404,23.4541-10.6211,33.7329-15.2349
		c3.0761-1.3804,6.0107-2.7007,8.7568-3.9453c0.0405-0.0186,0.0835-0.0376,0.124-0.0562c4.0191-1.729,8.8321-3.9091,14.3101-6.9135
		c8.5244-4.6748,18.6733-11.3623,30.0552-21.5874c-12.1709,1.8652-22.062,4.5664-30.166,7.4399
		c-0.6431,0.228-1.2657,0.4575-1.8858,0.687c-1.4648,0.5425-2.8838,1.0879-4.228,1.6348c-1.562,0.6347-3.0318,1.268-4.4395,1.8965
		c-0.7807,0.3476-1.5381,0.6928-2.2734,1.0356c-2.6621,1.2402-5.0537,2.44-7.1773,3.5396
		c-0.2773,0.1367-0.5644,0.2793-0.8457,0.4179c-0.1445,0.0713-0.289,0.1431-0.4345,0.2149
		c-17.5308,8.6689-42.0562,21.1509-62.3828,30.4306c-4.8706,2.2237-9.501,4.2637-13.7344,6.0225l-0.5474-1.1558
		c-0.5674,3.939-1.0122,8.1099-1.3301,12.5054c0.9205-0.5684,1.4996-0.9473,1.4996-0.9473L31.2564,158.2722z"/>
	<path d="M12.6431,122.7067c-2.0073,8.0308-3.497,17.5015-4.2734,28.7237c-0.0542,0.7876-0.104,1.5859-0.1514,2.3906
		c-0.1118,1.8999-0.2055,3.8447-0.2763,5.8438c-0.0245,0.6962,0.0498,1.371,0.1938,2.0209c0.148,0.6646,0.3716,1.3003,0.6743,1.8931
		c1.2774,2.5029,3.835,4.2583,6.8428,4.3652c0.0977,0.003,0.1934,0.004,0.2891,0.004c4.2871,0,7.8359-3.3985,7.9902-7.7178
		c0.0542-1.5405,0.124-3.0391,0.2041-4.5088c0.0439-0.8066,0.0918-1.6025,0.1431-2.3882c0.1645-2.5142,0.3657-4.9224,0.6015-7.2251
		c0.0366-0.3599,0.0747-0.7153,0.1133-1.0703c0.3125-2.8848,0.6782-5.604,1.0899-8.1641c0.1313-0.8188,0.268-1.6191,0.4086-2.4057
		c0.5039-2.8169,1.0621-5.437,1.6665-7.8584c0.0015-0.0073,0.0044-0.0142,0.0064-0.022c0.4961-1.9727,1.021-3.8076,1.5654-5.5298
		c2.6221-8.2959,5.7315-13.7876,8.6841-17.4634l3.332,29.0142c15.5938-7.1382,33.6172-16.1226,48.8413-23.7153
		c4.585-2.2867,8.9195-4.4478,12.9117-6.4219c0.3784-0.1875,0.7705-0.3818,1.1421-0.5654c0.041-0.0201,0.0844-0.0415,0.125-0.0616
		c1.8769-0.9716,3.8569-1.9599,5.9355-2.9492c-1.7397-1.0224-3.5347-2.1655-5.3276-3.3686
		c-8.5635-5.7456-17.0225-12.8052-18.5503-14.0933l-0.4556-0.3838l-1.8765-1.582H58.3715l-1.8779,1.583l-0.4541,0.3828
		c-1.5278,1.2881-9.9873,8.3477-18.5513,14.0933c-6.2802,4.2138-12.6162,7.7221-16.3159,7.7221c-0.0019,0-0.0019,0-0.0019,0
		c-0.5034,0-0.9458-0.059-1.3413-0.1557c-2.0303,3.9087-3.8911,8.4179-5.5039,13.6113c-0.5933,1.9106-1.1587,3.898-1.6802,5.9966
		C12.6446,122.7028,12.6436,122.7048,12.6431,122.7067z"/>
	<path d="M37.2305,93.28c8.1148-5.5606,16.0728-12.1646,17.3389-13.2232c0.1147-0.0961,0.1812-0.1518,0.1812-0.1518
		s-0.3755-0.1758-1.0474-0.4375c-4.7769-1.8609-24.6856-8.1133-33.4536,12.8555c-2.6016,6.2216-1.9263,8.705,0.5854,8.9043
		C24.1695,101.4914,30.7447,97.7243,37.2305,93.28z"/>
	<path d="M126.5122,131.5398c-1.8965,0.2978-4.0362,0.5693-6.3565,0.7631c-1.3247,0.1109-2.7119,0.1929-4.1435,0.2427
		c-0.6699,0.023-1.3501,0.0381-2.0401,0.0449c-0.2519,0.0025-0.5,0.0088-0.7548,0.0088c-4.1749,0-8.1812-0.3554-11.983-1.0185
		c-0.6655-0.1158-1.3378-0.2217-1.9897-0.3575c-0.9507,1.8941-1.8027,3.9165-2.5698,6.023c-0.3003,0.8237-0.586,1.6602-0.857,2.5102
		c-2.2963,7.2056-3.5429,15.3165-3.5888,23.4146c-0.0191,3.3447,0.1562,6.6865,0.5586,9.9585
		c0.4048,3.2974,1.019,6.4673,1.8271,9.4971c1.8081,6.7763,4.6045,12.8354,8.273,17.9975c0.4233,0.5962,0.8647,1.1734,1.311,1.7447
		c0.5459,0.6982,1.1089,1.3774,1.689,2.0385c2.645,3.0161,5.6284,5.6533,8.9467,7.8316c14.377-1.67,27.584-10.5469,37.25-25.0635
		c8.1065-12.1768,13.0254-27.4873,13.0215-40.3516c-15.5908-4.1318-27.541-14.0263-30.7754-16.9013
		c-0.1425,0.0381-0.3081,0.0805-0.476,0.1235c-0.5279,0.1357-1.1788,0.2939-1.94,0.4653
		C130.476,130.8361,128.6528,131.2033,126.5122,131.5398z M133.2944,134.2995c0.437,0.3633,0.9419,0.7705,1.48,1.1968
		c5.0762,4.0229,14.522,10.5664,26.2456,14.2993c-1.3682,22.9121-18.207,54.1318-45.1992,58.2754
		c-3.9317-2.792-7.1895-6.2065-9.8589-10.0366c-0.4522-0.6489-0.8867-1.3096-1.3047-1.982
		c-0.1108-0.1782-0.2275-0.3535-0.3364-0.5336c-1.9859-3.293-3.5684-6.8477-4.794-10.5572
		c-2.5215-7.6328-3.5156-15.9209-3.2588-23.9692c0.1358-4.2485,0.6182-8.4263,1.4019-12.4048
		c0.354-1.7993,0.7744-3.5522,1.2485-5.2568c0.4512-1.6231,0.9546-3.1958,1.5073-4.711c0.3619-0.9922,0.7374-1.9677,1.1402-2.9062
		c4.561,0.7217,9.0073,0.938,13.1279,0.8662c0.6856-0.0122,1.3618-0.0308,2.0278-0.0586
		c6.6832-0.2749,12.3208-1.2725,15.8746-2.0649C132.8326,134.4035,133.0771,134.3498,133.2944,134.2995z"/>
	<path d="M105.5092,142.2487c-2.2871,6.9556-3.5327,15.375-3.2338,23.8824c0.1699,4.8339,0.8422,9.6928,2.1098,14.332
		c1.9746,7.2275,5.3994,13.9062,10.6289,19.0947l7.2774-30.7353l0.4839-2.0445l6.0332-25.4799
		c-3.2085,0.5317-7.0235,0.996-11.2344,1.1958c-0.6592,0.0312-1.3277,0.0561-2.0054,0.0737
		C112.3809,142.6496,109.0019,142.5725,105.5092,142.2487z"/>
	<path d="M133.8418,143.9133l-5.667,23.9321l-0.4883,2.0625l-7.3198,30.9136c19.4013-6.354,31.5561-29.187,34.1972-46.9536
		c-7.5019-2.9317-13.9077-6.752-18.7382-10.1177c-0.5787-0.4028-1.1319-0.7983-1.6646-1.186L133.8418,143.9133z"/>
</g>
</svg>
