<?xml version="1.0" encoding="UTF-8"?>
<svg xmlns="http://www.w3.org/2000/svg" xmlns:xlink="http://www.w3.org/1999/xlink" width="93.75pt" height="93.749996pt" viewBox="0 0 93.75 93.749996" version="1.2">
<defs>
<clipPath id="clip1">
  <path d="M 80 22 L 93.5 22 L 93.5 39 L 80 39 Z M 80 22 "/>
</clipPath>
</defs>
<g id="surface1">
<path style=" stroke:none;fill-rule:evenodd;fill:rgb(9.408569%,6.669617%,10.5896%);fill-opacity:1;" d="M 86.148438 55.714844 C 85.792969 57.035156 84.484375 58.746094 82.390625 60.953125 C 82.90625 62.171875 82.910156 63.84375 84.714844 65.660156 C 85.628906 66.574219 85.550781 67.902344 88.238281 68.480469 C 89.324219 68.714844 89.488281 69.183594 89.484375 69.667969 C 89.839844 70.058594 90.125 70.214844 90.195312 70.835938 C 89.609375 70.375 88.503906 70.566406 87.308594 70.332031 C 87.753906 70.644531 87.894531 71.035156 87.894531 71.597656 C 87.648438 71.316406 86.492188 70.785156 85.496094 70.785156 C 83.664062 70.785156 82.195312 70.246094 82.390625 68.21875 C 82.066406 68.445312 81.953125 68.625 81.804688 69.203125 C 81.410156 68.9375 81.425781 67.78125 81.679688 67.097656 C 81.933594 66.414062 81.925781 65.945312 80.964844 64.789062 C 80.066406 63.703125 77.015625 61.476562 77.890625 60.46875 C 79.058594 59.121094 79.21875 56.554688 80.890625 54.675781 C 82.296875 53.089844 87.09375 52.242188 86.148438 55.714844 "/>
<path style=" stroke:none;fill-rule:evenodd;fill:rgb(9.408569%,6.669617%,10.5896%);fill-opacity:1;" d="M 85.769531 79.199219 C 85.601562 78.875 85.621094 78.6875 85.664062 78.484375 C 85.410156 78.390625 85.082031 78.378906 84.804688 78.496094 C 84.632812 78.1875 84.628906 77.960938 84.648438 77.664062 C 84.292969 77.617188 83.929688 77.707031 83.59375 77.835938 C 83.3125 77.382812 83.34375 77.042969 83.351562 76.730469 C 82.910156 76.703125 82.382812 76.835938 81.964844 77.109375 C 81.664062 76.695312 81.691406 76.28125 81.730469 75.867188 C 81.089844 75.867188 80.421875 76.027344 80.046875 76.347656 C 79.597656 75.886719 79.601562 75.480469 79.605469 75.003906 C 79.03125 74.96875 78.25 75.113281 77.628906 75.632812 C 77.0625 75.136719 76.933594 74.609375 76.832031 74.199219 C 76.21875 74.292969 75.441406 74.546875 74.902344 75.136719 C 74.351562 74.714844 74.199219 74.121094 74.003906 73.703125 C 73.339844 73.859375 72.617188 74.234375 72.101562 74.84375 C 71.515625 74.472656 71.34375 73.914062 71.125 73.453125 C 70.429688 73.667969 69.613281 74.234375 69.136719 74.929688 C 68.523438 74.472656 68.320312 74.160156 68 73.585938 C 67.136719 74.003906 66.496094 74.746094 66.246094 75.339844 C 65.480469 74.980469 65.179688 74.535156 64.882812 74.125 C 64.246094 74.476562 63.597656 75.160156 63.386719 75.925781 C 62.433594 75.628906 62.011719 75.167969 61.484375 74.625 C 60.800781 74.980469 60.03125 75.730469 59.851562 76.539062 C 59.191406 76.09375 58.929688 75.726562 58.59375 75.238281 C 57.945312 75.429688 57.019531 76.144531 56.8125 76.742188 C 56.226562 76.378906 56.054688 76.128906 55.71875 75.632812 C 55.101562 75.832031 54.304688 76.3125 54.039062 76.949219 C 53.59375 76.59375 53.542969 76.179688 53.433594 75.75 C 52.585938 75.867188 51.601562 76.304688 51.296875 76.976562 C 51.296875 76.976562 54.511719 78.730469 57.992188 78.207031 C 67.671875 76.742188 76.480469 74.734375 85.769531 79.199219 "/>
<path style=" stroke:none;fill-rule:evenodd;fill:rgb(9.408569%,6.669617%,10.5896%);fill-opacity:1;" d="M 59.171875 49.84375 C 57.714844 48.714844 55.789062 48.578125 54.601562 48.792969 C 55.121094 49.765625 55.230469 50.710938 55.191406 51.628906 C 54.070312 51.074219 52.625 50.957031 51.210938 51.363281 C 51.820312 52.222656 51.925781 53.167969 51.800781 54.171875 C 50.609375 53.761719 49.273438 53.734375 48.171875 54.289062 C 48.703125 55.019531 48.867188 55.808594 48.746094 56.773438 C 47.742188 56.347656 46.703125 56.589844 45.722656 57.125 C 46.25 57.46875 46.65625 58.144531 46.683594 59.039062 C 45.808594 58.886719 44.890625 59.125 44.191406 59.550781 C 44.804688 60.164062 44.867188 60.589844 44.9375 61.378906 C 44.089844 61.1875 42.984375 61.613281 42.570312 61.933594 C 43.039062 62.410156 43.324219 62.800781 43.566406 63.746094 C 42.757812 63.796875 42.136719 64.019531 41.464844 64.625 C 42.019531 65.089844 42.335938 65.386719 42.597656 66.394531 C 41.886719 66.496094 41.054688 66.976562 40.769531 67.621094 C 41.351562 67.679688 41.769531 68.003906 42.128906 68.761719 C 41.386719 68.976562 40.703125 69.660156 40.492188 70.339844 C 41.160156 70.296875 41.738281 70.269531 42.230469 70.894531 C 41.566406 71.285156 41.15625 71.808594 41.007812 72.59375 C 41.566406 72.511719 42.199219 72.574219 42.671875 73.03125 C 42.417969 73.523438 42.25 74.234375 42.363281 74.753906 C 42.804688 74.609375 43.011719 74.535156 43.589844 74.785156 C 43.484375 75.125 43.4375 75.667969 43.574219 76.0625 C 43.960938 75.878906 44.582031 75.914062 45.046875 75.984375 C 45.03125 76.390625 45.003906 76.933594 45.160156 77.277344 C 45.550781 77.015625 46.441406 76.839844 46.660156 76.875 C 46.875 76.910156 42.480469 68.910156 46.078125 63.644531 C 49.675781 58.382812 59.050781 51.773438 59.050781 51.773438 C 59.089844 51.128906 59.132812 50.488281 59.171875 49.84375 "/>
<path style=" stroke:none;fill-rule:evenodd;fill:rgb(20.779419%,17.248535%,27.839661%);fill-opacity:1;" d="M 3.195312 22.183594 C 3.195312 22.183594 18.820312 24.902344 14.425781 34.964844 C 20.976562 35.167969 33.8125 38.835938 31.320312 45.28125 C 35.496094 44.6875 49.132812 43.21875 49.242188 49.140625 C 54.824219 44.863281 60.085938 44.503906 65.429688 48.414062 C 65.429688 48.414062 63.46875 45.722656 62.472656 39.964844 C 61.472656 34.207031 64.019531 28.699219 64.019531 28.699219 C 64.019531 28.699219 51.34375 24.585938 35.789062 23.132812 C 20.234375 21.675781 3.195312 22.183594 3.195312 22.183594 "/>
<path style=" stroke:none;fill-rule:evenodd;fill:rgb(9.408569%,6.669617%,10.5896%);fill-opacity:1;" d="M 73.695312 52.558594 C 72.527344 51.925781 69.6875 51.238281 66.574219 47.195312 C 64.886719 45 63.109375 41.960938 63.015625 37.6875 C 62.902344 32.65625 64.238281 30.457031 65.835938 29.605469 C 68.101562 28.402344 70.152344 30.09375 70.625 31.011719 C 70.417969 29.503906 69.621094 28.132812 65.703125 27.246094 C 61.785156 26.359375 33.476562 19.398438 0.00390625 22.308594 C 0.00390625 22.308594 35.550781 21.792969 61.066406 28.511719 C 62.949219 29.007812 62.746094 29.96875 57.027344 29.96875 C 51.3125 29.96875 32.140625 29.96875 12.429688 35.34375 C 32.800781 32.75 37.945312 31.550781 57.875 31.550781 C 63.761719 31.550781 60.878906 32.625 59.238281 33.320312 C 57.59375 34.015625 39.167969 39.773438 29.933594 45.976562 C 29.933594 45.976562 49.828125 37.488281 58.636719 35.378906 C 61.542969 34.679688 61.570312 35.914062 59.15625 37.878906 C 56.746094 39.839844 51.128906 44.648438 48.5 50.152344 C 52.140625 46.167969 56.300781 41.203125 59.851562 39.710938 C 61.65625 38.953125 61.328125 42.054688 62.492188 44.835938 C 63.660156 47.621094 68.492188 51.292969 67.265625 51.925781 C 64.515625 53.347656 77.738281 54.75 73.695312 52.558594 "/>
<path style=" stroke:none;fill-rule:evenodd;fill:rgb(9.408569%,6.669617%,10.5896%);fill-opacity:1;" d="M 81.292969 23.886719 C 80.671875 23.492188 79.777344 23.335938 78.777344 23.347656 C 78.890625 23.582031 78.878906 23.753906 78.789062 24.023438 C 78.121094 23.816406 77.632812 23.851562 76.636719 23.972656 C 76.761719 24.246094 76.792969 24.46875 76.65625 24.847656 C 76.164062 24.730469 75.511719 24.722656 74.492188 25.015625 C 74.710938 25.246094 74.847656 25.582031 74.933594 26.035156 C 73.949219 26.035156 73.402344 26.117188 72.429688 26.554688 C 72.980469 26.746094 73.226562 27.199219 73.410156 27.777344 C 72.328125 27.832031 71.703125 28.074219 70.625 28.640625 C 71.476562 28.804688 71.757812 29.238281 72.15625 29.808594 C 70.929688 30.007812 70.285156 30.417969 69.488281 31.019531 C 70.152344 31.160156 70.765625 31.53125 71.222656 32.226562 C 70.351562 32.429688 69.496094 32.824219 68.816406 33.683594 C 69.765625 33.707031 70.222656 33.921875 70.855469 34.46875 C 69.925781 35.128906 69.375 35.71875 68.941406 36.8125 C 69.691406 36.722656 70.347656 36.828125 71.042969 37.199219 C 70.566406 37.894531 70.113281 38.734375 70.078125 39.9375 C 70.699219 39.570312 71.113281 39.484375 71.769531 39.578125 C 71.199219 40.582031 71.265625 41.164062 71.378906 41.855469 C 71.710938 41.570312 72.109375 41.382812 72.832031 41.460938 C 72.472656 42.136719 72.472656 43.039062 72.597656 43.480469 C 72.933594 43.117188 73.421875 43.023438 73.914062 43.023438 C 73.648438 43.746094 73.726562 44.175781 74.03125 44.898438 C 74.421875 44.621094 74.734375 44.472656 75.253906 44.550781 C 75.015625 45.175781 75.113281 45.566406 75.375 46.191406 C 75.554688 46.050781 76.003906 45.835938 76.371094 45.859375 C 76.273438 46.367188 76.34375 46.863281 76.59375 47.316406 C 76.878906 47.1875 77.042969 47.066406 77.421875 47.058594 C 77.324219 47.597656 77.273438 47.882812 77.433594 48.445312 C 77.816406 48.332031 78.039062 48.285156 78.371094 48.371094 C 78.101562 48.773438 78.007812 49.03125 77.949219 49.371094 C 78.25 49.289062 78.679688 49.34375 78.980469 49.609375 C 78.59375 49.671875 78.304688 49.789062 78.066406 49.984375 C 78.265625 50.128906 78.5 50.5 78.40625 50.777344 C 78.179688 50.40625 77.839844 50.191406 77.558594 50.109375 C 77.523438 50.3125 77.453125 50.417969 77.246094 50.511719 C 77.167969 50.179688 77.070312 49.933594 76.804688 49.570312 C 76.683594 49.789062 76.605469 49.898438 76.308594 49.953125 C 76.277344 49.585938 76.234375 49.429688 75.980469 49.089844 C 75.902344 49.34375 75.769531 49.421875 75.515625 49.5 C 75.507812 49.132812 75.441406 48.863281 75.097656 48.484375 C 75.09375 48.804688 75.003906 48.972656 74.765625 49.101562 C 74.6875 48.667969 74.53125 48.382812 74.097656 47.953125 C 74.050781 48.257812 73.9375 48.433594 73.667969 48.574219 C 73.65625 48.085938 73.472656 47.773438 73.023438 47.34375 C 73.035156 47.757812 72.84375 47.988281 72.558594 48.148438 C 72.46875 47.648438 72.308594 47.230469 71.667969 46.707031 C 71.71875 47.195312 71.628906 47.496094 71.300781 47.785156 C 71.183594 47.234375 70.789062 46.648438 70.039062 46.164062 C 70.097656 46.65625 70.09375 47.167969 69.664062 47.5 C 69.253906 46.851562 69.113281 46.242188 68.011719 45.691406 C 68.148438 46.402344 68.042969 46.820312 67.675781 47.335938 C 67.398438 46.496094 66.847656 45.957031 65.679688 45.285156 C 66.042969 46.050781 66.058594 46.707031 65.570312 47.417969 C 64.9375 46.457031 64.335938 45.609375 62.480469 45.160156 C 63.160156 46.175781 63.125 47.175781 62.902344 47.984375 C 61.410156 46.746094 59.691406 46.394531 57.851562 46.40625 C 58.800781 47.382812 59.070312 49.023438 58.933594 50.929688 C 60.203125 51.0625 59.996094 51.945312 63.726562 51.277344 C 74.117188 49.417969 84.496094 56.449219 82.058594 48.945312 C 79.621094 41.4375 73.019531 39.5625 73.652344 33.769531 C 74.28125 27.972656 76.835938 25.597656 81.292969 23.886719 "/>
<path style=" stroke:none;fill-rule:evenodd;fill:rgb(20.779419%,17.248535%,27.839661%);fill-opacity:1;" d="M 62.601562 48.230469 C 51.988281 51.507812 41.679688 61.667969 42.039062 70.007812 C 42.171875 73.023438 43.207031 75.734375 46.785156 77.78125 C 57.125 83.695312 68.976562 71.582031 86.796875 79.890625 C 83.316406 76.90625 75.351562 73.21875 63.722656 75.324219 C 52.097656 77.429688 46.433594 76.144531 46.195312 69.882812 C 45.960938 63.621094 56.523438 56.714844 61.777344 58.472656 C 67.027344 60.226562 64.375 51.683594 64.375 51.683594 L 62.601562 48.230469 "/>
<path style=" stroke:none;fill-rule:evenodd;fill:rgb(9.408569%,6.669617%,10.5896%);fill-opacity:1;" d="M 58.769531 53.613281 C 58.339844 53.757812 57.660156 53.632812 57.367188 53.988281 C 56.285156 55.304688 56.945312 57.207031 56.09375 57.628906 C 49.921875 60.707031 46.082031 64.597656 46.195312 69.882812 C 45.960938 63.621094 56.523438 56.714844 61.777344 58.472656 C 67.027344 60.226562 64.375 51.683594 64.375 51.683594 L 58.769531 53.613281 "/>
<path style=" stroke:none;fill-rule:evenodd;fill:rgb(9.408569%,6.669617%,10.5896%);fill-opacity:1;" d="M 73.976562 54.382812 C 73.976562 54.382812 70.136719 54.804688 69.472656 57.757812 C 68.808594 60.714844 67.832031 61.714844 63.710938 63.191406 C 63.878906 63.914062 64.890625 65.058594 66.246094 66.371094 C 66.808594 66.910156 66.328125 67.371094 66.96875 67.597656 C 67.519531 67.792969 68.75 67.621094 69.476562 67.65625 C 69.976562 67.683594 70.460938 67.917969 70.640625 68.34375 C 70.039062 68.246094 69.703125 68.371094 69.253906 68.617188 C 69.90625 68.796875 70.792969 68.910156 71.042969 70.015625 C 70.320312 69.636719 69.722656 69.671875 69.160156 69.703125 C 69.703125 70.007812 70.023438 70.308594 69.964844 71.097656 C 69.128906 70.339844 68.121094 70.425781 67.234375 70.453125 C 65.882812 70.488281 64.65625 70.292969 64.222656 70.058594 C 63.78125 69.816406 63.457031 69.410156 63.621094 68.773438 C 63.734375 68.335938 63.589844 67.746094 63.480469 67.445312 C 63.214844 67.824219 62.707031 67.792969 62.652344 68.382812 C 62.417969 67.914062 62.519531 67.613281 62.8125 67.050781 C 63.617188 65.496094 58.121094 63.199219 59.328125 62.585938 C 61.851562 61.308594 60.78125 58.484375 61.1875 56.789062 C 61.746094 54.476562 63.222656 51.539062 66.882812 50.761719 C 73.78125 49.296875 74.1875 53.042969 73.976562 54.382812 "/>
<path style=" stroke:none;fill-rule:evenodd;fill:rgb(20.779419%,17.248535%,27.839661%);fill-opacity:1;" d="M 85.421875 24.429688 C 84.246094 23.761719 77.855469 22.347656 74.070312 26.933594 C 69.414062 32.574219 69.78125 38.855469 75.082031 44.441406 C 80.378906 50.027344 79.199219 50.777344 78.023438 50.777344 C 76.847656 50.777344 72.128906 45.730469 63.644531 47.695312 C 54.804688 49.738281 57.496094 57.710938 57.476562 60.074219 C 60.097656 58.933594 63.140625 58.761719 66.417969 59.90625 C 74.21875 62.636719 79.621094 61.785156 83.824219 58.863281 C 84.9375 58.09375 85.886719 57.320312 86.523438 56.355469 C 88.914062 52.746094 87.777344 47.648438 84.582031 44.523438 C 81.449219 41.460938 74.917969 38.113281 76.496094 32.671875 C 77.085938 30.636719 78.742188 28.832031 80.964844 30.015625 L 83.234375 27.683594 L 85.421875 24.429688 "/>
<path style=" stroke:none;fill-rule:evenodd;fill:rgb(9.408569%,6.669617%,10.5896%);fill-opacity:1;" d="M 67.140625 57.429688 C 66.726562 57.164062 67.554688 55.890625 67.242188 55.976562 C 62.015625 55.390625 59.464844 56.929688 57.476562 60.074219 C 60.269531 59.457031 63.140625 58.761719 66.417969 59.90625 C 74.21875 62.636719 79.621094 61.785156 83.824219 58.863281 C 84.9375 58.09375 85.886719 57.320312 86.523438 56.355469 C 84.164062 58.367188 82.429688 58.761719 81.535156 58.65625 C 80.050781 58.476562 78.109375 57.105469 78.226562 55.976562 C 78.285156 55.402344 77.839844 55.730469 77.011719 56.675781 C 76.261719 57.535156 75.589844 58.488281 75.058594 58.609375 C 72.621094 59.171875 68.386719 58.226562 67.140625 57.429688 "/>
<path style=" stroke:none;fill-rule:evenodd;fill:rgb(9.408569%,6.669617%,10.5896%);fill-opacity:1;" d="M 85.421875 24.429688 C 84.773438 24.0625 82.535156 23.464844 80.027344 23.777344 C 80.582031 24.960938 80.96875 25.5 81.542969 26.121094 C 80.28125 26.976562 79.601562 28.042969 79.453125 29.644531 C 79.917969 29.617188 80.425781 29.730469 80.964844 30.015625 L 83.234375 27.683594 L 85.421875 24.429688 "/>
<path style=" stroke:none;fill-rule:evenodd;fill:rgb(20.779419%,17.248535%,27.839661%);fill-opacity:1;" d="M 85.347656 23.964844 C 83.683594 22.089844 80.714844 18.15625 81.359375 11.761719 C 80.003906 16.578125 80.726562 21.027344 83.515625 25.078125 C 84.265625 26.167969 85.347656 23.964844 85.347656 23.964844 "/>
<path style=" stroke:none;fill-rule:evenodd;fill:rgb(9.408569%,6.669617%,10.5896%);fill-opacity:1;" d="M 92.570312 35.625 C 92.144531 35.957031 91.445312 36.257812 90.632812 36.273438 C 91.40625 35.847656 91.761719 35.476562 91.980469 35 C 91.53125 35.417969 91.113281 35.601562 90.632812 35.667969 C 91.15625 35.339844 91.375 35.054688 91.539062 34.683594 C 91.203125 34.949219 90.90625 35.097656 90.527344 35.164062 C 90.871094 34.847656 91.066406 34.699219 91.210938 34.265625 C 90.867188 34.550781 90.578125 34.660156 90.210938 34.726562 C 90.570312 34.433594 90.75 34.234375 90.90625 33.847656 C 90.589844 34.125 90.308594 34.28125 89.960938 34.371094 C 90.304688 34.125 90.523438 33.902344 90.675781 33.640625 C 90.289062 33.902344 89.957031 34.042969 89.582031 34.058594 C 89.976562 33.816406 90.207031 33.566406 90.445312 33.222656 C 90.058594 33.449219 89.714844 33.609375 89.328125 33.640625 C 89.609375 33.367188 89.867188 33.167969 89.960938 32.835938 C 89.652344 33.046875 89.238281 33.164062 88.867188 33.179688 C 89.179688 32.941406 89.269531 32.769531 89.394531 32.40625 C 89.085938 32.671875 88.796875 32.777344 88.46875 32.824219 C 88.667969 32.679688 88.804688 32.464844 88.847656 32.238281 C 88.621094 32.433594 88.3125 32.511719 87.984375 32.511719 C 88.269531 32.230469 88.351562 32.023438 88.414062 31.726562 C 88.140625 31.917969 87.835938 31.996094 87.542969 31.964844 C 87.714844 31.757812 87.835938 31.589844 87.835938 31.382812 C 87.640625 31.515625 87.445312 31.625 87.1875 31.609375 C 87.320312 31.402344 87.335938 31.234375 87.394531 30.984375 C 87.246094 31.152344 87.136719 31.265625 86.785156 31.234375 C 87.039062 31.121094 87.121094 30.964844 87.164062 30.796875 C 86.933594 30.925781 86.710938 30.980469 86.472656 30.898438 C 86.710938 30.734375 86.800781 30.617188 86.871094 30.398438 C 86.605469 30.617188 86.390625 30.699219 86.070312 30.710938 C 86.34375 30.476562 86.472656 30.300781 86.640625 30 C 86.640625 30 89.351562 30.628906 90.296875 31.757812 C 91.242188 32.886719 92.609375 34.9375 92.570312 35.625 "/>
<path style=" stroke:none;fill-rule:evenodd;fill:rgb(9.408569%,6.669617%,10.5896%);fill-opacity:1;" d="M 87.511719 37.757812 C 88.15625 37.675781 88.738281 37.414062 89.140625 36.984375 C 88.464844 37.152344 88.144531 37.203125 87.660156 37.171875 C 88.101562 37.007812 88.269531 36.867188 88.46875 36.585938 C 87.980469 36.6875 87.765625 36.714844 87.34375 36.742188 C 87.691406 36.597656 87.835938 36.460938 88.046875 36.167969 C 87.675781 36.289062 87.347656 36.324219 86.964844 36.273438 C 87.355469 36.164062 87.554688 36.050781 87.816406 35.75 C 87.339844 35.878906 87.074219 35.914062 86.671875 35.84375 C 87.015625 35.730469 87.148438 35.65625 87.394531 35.332031 C 87.046875 35.390625 86.871094 35.382812 86.574219 35.34375 C 86.800781 35.238281 87.207031 35.007812 87.300781 34.769531 C 87.03125 34.855469 86.667969 34.859375 86.449219 34.789062 C 86.675781 34.71875 86.9375 34.566406 87.101562 34.328125 C 86.828125 34.429688 86.554688 34.449219 86.28125 34.414062 C 86.546875 34.285156 86.675781 34.164062 86.859375 33.941406 C 86.539062 34 86.300781 34.019531 85.988281 33.953125 C 86.25 33.832031 86.429688 33.800781 86.597656 33.546875 C 86.332031 33.632812 86.074219 33.605469 85.820312 33.578125 C 86.125 33.441406 86.304688 33.347656 86.449219 33.074219 C 86.117188 33.191406 85.761719 33.210938 85.421875 33.136719 C 85.722656 33.003906 85.976562 32.882812 86.175781 32.550781 C 85.855469 32.675781 85.574219 32.703125 85.210938 32.636719 C 85.480469 32.550781 85.726562 32.445312 85.925781 32.132812 C 85.664062 32.269531 85.457031 32.289062 85.144531 32.257812 C 85.453125 32.078125 85.671875 31.949219 85.839844 31.589844 C 85.582031 31.699219 85.320312 31.722656 85.0625 31.632812 C 85.285156 31.546875 85.480469 31.46875 85.640625 31.234375 C 85.351562 31.265625 85.160156 31.265625 84.9375 31.214844 C 84.9375 31.214844 84.601562 31.402344 84.601562 32.300781 C 84.601562 33.199219 85 34.496094 85.734375 35.730469 C 86.472656 36.964844 87.511719 37.757812 87.511719 37.757812 "/>
<path style=" stroke:none;fill-rule:evenodd;fill:rgb(9.408569%,6.669617%,10.5896%);fill-opacity:1;" d="M 87.042969 37.863281 C 86.816406 37.96875 85.71875 38.539062 83.839844 38.234375 C 83.839844 38.234375 85.332031 38.101562 85.738281 37.785156 C 85.738281 37.785156 85.015625 37.945312 84.101562 37.929688 C 84.101562 37.929688 84.992188 37.734375 85.367188 37.476562 C 85.238281 37.5 84.851562 37.546875 84.582031 37.429688 C 84.886719 37.359375 85.574219 37.222656 85.644531 36.558594 C 85.644531 36.558594 85.964844 36.390625 86.152344 36.9375 C 86.339844 37.488281 87.042969 37.863281 87.042969 37.863281 "/>
<g clip-path="url(#clip1)" clip-rule="nonzero">
<path style=" stroke:none;fill-rule:evenodd;fill:rgb(20.779419%,17.248535%,27.839661%);fill-opacity:1;" d="M 86.304688 30.277344 C 86.800781 30.839844 87.308594 31.71875 88.460938 32.09375 C 90.070312 32.613281 90.546875 32.523438 90.703125 33.351562 C 90.855469 34.183594 91.234375 34.394531 91.808594 34.78125 C 92.378906 35.167969 92.421875 36.050781 92.421875 36.050781 C 92.421875 36.050781 93.742188 34.714844 92.511719 32.710938 C 91.28125 30.707031 90.027344 30.078125 89.582031 28.753906 C 89.972656 28.257812 89.867188 27.28125 88.761719 26.324219 C 87.277344 25.03125 85.402344 24.226562 83.949219 22.226562 C 83.949219 22.226562 84.246094 24.664062 82.527344 26.070312 C 80.804688 27.472656 79.515625 29.199219 80.886719 31.605469 C 82.253906 34.011719 84.066406 34.441406 84.75 35.308594 C 85.429688 36.175781 85.851562 36.601562 85.640625 37.25 C 85.429688 37.890625 87.296875 38.296875 87.8125 38.039062 C 88.324219 37.78125 87.777344 36.84375 87.109375 36.273438 C 86.441406 35.699219 86.820312 35.109375 86.570312 34.359375 C 86.320312 33.609375 85.550781 33.152344 85.636719 32.472656 C 85.6875 32.085938 85.535156 31.429688 85.269531 30.832031 C 85.023438 30.28125 84.449219 29.5 84.972656 29.550781 C 85.460938 29.597656 85.984375 29.917969 86.304688 30.277344 "/>
</g>
<path style=" stroke:none;fill-rule:evenodd;fill:rgb(9.408569%,6.669617%,10.5896%);fill-opacity:1;" d="M 88.890625 27.261719 C 88.890625 27.261719 89.457031 28.265625 89.035156 28.527344 C 88.613281 28.789062 88.476562 28.433594 88.394531 28.089844 C 88.347656 27.890625 88.214844 27.414062 87.820312 26.976562 C 87.523438 26.648438 86.976562 26.320312 86.066406 26.492188 C 86.261719 26.53125 86.503906 26.609375 86.648438 26.6875 C 86.296875 27.40625 86.253906 28.882812 87.191406 29.3125 C 87.828125 29.601562 88.628906 29.414062 88.867188 29.175781 C 89.058594 28.984375 89.273438 28.703125 89.582031 28.753906 C 89.792969 28.488281 89.859375 28.082031 89.703125 27.617188 C 89.753906 28.277344 89.601562 28.28125 89.4375 28.074219 C 89.308594 27.804688 89.117188 27.5 88.890625 27.261719 "/>
<path style=" stroke:none;fill-rule:evenodd;fill:rgb(99.609375%,92.549133%,39.608765%);fill-opacity:1;" d="M 88.671875 29.015625 C 87.882812 28.835938 88.0625 27.078125 86.875 26.761719 C 86.667969 27.402344 86.667969 29.621094 88.671875 29.015625 "/>
<path style=" stroke:none;fill-rule:evenodd;fill:rgb(55.288696%,51.368713%,64.309692%);fill-opacity:1;" d="M 61.445312 48.953125 C 64.605469 47.355469 68.535156 47.289062 72.265625 48.585938 C 76.996094 50.226562 76.886719 51.195312 75.082031 50.695312 C 73.492188 50.253906 67.679688 48.785156 61.699219 50.699219 C 60.113281 51.207031 59.035156 51.910156 58.109375 53.390625 C 57.6875 54.066406 57.554688 53.972656 57.769531 52.984375 C 58.167969 51.152344 59.867188 49.753906 61.445312 48.953125 "/>
<path style=" stroke:none;fill-rule:evenodd;fill:rgb(9.408569%,6.669617%,10.5896%);fill-opacity:1;" d="M 83.960938 24.339844 C 83.273438 23.886719 82.476562 23.066406 81.984375 22.363281 C 82.175781 22.796875 82.390625 23.226562 82.628906 23.652344 C 82.816406 23.984375 83.566406 24.699219 83.945312 24.945312 C 84.664062 25.40625 84.476562 24.683594 83.960938 24.339844 "/>
<path style=" stroke:none;fill-rule:evenodd;fill:rgb(98.429871%,78.039551%,2.749634%);fill-opacity:1;" d="M 92.570312 34.746094 C 92.558594 34.519531 92.441406 34.308594 92.335938 34.058594 C 92.230469 33.804688 92.472656 33.449219 92.628906 33.765625 C 92.789062 34.078125 92.746094 34.527344 92.570312 34.746094 "/>
<path style=" stroke:none;fill-rule:evenodd;fill:rgb(29.798889%,25.878906%,39.608765%);fill-opacity:1;" d="M 5.453125 10.507812 C 5.453125 10.507812 20.925781 14.09375 15.964844 27.347656 C 22.503906 27.613281 35.132812 32.445312 32.28125 40.941406 C 36.484375 40.15625 50.203125 38.222656 49.980469 46.023438 C 55.804688 40.390625 61.085938 39.917969 66.207031 45.066406 C 66.207031 45.066406 64.402344 41.523438 63.726562 33.933594 C 63.054688 26.347656 65.914062 19.09375 65.914062 19.09375 C 65.914062 19.09375 53.46875 13.675781 37.996094 11.757812 C 22.523438 9.839844 5.453125 10.507812 5.453125 10.507812 "/>
<path style=" stroke:none;fill-rule:evenodd;fill:rgb(9.408569%,6.669617%,10.5896%);fill-opacity:1;" d="M 6.867188 10.929688 C 19.910156 11.335938 42.042969 12.484375 62.277344 19.136719 C 63.628906 19.578125 64.160156 20.09375 62.222656 20.421875 C 61.484375 20.546875 60.316406 20.699219 58.851562 20.761719 C 53.339844 20.761719 35.203125 20.957031 15.976562 27.320312 L 15.964844 27.347656 C 16.449219 27.367188 16.96875 27.414062 17.507812 27.480469 C 35.707031 24.617188 40.265625 23.515625 59.1875 23.261719 C 64.695312 23.191406 61.835938 24.554688 60.867188 25.179688 C 59.28125 26.046875 42.296875 33.242188 32.34375 40.925781 C 32.722656 40.859375 33.167969 40.78125 33.671875 40.703125 C 38.007812 38.441406 46.28125 34.203125 53.113281 31.136719 C 55.785156 29.941406 58.027344 29.089844 59.945312 28.433594 C 62.683594 27.492188 62.734375 28.796875 60.53125 31.183594 C 58.101562 33.675781 53.058594 39.398438 49.980469 46.023438 C 50.410156 45.609375 50.835938 45.222656 51.257812 44.863281 C 54.496094 40.4375 58.125 35.851562 61.078125 34.1875 C 62.671875 33.289062 62.300781 36.769531 63.308594 40.441406 C 63.617188 41.5625 64.28125 42.789062 65.019531 43.972656 C 65.417969 44.304688 65.8125 44.667969 66.207031 45.066406 C 66.207031 45.066406 64.402344 41.523438 63.726562 33.933594 C 63.054688 26.347656 65.914062 19.09375 65.914062 19.09375 C 65.914062 19.09375 53.46875 13.675781 37.996094 11.757812 C 22.523438 9.839844 5.453125 10.507812 5.453125 10.507812 C 5.453125 10.507812 6.007812 10.632812 6.867188 10.929688 "/>
<path style=" stroke:none;fill-rule:evenodd;fill:rgb(20.779419%,17.248535%,27.839661%);fill-opacity:1;" d="M 74.238281 50.527344 C 73.109375 49.695312 70.308594 48.789062 67.421875 43.460938 C 65.859375 40.574219 64.253906 36.5625 64.402344 30.933594 C 64.574219 24.304688 66.03125 21.40625 67.679688 20.289062 C 70.011719 18.703125 71.96875 20.929688 72.386719 22.136719 C 72.265625 20.152344 71.546875 18.34375 67.679688 17.175781 C 63.8125 16.011719 35.894531 6.835938 2.261719 10.671875 C 2.261719 10.671875 37.835938 9.992188 62.972656 18.84375 C 64.828125 19.496094 64.570312 20.761719 58.851562 20.761719 C 53.132812 20.761719 33.960938 20.761719 13.949219 27.847656 C 34.464844 24.429688 39.679688 22.847656 59.605469 22.847656 C 65.492188 22.847656 62.550781 24.265625 60.867188 25.179688 C 59.1875 26.097656 40.4375 33.683594 30.851562 41.855469 C 30.851562 41.855469 51.222656 30.671875 60.152344 27.890625 C 63.097656 26.972656 63.054688 28.597656 60.53125 31.183594 C 58.011719 33.769531 52.125 40.105469 49.183594 47.359375 C 53.046875 42.105469 57.488281 35.566406 61.121094 33.601562 C 62.972656 32.601562 62.46875 36.6875 63.476562 40.355469 C 64.484375 44.023438 69.109375 48.859375 67.847656 49.695312 C 65.015625 51.566406 78.160156 53.417969 74.238281 50.527344 "/>
<path style=" stroke:none;fill-rule:evenodd;fill:rgb(55.288696%,51.368713%,64.309692%);fill-opacity:1;" d="M 76.347656 37.378906 C 76.808594 38.386719 77.894531 39.855469 80.082031 41.628906 C 83.238281 44.179688 85.40625 45.457031 86.625 48.640625 C 86.820312 49.148438 87.089844 50.058594 87.097656 51.125 C 87.113281 53.597656 85.90625 49.085938 83.753906 47.085938 C 80.535156 44.09375 77.25 41.640625 76.179688 38.429688 C 75.988281 37.851562 75.769531 36.921875 75.84375 36.566406 C 75.914062 36.234375 75.96875 36.546875 76.347656 37.378906 "/>
<path style=" stroke:none;fill-rule:evenodd;fill:rgb(20.779419%,17.248535%,27.839661%);fill-opacity:1;" d="M 84.414062 25.179688 C 82.984375 24.097656 78.949219 20.136719 78.609375 13.714844 C 77.777344 17.597656 79.125 23.300781 82.773438 26.554688 C 83.761719 27.4375 84.414062 25.179688 84.414062 25.179688 "/>
<path style=" stroke:none;fill-rule:evenodd;fill:rgb(55.288696%,51.368713%,64.309692%);fill-opacity:1;" d="M 83.304688 24.410156 C 83.027344 24.144531 82.738281 23.878906 82.542969 23.675781 C 82.097656 23.207031 81.558594 22.558594 81.082031 21.777344 C 80.050781 20.078125 79.597656 18.898438 79.441406 18.398438 C 79.335938 18.054688 79.21875 17.992188 79.34375 18.65625 C 79.578125 19.90625 80.179688 21.132812 80.804688 22.164062 C 81.476562 23.277344 82.664062 24.734375 83.71875 25.503906 C 84.003906 25.710938 84.027344 25.324219 83.722656 24.847656 C 83.632812 24.703125 83.414062 24.515625 83.304688 24.410156 "/>
<path style=" stroke:none;fill-rule:evenodd;fill:rgb(55.288696%,51.368713%,64.309692%);fill-opacity:1;" d="M 86.996094 26.3125 C 86.996094 26.3125 87.871094 26.480469 88.175781 27.15625 C 88.476562 27.835938 88.53125 28.246094 88.804688 28.246094 C 89.078125 28.246094 89.035156 27.785156 88.824219 27.324219 C 88.613281 26.863281 88.089844 26.15625 87.007812 26.132812 C 85.925781 26.113281 86.859375 26.300781 86.996094 26.3125 "/>
<path style=" stroke:none;fill-rule:evenodd;fill:rgb(55.288696%,51.368713%,64.309692%);fill-opacity:1;" d="M 89.59375 29.28125 C 89.472656 28.824219 89.210938 29.105469 89.234375 29.425781 C 89.273438 29.925781 89.414062 30.539062 89.894531 30.988281 C 90.34375 31.414062 90.53125 31.621094 90.726562 31.933594 C 90.882812 32.179688 90.921875 32.378906 90.882812 32.472656 C 90.839844 32.566406 90.75 32.425781 90.605469 32.339844 C 90.441406 32.242188 90.382812 32.222656 89.5625 31.925781 C 88.742188 31.628906 87.804688 31.078125 87.269531 30.449219 C 86.734375 29.824219 86.40625 29.5 85.523438 29.300781 C 84.640625 29.101562 84.242188 29.421875 84.738281 29.40625 C 85.578125 29.375 86.15625 29.675781 86.878906 30.636719 C 87.605469 31.601562 88.257812 31.804688 89.457031 32.164062 C 90.207031 32.390625 90.511719 32.597656 90.648438 32.753906 C 91.054688 33.21875 91 33.800781 91.753906 34.085938 C 92.050781 34.195312 92.113281 34.191406 92.097656 33.988281 C 92.085938 33.820312 92.132812 33.605469 92.296875 33.492188 C 92.320312 33.476562 92.347656 33.460938 92.378906 33.445312 C 92.503906 33.394531 92.324219 32.992188 92.117188 32.605469 C 91.90625 32.214844 91.328125 31.421875 91.09375 31.195312 C 90.597656 30.699219 89.714844 29.738281 89.59375 29.28125 "/>
<path style=" stroke:none;fill-rule:evenodd;fill:rgb(55.288696%,51.368713%,64.309692%);fill-opacity:1;" d="M 84.933594 23.664062 C 84.5 23.230469 84.179688 22.910156 83.847656 22.460938 C 83.449219 21.917969 82.914062 21.09375 82.496094 20.089844 C 81.738281 18.253906 81.46875 17.023438 81.390625 16.503906 C 81.335938 16.148438 81.242188 16.074219 81.292969 16.746094 C 81.394531 18.101562 81.796875 19.269531 82.253906 20.378906 C 82.832031 21.78125 83.339844 22.433594 83.582031 22.703125 C 84.269531 23.46875 85.183594 23.917969 84.933594 23.664062 "/>
<path style=" stroke:none;fill-rule:evenodd;fill:rgb(55.288696%,51.368713%,64.309692%);fill-opacity:1;" d="M 78.753906 24.304688 C 77.527344 24.640625 75.433594 25.613281 73.984375 27.554688 C 72.613281 29.382812 72.175781 30.5625 72.03125 31.15625 C 71.929688 31.558594 71.957031 31.867188 72.28125 31.484375 C 73.203125 30.402344 73.917969 28.476562 76.484375 26.800781 C 79.050781 25.128906 80.378906 25.621094 80.003906 24.878906 C 79.777344 24.421875 79.480469 24.105469 78.753906 24.304688 "/>
<path style=" stroke:none;fill-rule:evenodd;fill:rgb(55.288696%,51.368713%,64.309692%);fill-opacity:1;" d="M 85.082031 26.058594 C 84.914062 26 84.652344 26.039062 84.378906 26.238281 C 84.105469 26.4375 83.527344 26.53125 82.886719 26.386719 C 82.433594 26.28125 81.671875 27.046875 81.167969 27.804688 C 80.660156 28.570312 80.492188 29.382812 80.636719 30.191406 C 80.691406 30.496094 80.804688 30.757812 80.941406 30.941406 C 81.234375 31.339844 80.953125 29.742188 81.65625 28.851562 C 82.359375 27.964844 82.925781 28.121094 83.402344 28.121094 C 83.875 28.121094 84.011719 27.941406 84.304688 27.210938 C 84.546875 26.605469 84.839844 26.425781 85.082031 26.320312 C 85.324219 26.21875 85.386719 26.167969 85.082031 26.058594 "/>
<path style=" stroke:none;fill-rule:evenodd;fill:rgb(55.288696%,51.368713%,64.309692%);fill-opacity:1;" d="M 27.066406 10.328125 C 30.511719 10.492188 34.046875 10.804688 37.386719 11.214844 C 45.542969 12.214844 55.425781 13.925781 68.207031 17.84375 C 68.207031 17.84375 69.074219 18.113281 69.847656 18.585938 C 70.789062 19.15625 71.242188 19.644531 70.015625 19.144531 C 69.65625 18.996094 68.808594 19.015625 68.246094 19.15625 C 66.820312 19.511719 66.882812 18.464844 62.300781 17 C 60.480469 16.417969 58.136719 15.96875 56.160156 15.507812 C 41.644531 12.132812 35.582031 11.464844 30.554688 11.046875 C 29.378906 10.949219 28.082031 10.824219 26.789062 10.730469 C 20.621094 10.296875 19.910156 10.058594 22.160156 10.101562 C 23.183594 10.121094 23.65625 10.167969 27.066406 10.328125 "/>
<path style=" stroke:none;fill-rule:evenodd;fill:rgb(55.288696%,51.368713%,64.309692%);fill-opacity:1;" d="M 87.75 37.878906 C 87.847656 37.804688 87.828125 37.359375 87.585938 37.011719 C 87.34375 36.660156 86.847656 36.328125 86.691406 35.980469 C 86.535156 35.636719 86.554688 34.871094 86.492188 34.601562 C 86.429688 34.328125 85.703125 33.378906 85.597656 33.066406 C 85.492188 32.75 85.511719 32.183594 85.429688 31.832031 C 85.34375 31.476562 85.136719 30.835938 85.144531 31.152344 C 85.15625 31.464844 85.304688 31.832031 85.324219 32.542969 C 85.34375 33.253906 85.441406 33.410156 85.765625 33.753906 C 86.09375 34.097656 86.449219 34.414062 86.398438 35.226562 C 86.34375 36.042969 86.664062 36.296875 87.039062 36.597656 C 87.410156 36.902344 87.648438 37.128906 87.613281 37.527344 C 87.589844 37.753906 87.601562 37.988281 87.75 37.878906 "/>
<path style=" stroke:none;fill-rule:evenodd;fill:rgb(55.288696%,51.368713%,64.309692%);fill-opacity:1;" d="M 13.875 14.085938 C 15.058594 15.195312 16.296875 16.664062 17.035156 18.542969 C 17.640625 20.082031 17.527344 20.605469 19.144531 20.609375 C 19.683594 20.613281 19.699219 20.492188 20.714844 20.398438 C 21 20.371094 21.660156 20.632812 22.328125 20.375 C 22.539062 20.292969 22.152344 19.082031 22.386719 19.0625 C 22.625 19.039062 23.503906 20.203125 23.746094 20.25 C 24.472656 20.382812 24.457031 19.972656 24.851562 19.9375 C 25.117188 19.917969 25.175781 20.226562 25.703125 20.082031 C 25.929688 20.015625 25.882812 19.457031 26.121094 19.4375 C 26.363281 19.417969 26.902344 19.925781 27.148438 19.960938 C 28.074219 20.109375 28.363281 19.503906 28.921875 19.460938 C 29.550781 19.414062 29.949219 19.890625 30.714844 19.695312 C 31.214844 19.566406 30.089844 18.007812 30.355469 17.988281 C 30.566406 17.976562 31.453125 19.296875 32.144531 19.597656 C 32.597656 19.796875 32.816406 19.46875 33.15625 19.449219 C 33.496094 19.429688 33.839844 19.492188 34.183594 19.46875 C 34.4375 19.453125 34.269531 18.832031 34.523438 18.816406 C 34.722656 18.808594 35.246094 19.222656 35.433594 19.285156 C 35.929688 19.453125 36.304688 19.4375 36.683594 19.328125 C 36.980469 19.242188 36.359375 18.222656 36.546875 18.214844 C 36.785156 18.199219 37.28125 19.195312 37.960938 19.265625 C 38.289062 19.296875 38.5 19.121094 38.777344 19.109375 C 39.054688 19.097656 39.339844 19.199219 39.617188 19.1875 C 39.847656 19.179688 40.015625 19.042969 40.246094 19.035156 C 40.476562 19.027344 40.769531 19.140625 41.003906 19.132812 C 41.269531 19.125 40.609375 17.753906 40.878906 17.746094 C 40.972656 17.742188 41.195312 18.011719 41.460938 18.308594 C 41.980469 18.894531 42.148438 19.101562 42.914062 19.101562 C 43.304688 19.101562 43.339844 18.8125 43.582031 18.800781 C 43.84375 18.785156 43.964844 19.0625 44.507812 19.039062 C 44.609375 19.035156 44.714844 19.03125 44.824219 19.023438 C 45.378906 19 45.214844 18.4375 45.355469 18.4375 C 45.542969 18.433594 45.972656 18.949219 46.402344 18.992188 C 46.828125 19.035156 46.761719 18.871094 47.03125 18.867188 C 47.242188 18.867188 47.628906 18.980469 47.835938 18.976562 C 48.125 18.976562 47.65625 18.015625 47.941406 18.015625 C 48.164062 18.011719 48.695312 18.839844 49.367188 18.976562 C 49.710938 19.046875 49.714844 18.882812 49.933594 18.882812 C 50.105469 18.886719 50.371094 18.980469 50.542969 18.984375 C 50.769531 18.984375 50.644531 18.53125 50.882812 18.535156 C 51.066406 18.539062 51.414062 19.003906 51.804688 19.007812 C 52.023438 19.011719 52.121094 18.871094 52.34375 18.878906 C 52.539062 18.886719 52.863281 19.039062 53.058594 19.046875 C 53.265625 19.050781 53.183594 18.578125 53.386719 18.582031 C 53.59375 18.589844 54.101562 19.027344 54.292969 19.082031 C 54.609375 19.171875 54.734375 19.144531 54.917969 19.097656 C 55.113281 19.042969 54.773438 18.539062 54.964844 18.539062 C 55.15625 18.542969 55.675781 19.105469 56.0625 19.105469 C 56.296875 19.105469 56.328125 18.996094 56.523438 18.988281 C 56.71875 18.980469 57.082031 19.070312 57.230469 19.054688 C 58.074219 18.957031 58.0625 18.660156 56.34375 18.085938 C 55.933594 17.949219 55.671875 17.910156 55.066406 17.710938 C 54.808594 17.625 54.886719 18.019531 54.757812 17.984375 C 54.332031 17.863281 54.160156 17.417969 53.429688 17.285156 C 53.238281 17.25 53.335938 17.683594 53.132812 17.628906 C 52.960938 17.585938 51.773438 16.433594 51.613281 17.007812 C 51.582031 17.128906 51.65625 17.496094 51.621094 17.488281 C 51.375 17.429688 50.710938 16.597656 50.464844 16.535156 C 50.257812 16.488281 50.136719 16.660156 49.945312 16.613281 C 49.753906 16.570312 49.605469 16.3125 49.289062 16.257812 C 49.070312 16.222656 49.371094 16.976562 49.265625 16.953125 C 49.132812 16.921875 48.648438 16.117188 48.515625 16.085938 C 48.394531 16.0625 48.292969 16.15625 48.195312 16.136719 C 48.007812 16.097656 47.957031 15.960938 47.800781 15.929688 C 47.558594 15.875 47.632812 16.316406 47.535156 16.296875 C 47.410156 16.269531 47.152344 15.792969 47.027344 15.769531 C 46.820312 15.722656 46.648438 15.9375 46.453125 15.898438 C 46.246094 15.851562 46.265625 15.628906 45.910156 15.542969 C 45.742188 15.5 45.710938 15.730469 45.625 15.714844 C 45.371094 15.664062 45.289062 15.375 44.726562 15.292969 C 44.460938 15.253906 44.53125 15.8125 44.394531 15.785156 C 44.257812 15.761719 43.902344 15.152344 43.765625 15.128906 C 43.46875 15.074219 43.226562 15.261719 42.933594 15.210938 C 42.554688 15.140625 42.542969 14.945312 41.921875 14.808594 C 41.484375 14.710938 41.847656 15.699219 41.6875 15.675781 C 41.484375 15.640625 41.015625 14.660156 40.539062 14.574219 C 40.070312 14.492188 39.867188 14.863281 39.792969 14.855469 C 39.558594 14.816406 39.429688 14.394531 39.03125 14.335938 C 38.558594 14.265625 38.65625 14.777344 38.484375 14.753906 C 38.285156 14.726562 37.960938 14.183594 37.628906 14.125 C 37.367188 14.078125 37.160156 14.257812 36.898438 14.222656 C 36.59375 14.179688 36.128906 13.824219 35.898438 13.886719 C 35.660156 13.953125 36.039062 15.117188 35.796875 15.085938 C 35.554688 15.054688 35.015625 13.832031 34.4375 13.695312 C 34.097656 13.617188 33.722656 13.839844 33.375 13.796875 C 33.007812 13.75 33.039062 13.445312 32.355469 13.425781 C 31.855469 13.410156 32.175781 14.320312 31.941406 14.292969 C 31.394531 14.230469 31.261719 13.253906 30.34375 13.203125 C 30.117188 13.191406 29.964844 13.414062 29.824219 13.398438 C 29.640625 13.378906 29.4375 13.140625 29.046875 13.101562 C 28.738281 13.070312 28.597656 13.269531 28.292969 13.238281 C 28.003906 13.210938 27.753906 12.96875 27.46875 12.921875 C 27.082031 12.859375 26.894531 13.128906 26.957031 13.453125 C 27.015625 13.78125 27.222656 14.226562 26.976562 14.15625 C 26.75 14.089844 26.011719 12.835938 25.40625 12.734375 C 25.160156 12.691406 24.960938 12.835938 24.710938 12.8125 C 24.460938 12.792969 24.160156 12.601562 23.910156 12.605469 C 23.261719 12.609375 24.652344 14.714844 24.308594 14.6875 C 23.964844 14.660156 22.566406 12.605469 21.847656 12.4375 C 21.25 12.300781 21.152344 12.652344 20.78125 12.625 C 20.363281 12.597656 20.019531 12.167969 19.488281 12.265625 C 19.144531 12.328125 19.96875 13.300781 19.625 13.277344 C 19.277344 13.253906 18.269531 12.238281 17.40625 12.121094 C 17.144531 12.085938 16.945312 12.277344 16.683594 12.257812 C 16.476562 12.246094 16.210938 12.046875 16.007812 12.03125 C 15.542969 12.003906 15.625 12.597656 15.164062 12.570312 C 14.902344 12.554688 14.617188 11.996094 13.886719 11.90625 C 13.324219 11.832031 13.328125 12.160156 13.015625 12.15625 C 12.613281 12.152344 12.0625 11.867188 11.84375 11.890625 C 10.464844 12.039062 12.46875 12.769531 13.875 14.085938 "/>
<path style=" stroke:none;fill-rule:evenodd;fill:rgb(55.288696%,51.368713%,64.309692%);fill-opacity:1;" d="M 53.984375 24.078125 C 53.871094 24.078125 53.894531 24.195312 53.785156 24.199219 C 53.695312 24.203125 53.585938 24.089844 53.382812 24.101562 C 53.121094 24.113281 53.429688 24.640625 53.234375 24.648438 C 52.976562 24.65625 52.273438 24.144531 52.015625 24.15625 C 51.675781 24.167969 51.878906 24.476562 51.53125 24.492188 C 51.257812 24.503906 50.863281 24.207031 50.367188 24.210938 C 49.800781 24.21875 50.597656 24.941406 50.402344 24.949219 C 50.207031 24.960938 49.191406 24.277344 48.996094 24.289062 C 48.554688 24.308594 48.691406 24.6875 48.234375 24.710938 C 47.773438 24.738281 47.300781 24.277344 46.449219 24.4375 C 45.890625 24.542969 46.5625 25.308594 46.289062 25.328125 C 46.074219 25.339844 45.375 24.574219 44.777344 24.535156 C 44.371094 24.507812 44.484375 24.75 44.21875 24.769531 C 43.953125 24.789062 43.597656 24.558594 43.175781 24.652344 C 42.875 24.722656 43.835938 25.875 43.515625 25.902344 C 43.199219 25.929688 42.265625 24.949219 41.269531 24.820312 C 40.960938 24.777344 41.058594 24.976562 40.871094 24.996094 C 40.6875 25.011719 40.363281 24.792969 40.15625 24.925781 C 40.027344 25.007812 40.183594 25.332031 40.03125 25.347656 C 39.875 25.363281 39.382812 25.003906 39.230469 25.019531 C 39.09375 25.035156 39.628906 25.894531 39.492188 25.910156 C 39.355469 25.925781 38.542969 25.09375 38.40625 25.109375 C 38.207031 25.132812 38.199219 25.445312 38 25.46875 C 37.800781 25.492188 37.410156 25.222656 37.207031 25.246094 C 37.019531 25.269531 37.128906 25.4375 36.9375 25.464844 C 36.742188 25.488281 36.253906 25.199219 36.195312 25.503906 C 36.160156 25.6875 36.808594 26.230469 36.621094 26.257812 C 36.519531 26.269531 36.101562 26.058594 35.699219 25.863281 C 34.941406 25.492188 34.648438 25.511719 34.269531 25.628906 C 34.097656 25.683594 33.867188 26.023438 33.6875 26.050781 C 33.457031 26.085938 32.867188 25.824219 32.632812 25.859375 C 32.507812 25.878906 32.601562 26.128906 32.472656 26.148438 C 32.34375 26.167969 31.996094 25.957031 31.867188 25.976562 C 31.664062 26.007812 31.878906 26.375 31.675781 26.40625 C 31.484375 26.4375 30.867188 26.132812 30.671875 26.167969 C 30.390625 26.210938 30.472656 26.4375 30.183594 26.484375 C 29.914062 26.53125 29.117188 26.15625 29 26.445312 C 28.9375 26.601562 29.785156 27.269531 29.601562 27.296875 C 29.417969 27.324219 28.101562 26.59375 27.90625 26.621094 C 27.664062 26.660156 27.84375 26.992188 27.601562 27.035156 C 27.359375 27.074219 26.753906 26.816406 26.449219 26.867188 C 25.828125 26.96875 28.265625 28.164062 27.96875 28.265625 C 27.761719 28.335938 27.214844 28.160156 26.617188 27.929688 C 25.304688 27.417969 24.496094 26.894531 23.097656 27.464844 C 22.613281 27.660156 22.519531 28.027344 24.089844 28.585938 C 26.320312 29.378906 29.09375 30.886719 30.945312 32.90625 C 31.640625 33.660156 32 33.996094 32.734375 33.941406 C 32.96875 33.921875 33.042969 33.609375 33.402344 33.472656 C 33.6875 33.367188 34.027344 33.566406 34.621094 33.273438 C 34.902344 33.132812 34.179688 31.851562 34.464844 31.71875 C 34.746094 31.585938 35.785156 32.519531 36.324219 32.472656 C 36.839844 32.429688 36.578125 32.167969 36.742188 32.089844 C 36.957031 31.996094 37.242188 32.058594 37.453125 31.964844 C 37.628906 31.886719 37.28125 31.160156 37.457031 31.082031 C 37.632812 31.003906 38.121094 31.480469 38.511719 31.5 C 39.242188 31.539062 38.847656 30.96875 39.113281 30.855469 C 39.378906 30.742188 39.765625 30.972656 40.03125 30.863281 C 40.175781 30.804688 39.988281 30.242188 40.132812 30.179688 C 40.320312 30.105469 40.71875 30.398438 41.238281 30.351562 C 41.703125 30.308594 41.582031 30.085938 41.207031 29.46875 C 41 29.132812 40.804688 28.804688 40.871094 28.78125 C 40.984375 28.734375 42 29.703125 42.589844 29.757812 C 43.125 29.804688 42.964844 29.546875 43.179688 29.460938 C 43.394531 29.378906 43.632812 29.417969 43.847656 29.335938 C 44.082031 29.25 43.617188 28.429688 43.847656 28.34375 C 44.078125 28.257812 44.628906 28.765625 45.234375 28.816406 C 45.992188 28.878906 45.984375 28.265625 46.292969 28.152344 C 46.742188 27.992188 47.054688 28.171875 47.5 28.015625 C 47.726562 27.933594 47.40625 27.226562 47.632812 27.148438 C 47.855469 27.070312 48.332031 27.53125 48.855469 27.519531 C 49.675781 27.5 49.433594 27.09375 49.761719 26.980469 C 50.132812 26.851562 50.386719 27.007812 50.949219 26.820312 C 51.171875 26.746094 50.761719 25.9375 50.984375 25.863281 C 51.207031 25.789062 51.753906 26.328125 52.28125 26.347656 C 52.992188 26.375 52.824219 25.882812 53.140625 25.777344 C 53.480469 25.664062 53.894531 25.839844 54.238281 25.726562 C 54.488281 25.644531 54.222656 25.1875 54.445312 25.109375 C 54.621094 25.050781 55.304688 25.289062 55.46875 25.273438 C 55.949219 25.238281 55.839844 24.933594 56.078125 24.847656 C 56.398438 24.730469 56.847656 24.769531 57.070312 24.671875 C 58.054688 24.25 58.054688 24.054688 57.058594 24.023438 C 56.371094 24 56.320312 24.195312 56.035156 24.207031 C 55.730469 24.222656 55.527344 24.019531 55.132812 24.03125 C 54.957031 24.039062 54.953125 24.339844 54.761719 24.34375 C 54.570312 24.351562 54.191406 24.066406 53.984375 24.078125 "/>
<path style=" stroke:none;fill-rule:evenodd;fill:rgb(55.288696%,51.368713%,64.309692%);fill-opacity:1;" d="M 55.660156 30.828125 C 55.539062 30.875 55.546875 30.972656 55.421875 31.027344 C 55.300781 31.078125 55.125 31.035156 54.921875 31.148438 C 54.699219 31.265625 55.113281 31.507812 55.011719 31.554688 C 54.835938 31.632812 54.257812 31.4375 54.078125 31.519531 C 53.953125 31.570312 53.988281 31.679688 53.859375 31.734375 C 53.699219 31.808594 53.375 31.828125 53.207031 31.902344 C 53.03125 31.980469 53.027344 32.148438 52.839844 32.230469 C 52.628906 32.324219 52.332031 32.277344 52.125 32.394531 C 51.785156 32.578125 52.835938 32.957031 52.671875 33.027344 C 52.511719 33.101562 51.210938 32.800781 51.042969 32.875 C 50.859375 32.960938 50.96875 33.210938 50.78125 33.300781 C 50.589844 33.386719 50.105469 33.304688 49.914062 33.394531 C 49.707031 33.488281 49.796875 33.710938 49.585938 33.808594 C 49.320312 33.929688 48.753906 33.933594 48.476562 34.0625 C 48.257812 34.164062 48.414062 34.414062 48.191406 34.519531 C 47.96875 34.625 47.363281 34.585938 47.136719 34.695312 C 46.953125 34.78125 48.089844 35.246094 47.902344 35.335938 C 47.664062 35.453125 46.09375 35.191406 45.851562 35.3125 C 45.59375 35.433594 45.964844 35.683594 45.707031 35.808594 C 45.445312 35.9375 44.550781 35.941406 44.285156 36.070312 C 43.996094 36.210938 45.449219 36.484375 45.15625 36.632812 C 44.925781 36.746094 42.953125 36.738281 42.71875 36.855469 C 42.519531 36.957031 42.738281 37.125 42.53125 37.230469 C 42.328125 37.335938 41.703125 37.378906 41.496094 37.484375 C 41.058594 37.707031 41.207031 37.929688 40.757812 38.15625 C 40.546875 38.261719 40.054688 38.367188 39.667969 38.472656 C 39.488281 38.519531 40.25 38.875 40.140625 38.886719 C 39.203125 38.972656 38.753906 38.945312 38.304688 39.144531 C 37.753906 39.386719 37.492188 39.792969 38.15625 39.746094 C 40.90625 39.539062 43.644531 39.683594 45.644531 40.269531 C 46.910156 40.644531 47.363281 40.6875 47.757812 40.414062 C 47.898438 40.316406 47.675781 40.070312 47.835938 39.890625 C 47.910156 39.808594 48.347656 39.820312 48.433594 39.722656 C 48.859375 39.238281 46.867188 38.851562 47.339844 38.695312 C 47.816406 38.539062 48.976562 39.046875 49.273438 38.742188 C 49.394531 38.621094 49.3125 38.515625 49.355469 38.464844 C 49.429688 38.382812 49.5625 38.40625 49.644531 38.328125 C 49.894531 38.085938 49.308594 37.820312 49.421875 37.695312 C 49.535156 37.570312 50.214844 37.699219 50.328125 37.578125 C 50.398438 37.503906 50.402344 37.347656 50.472656 37.273438 C 50.578125 37.15625 50.75 37.210938 50.859375 37.011719 C 50.9375 36.867188 50.453125 36.5 50.570312 36.382812 C 50.683594 36.265625 51.429688 36.417969 51.546875 36.300781 C 51.695312 36.140625 51.597656 35.714844 51.753906 35.5625 C 51.90625 35.40625 52.3125 35.523438 52.46875 35.371094 C 52.5625 35.277344 51.671875 34.828125 51.765625 34.738281 C 51.859375 34.644531 52.796875 34.992188 53.125 34.785156 C 53.246094 34.707031 53.21875 34.503906 53.355469 34.390625 C 53.511719 34.257812 53.734375 34.222656 53.855469 34.109375 C 53.992188 33.984375 53.953125 33.753906 54.0625 33.640625 C 54.199219 33.5 54.46875 33.566406 54.625 33.355469 C 54.816406 33.097656 54.0625 32.679688 54.207031 32.550781 C 54.320312 32.453125 55.066406 32.746094 55.429688 32.632812 C 55.6875 32.550781 55.570312 32.375 55.683594 32.277344 C 55.828125 32.152344 56.113281 32.203125 56.207031 31.964844 C 56.25 31.859375 55.894531 31.632812 55.972656 31.566406 C 56.050781 31.496094 56.417969 31.652344 56.683594 31.554688 C 56.921875 31.46875 56.746094 31.332031 56.820312 31.265625 C 56.890625 31.199219 57.054688 31.21875 57.117188 31.160156 C 58.222656 30.101562 57.863281 29.902344 56.589844 30.449219 C 56.46875 30.5 56.355469 30.707031 56.222656 30.761719 C 56.050781 30.832031 55.855469 30.75 55.660156 30.828125 "/>
<path style=" stroke:none;fill-rule:evenodd;fill:rgb(55.288696%,51.368713%,64.309692%);fill-opacity:1;" d="M 56.292969 39.507812 C 56.410156 39.351562 57.628906 39.152344 57.753906 38.992188 C 57.882812 38.835938 56.921875 38.71875 57.058594 38.5625 C 57.195312 38.394531 57.78125 38.359375 57.929688 38.195312 C 58.074219 38.035156 57.785156 37.75 57.933594 37.59375 C 58.074219 37.449219 58.574219 37.390625 58.71875 37.25 C 58.828125 37.144531 58.582031 36.957031 58.695312 36.855469 C 59.886719 35.773438 60.289062 35.472656 59.320312 37.632812 C 59.246094 37.796875 58.792969 37.90625 58.726562 38.082031 C 58.671875 38.21875 58.996094 38.421875 58.945312 38.566406 C 58.894531 38.710938 58.84375 38.863281 58.800781 39.015625 C 58.734375 39.226562 58.105469 39.410156 58.042969 39.574219 C 57.957031 39.785156 58.441406 39.960938 58.347656 40.105469 C 58.03125 40.605469 57.625 40.792969 56.929688 41 C 54.953125 41.582031 54.445312 41.773438 55.132812 40.960938 C 55.25 40.820312 55.960938 40.59375 56.125 40.390625 C 56.25 40.238281 55.820312 40.125 55.964844 39.921875 C 56.0625 39.792969 56.175781 39.65625 56.292969 39.507812 "/>
<path style=" stroke:none;fill-rule:evenodd;fill:rgb(20.779419%,17.248535%,27.839661%);fill-opacity:1;" d="M 70.199219 54.425781 C 70.199219 54.425781 67.003906 54.84375 66.222656 58.039062 C 65.441406 61.234375 64.644531 62.605469 59.8125 64.210938 C 59.980469 65.019531 60.402344 66.65625 61.757812 68.128906 C 62.320312 68.738281 61.824219 69.105469 62.453125 69.328125 C 63.011719 69.527344 63.769531 69.542969 65.105469 69.671875 C 65.800781 69.742188 66.574219 70.003906 66.785156 70.777344 C 66.273438 70.453125 65.535156 70.539062 64.796875 70.722656 C 65.445312 70.921875 66.464844 70.964844 66.773438 72.324219 C 66.066406 71.785156 65.382812 71.796875 64.71875 71.878906 C 64.980469 72.074219 65.609375 72.582031 65.550781 73.46875 C 64.785156 72.71875 63.632812 72.6875 62.746094 72.714844 C 61.394531 72.753906 60.167969 72.539062 59.738281 72.273438 C 59.292969 72.003906 58.96875 71.546875 59.132812 70.828125 C 59.246094 70.339844 59.101562 69.675781 58.992188 69.335938 C 58.726562 69.765625 58.21875 69.726562 58.164062 70.394531 C 57.929688 69.863281 58.035156 69.527344 58.324219 68.894531 C 59.132812 67.148438 54.222656 64.214844 55.429688 63.53125 C 57.953125 62.089844 57 59.035156 57.40625 57.128906 C 57.964844 54.53125 59.441406 51.234375 63.101562 50.359375 C 70 48.714844 70.40625 52.921875 70.199219 54.425781 "/>
<path style=" stroke:none;fill-rule:evenodd;fill:rgb(20.779419%,17.248535%,27.839661%);fill-opacity:1;" d="M 84.007812 56.277344 C 83.722656 58.460938 82.875 59.015625 79.507812 62.808594 C 79.832031 64.097656 79.75 66.046875 80.679688 67.289062 C 81.539062 68.4375 80.597656 69.398438 83.074219 70.070312 C 84.109375 70.351562 85.160156 70.925781 85.078125 71.441406 C 85.375 71.851562 85.632812 72.015625 85.605469 72.675781 C 85.089844 72.1875 83.90625 72.375 82.75 72.128906 C 82.863281 72.304688 83.292969 72.832031 83.121094 73.308594 C 82.933594 73.058594 81.679688 72.589844 80.679688 72.621094 C 78.847656 72.679688 77.785156 72.019531 78.066406 70.050781 C 77.707031 70.292969 77.5625 70.480469 77.324219 71.09375 C 76.972656 70.8125 77.199219 69.445312 77.621094 68.722656 C 78.039062 68 78.109375 67.503906 77.332031 66.277344 C 76.601562 65.132812 73.902344 62.777344 74.9375 61.710938 C 76.320312 60.285156 76.882812 56.871094 78.851562 54.882812 C 80.511719 53.207031 84.503906 52.488281 84.007812 56.277344 "/>
<path style=" stroke:none;fill-rule:evenodd;fill:rgb(55.288696%,51.368713%,64.309692%);fill-opacity:1;" d="M 75.949219 60.867188 C 75.949219 60.867188 76.777344 59.40625 77.097656 58.46875 C 77.421875 57.535156 78.425781 55.589844 79.339844 55.152344 C 80.253906 54.710938 81.90625 54.316406 82.820312 55.722656 C 83.734375 57.125 82.40625 56.101562 81.730469 56.128906 C 81.050781 56.160156 79.960938 56.453125 78.925781 57.710938 C 78.394531 58.359375 77.5 59.632812 76.761719 60.460938 C 76.066406 61.238281 75.492188 61.617188 75.949219 60.867188 "/>
<path style=" stroke:none;fill-rule:evenodd;fill:rgb(9.408569%,6.669617%,10.5896%);fill-opacity:1;" d="M 82.109375 71.535156 C 83.199219 71.902344 85.5 71.796875 85.605469 72.675781 C 85.089844 72.1875 83.90625 72.375 82.75 72.128906 C 82.53125 71.863281 82.347656 71.722656 82.109375 71.535156 "/>
<path style=" stroke:none;fill-rule:evenodd;fill:rgb(9.408569%,6.669617%,10.5896%);fill-opacity:1;" d="M 85.082031 71.355469 C 85.082031 71.382812 85.082031 71.414062 85.078125 71.441406 C 84.691406 71.023438 84.113281 70.882812 83.785156 70.8125 C 84.101562 70.726562 84.359375 70.761719 84.574219 70.863281 C 84.855469 70.988281 84.996094 71.191406 85.082031 71.355469 "/>
<path style=" stroke:none;fill-rule:evenodd;fill:rgb(9.408569%,6.669617%,10.5896%);fill-opacity:1;" d="M 80.808594 72.039062 C 81.695312 72.195312 82.867188 72.554688 83.121094 73.308594 C 82.933594 73.058594 81.679688 72.589844 80.679688 72.621094 C 78.847656 72.679688 77.785156 72.019531 78.066406 70.050781 C 77.707031 70.292969 77.5625 70.480469 77.324219 71.09375 C 77.25 70.527344 77.628906 69.675781 78.390625 69.363281 C 78.132812 71.914062 79.675781 71.84375 80.808594 72.039062 "/>
<path style=" stroke:none;fill-rule:evenodd;fill:rgb(9.408569%,6.669617%,10.5896%);fill-opacity:1;" d="M 63.261719 72.199219 C 64.390625 72.289062 65.253906 72.613281 65.550781 73.46875 C 64.785156 72.71875 63.632812 72.6875 62.746094 72.714844 C 61.394531 72.753906 60.167969 72.539062 59.738281 72.273438 C 59.292969 72.003906 58.96875 71.546875 59.132812 70.828125 C 59.246094 70.339844 59.101562 69.675781 58.992188 69.335938 C 58.726562 69.765625 58.21875 69.726562 58.164062 70.394531 C 58.039062 69.476562 58.894531 69.355469 59.023438 68.707031 C 59.941406 69.835938 59.277344 71.011719 59.902344 71.628906 C 60.777344 72.488281 62.488281 72.140625 63.261719 72.199219 "/>
<path style=" stroke:none;fill-rule:evenodd;fill:rgb(9.408569%,6.669617%,10.5896%);fill-opacity:1;" d="M 66.773438 72.324219 C 66.066406 71.785156 65.382812 71.796875 64.71875 71.878906 C 64.507812 71.730469 64.234375 71.550781 63.828125 71.46875 C 64.390625 71.253906 66.316406 71.328125 66.773438 72.324219 "/>
<path style=" stroke:none;fill-rule:evenodd;fill:rgb(9.408569%,6.669617%,10.5896%);fill-opacity:1;" d="M 66.785156 70.777344 C 66.273438 70.449219 65.535156 70.539062 64.796875 70.722656 C 64.605469 70.675781 64.410156 70.636719 64.152344 70.601562 C 64.828125 70.316406 66.15625 69.953125 66.785156 70.777344 "/>
<path style=" stroke:none;fill-rule:evenodd;fill:rgb(9.408569%,6.669617%,10.5896%);fill-opacity:1;" d="M 42.039062 70.007812 C 42.171875 73.023438 43.207031 75.734375 46.785156 77.78125 C 57.125 83.695312 68.976562 71.582031 86.796875 79.890625 C 80.691406 76.585938 75.675781 74.886719 64.046875 76.992188 C 59.757812 77.769531 45.230469 81.785156 42.039062 70.007812 "/>
<path style=" stroke:none;fill-rule:evenodd;fill:rgb(55.288696%,51.368713%,64.309692%);fill-opacity:1;" d="M 80.105469 76.421875 C 78.453125 75.875 76.40625 75.367188 73.972656 75.078125 C 68.871094 74.464844 60.320312 76.128906 57.992188 76.363281 C 55.660156 76.597656 51.789062 76.738281 49.46875 75.574219 C 49.222656 75.449219 48.59375 75.425781 49.96875 76.128906 C 51.914062 77.125 54.839844 77.253906 58.125 76.859375 C 61.410156 76.464844 68.019531 75.257812 71.203125 75.339844 C 75.011719 75.4375 77.140625 75.722656 79.957031 76.578125 C 80.777344 76.828125 81.375 77.03125 81.757812 77.152344 C 82.027344 77.234375 81.992188 77.132812 81.8125 77.0625 C 81.65625 77 80.976562 76.714844 80.105469 76.421875 "/>
<path style=" stroke:none;fill-rule:evenodd;fill:rgb(55.288696%,51.368713%,64.309692%);fill-opacity:1;" d="M 55.917969 51.8125 C 54.480469 52.65625 52.527344 53.890625 50.464844 55.695312 C 47.835938 57.996094 45.757812 60.449219 43.933594 63.941406 C 43.210938 65.328125 43.378906 65.535156 43.691406 65.136719 C 43.835938 64.949219 44.105469 64.527344 44.5 63.96875 C 45.894531 61.960938 47.882812 59.089844 51.621094 56.21875 C 54.09375 54.320312 55.496094 53.332031 56.632812 52.226562 C 58.253906 50.648438 57.871094 50.667969 55.917969 51.8125 "/>
</g>
</svg>
