<?xml version="1.0" encoding="UTF-8"?><svg xmlns="http://www.w3.org/2000/svg" xmlns:xlink="http://www.w3.org/1999/xlink" contentScriptType="text/ecmascript" width="93.75pt" zoomAndPan="magnify" contentStyleType="text/css" viewBox="0 0 93.75 93.749996" height="93.749996pt" preserveAspectRatio="xMidYMid meet" version="1.2"><defs/><g xml:id="surface1" id="surface1"><path style=" stroke:none;fill-rule:evenodd;fill:rgb(1.568604%,12.548828%,22.749329%);fill-opacity:1;" d="M 86.148438 56.988281 C 85.792969 58.308594 84.484375 60.019531 82.390625 62.222656 C 82.90625 63.441406 82.910156 65.117188 84.714844 66.929688 C 85.628906 67.84375 85.550781 69.175781 88.238281 69.753906 C 89.324219 69.988281 89.488281 70.453125 89.484375 70.941406 C 89.839844 71.332031 90.125 71.488281 90.195312 72.109375 C 89.609375 71.648438 88.503906 71.839844 87.308594 71.605469 C 87.753906 71.917969 87.894531 72.308594 87.894531 72.867188 C 87.648438 72.589844 86.492188 72.058594 85.496094 72.058594 C 83.664062 72.058594 82.191406 71.515625 82.390625 69.488281 C 82.066406 69.71875 81.953125 69.894531 81.804688 70.472656 C 81.410156 70.207031 81.425781 69.054688 81.679688 68.371094 C 81.933594 67.6875 81.925781 67.21875 80.964844 66.058594 C 80.066406 64.976562 77.015625 62.75 77.890625 61.738281 C 79.058594 60.390625 79.21875 57.824219 80.890625 55.945312 C 82.296875 54.359375 87.09375 53.511719 86.148438 56.988281 "/><path style=" stroke:none;fill-rule:evenodd;fill:rgb(1.568604%,12.548828%,22.749329%);fill-opacity:1;" d="M 85.769531 80.472656 C 85.601562 80.144531 85.621094 79.957031 85.664062 79.757812 C 85.410156 79.664062 85.082031 79.652344 84.800781 79.769531 C 84.632812 79.460938 84.628906 79.234375 84.648438 78.9375 C 84.292969 78.890625 83.929688 78.980469 83.59375 79.105469 C 83.3125 78.65625 83.34375 78.3125 83.351562 78 C 82.910156 77.976562 82.382812 78.109375 81.964844 78.378906 C 81.664062 77.96875 81.691406 77.550781 81.726562 77.136719 C 81.089844 77.136719 80.421875 77.300781 80.046875 77.621094 C 79.597656 77.15625 79.601562 76.753906 79.605469 76.273438 C 79.03125 76.242188 78.25 76.382812 77.628906 76.90625 C 77.058594 76.40625 76.933594 75.882812 76.832031 75.472656 C 76.21875 75.566406 75.441406 75.820312 74.902344 76.40625 C 74.351562 75.988281 74.199219 75.394531 74.003906 74.976562 C 73.339844 75.132812 72.617188 75.507812 72.101562 76.113281 C 71.515625 75.742188 71.34375 75.183594 71.125 74.726562 C 70.429688 74.941406 69.613281 75.507812 69.136719 76.203125 C 68.523438 75.746094 68.320312 75.433594 68 74.859375 C 67.136719 75.277344 66.496094 76.019531 66.246094 76.613281 C 65.480469 76.253906 65.175781 75.808594 64.882812 75.398438 C 64.246094 75.746094 63.597656 76.433594 63.386719 77.195312 C 62.433594 76.898438 62.011719 76.441406 61.484375 75.894531 C 60.800781 76.253906 60.03125 77.003906 59.847656 77.8125 C 59.191406 77.367188 58.929688 76.996094 58.59375 76.511719 C 57.945312 76.699219 57.019531 77.417969 56.8125 78.015625 C 56.226562 77.648438 56.054688 77.402344 55.71875 76.90625 C 55.101562 77.105469 54.304688 77.582031 54.039062 78.21875 C 53.59375 77.863281 53.542969 77.449219 53.433594 77.023438 C 52.585938 77.140625 51.601562 77.578125 51.296875 78.25 C 51.296875 78.25 54.511719 80.003906 57.992188 79.476562 C 67.671875 78.011719 76.480469 76.007812 85.769531 80.472656 "/><path style=" stroke:none;fill-rule:evenodd;fill:rgb(1.568604%,12.548828%,22.749329%);fill-opacity:1;" d="M 59.171875 51.117188 C 57.714844 49.984375 55.789062 49.847656 54.601562 50.0625 C 55.121094 51.039062 55.230469 51.984375 55.191406 52.898438 C 54.070312 52.34375 52.625 52.226562 51.210938 52.636719 C 51.820312 53.496094 51.925781 54.441406 51.800781 55.445312 C 50.609375 55.035156 49.273438 55.003906 48.171875 55.5625 C 48.703125 56.292969 48.867188 57.082031 48.746094 58.046875 C 47.742188 57.621094 46.703125 57.863281 45.722656 58.398438 C 46.25 58.738281 46.65625 59.417969 46.683594 60.3125 C 45.808594 60.15625 44.890625 60.394531 44.191406 60.824219 C 44.804688 61.4375 44.867188 61.863281 44.9375 62.652344 C 44.089844 62.460938 42.984375 62.882812 42.570312 63.207031 C 43.039062 63.683594 43.324219 64.074219 43.566406 65.019531 C 42.757812 65.070312 42.136719 65.292969 41.464844 65.894531 C 42.019531 66.363281 42.335938 66.65625 42.597656 67.664062 C 41.886719 67.769531 41.054688 68.25 40.769531 68.894531 C 41.351562 68.953125 41.769531 69.273438 42.128906 70.035156 C 41.386719 70.25 40.703125 70.929688 40.492188 71.613281 C 41.160156 71.570312 41.738281 71.539062 42.230469 72.167969 C 41.566406 72.558594 41.15625 73.078125 41.007812 73.863281 C 41.566406 73.785156 42.199219 73.847656 42.671875 74.304688 C 42.417969 74.792969 42.25 75.507812 42.363281 76.027344 C 42.804688 75.882812 43.011719 75.808594 43.589844 76.054688 C 43.480469 76.398438 43.4375 76.941406 43.574219 77.335938 C 43.960938 77.152344 44.582031 77.183594 45.046875 77.253906 C 45.03125 77.664062 45.003906 78.207031 45.160156 78.550781 C 45.550781 78.289062 46.441406 78.113281 46.660156 78.144531 C 46.875 78.179688 42.480469 70.179688 46.078125 64.917969 C 49.675781 59.65625 59.050781 53.046875 59.050781 53.046875 C 59.089844 52.402344 59.132812 51.757812 59.171875 51.117188 "/><path style=" stroke:none;fill-rule:evenodd;fill:rgb(2.749634%,21.569824%,36.859131%);fill-opacity:1;" d="M 3.195312 23.457031 C 3.195312 23.457031 18.820312 26.175781 14.425781 36.238281 C 20.976562 36.4375 33.8125 40.105469 31.320312 46.554688 C 35.496094 45.960938 49.132812 44.488281 49.242188 50.414062 C 54.824219 46.136719 60.085938 45.777344 65.429688 49.683594 C 65.429688 49.683594 63.46875 46.996094 62.472656 41.238281 C 61.472656 35.480469 64.019531 29.972656 64.019531 29.972656 C 64.019531 29.972656 51.34375 25.859375 35.789062 24.402344 C 20.234375 22.949219 3.195312 23.457031 3.195312 23.457031 "/><path style=" stroke:none;fill-rule:evenodd;fill:rgb(1.568604%,12.548828%,22.749329%);fill-opacity:1;" d="M 73.695312 53.832031 C 72.527344 53.199219 69.6875 52.511719 66.574219 48.464844 C 64.882812 46.273438 63.109375 43.230469 63.015625 38.960938 C 62.902344 33.929688 64.238281 31.730469 65.835938 30.878906 C 68.101562 29.675781 70.152344 31.367188 70.625 32.28125 C 70.417969 30.777344 69.621094 29.402344 65.703125 28.515625 C 61.785156 27.632812 33.476562 20.671875 0.00390625 23.582031 C 0.00390625 23.582031 35.550781 23.066406 61.066406 29.785156 C 62.949219 30.28125 62.746094 31.238281 57.027344 31.238281 C 51.308594 31.238281 32.136719 31.238281 12.429688 36.617188 C 32.800781 34.023438 37.945312 32.820312 57.875 32.820312 C 63.761719 32.820312 60.878906 33.898438 59.234375 34.59375 C 57.59375 35.289062 39.167969 41.046875 29.933594 47.25 C 29.933594 47.25 49.828125 38.761719 58.636719 36.648438 C 61.542969 35.953125 61.570312 37.1875 59.15625 39.148438 C 56.746094 41.109375 51.128906 45.921875 48.5 51.425781 C 52.140625 47.4375 56.300781 42.472656 59.851562 40.984375 C 61.65625 40.226562 61.328125 43.328125 62.492188 46.109375 C 63.660156 48.894531 68.492188 52.566406 67.265625 53.199219 C 64.515625 54.617188 77.738281 56.023438 73.695312 53.832031 "/><path style=" stroke:none;fill-rule:evenodd;fill:rgb(1.568604%,12.548828%,22.749329%);fill-opacity:1;" d="M 81.292969 25.160156 C 80.671875 24.765625 79.777344 24.609375 78.777344 24.617188 C 78.890625 24.855469 78.878906 25.027344 78.789062 25.296875 C 78.121094 25.089844 77.632812 25.125 76.636719 25.242188 C 76.761719 25.519531 76.792969 25.738281 76.65625 26.121094 C 76.160156 26.003906 75.511719 25.992188 74.492188 26.285156 C 74.710938 26.519531 74.847656 26.855469 74.933594 27.308594 C 73.949219 27.308594 73.402344 27.390625 72.429688 27.828125 C 72.980469 28.019531 73.226562 28.472656 73.410156 29.046875 C 72.328125 29.101562 71.703125 29.347656 70.625 29.914062 C 71.476562 30.078125 71.757812 30.511719 72.15625 31.082031 C 70.929688 31.28125 70.285156 31.691406 69.488281 32.289062 C 70.152344 32.429688 70.765625 32.804688 71.222656 33.5 C 70.351562 33.703125 69.496094 34.09375 68.816406 34.957031 C 69.765625 34.980469 70.222656 35.191406 70.855469 35.742188 C 69.925781 36.402344 69.375 36.992188 68.941406 38.085938 C 69.691406 37.992188 70.347656 38.101562 71.042969 38.472656 C 70.566406 39.164062 70.109375 40.003906 70.078125 41.210938 C 70.699219 40.84375 71.113281 40.757812 71.769531 40.847656 C 71.199219 41.855469 71.265625 42.433594 71.378906 43.128906 C 71.710938 42.839844 72.109375 42.65625 72.832031 42.734375 C 72.472656 43.40625 72.472656 44.3125 72.597656 44.753906 C 72.933594 44.390625 73.421875 44.296875 73.914062 44.296875 C 73.648438 45.019531 73.726562 45.449219 74.027344 46.171875 C 74.421875 45.894531 74.734375 45.746094 75.253906 45.824219 C 75.015625 46.449219 75.113281 46.839844 75.375 47.464844 C 75.554688 47.320312 76.003906 47.105469 76.371094 47.132812 C 76.273438 47.640625 76.34375 48.136719 76.59375 48.589844 C 76.878906 48.457031 77.042969 48.335938 77.421875 48.332031 C 77.324219 48.867188 77.273438 49.15625 77.433594 49.714844 C 77.816406 49.605469 78.039062 49.554688 78.371094 49.644531 C 78.101562 50.046875 78.003906 50.304688 77.949219 50.644531 C 78.25 50.5625 78.679688 50.617188 78.980469 50.882812 C 78.59375 50.945312 78.304688 51.058594 78.066406 51.257812 C 78.265625 51.398438 78.5 51.773438 78.40625 52.050781 C 78.179688 51.679688 77.839844 51.464844 77.558594 51.382812 C 77.523438 51.582031 77.453125 51.6875 77.246094 51.785156 C 77.167969 51.449219 77.070312 51.207031 76.804688 50.839844 C 76.683594 51.0625 76.605469 51.171875 76.308594 51.226562 C 76.277344 50.859375 76.234375 50.699219 75.980469 50.363281 C 75.902344 50.613281 75.769531 50.695312 75.515625 50.773438 C 75.507812 50.402344 75.441406 50.136719 75.097656 49.757812 C 75.09375 50.078125 75.003906 50.246094 74.765625 50.375 C 74.6875 49.941406 74.53125 49.65625 74.097656 49.222656 C 74.050781 49.527344 73.9375 49.707031 73.667969 49.847656 C 73.65625 49.359375 73.472656 49.046875 73.023438 48.617188 C 73.035156 49.027344 72.84375 49.261719 72.558594 49.421875 C 72.46875 48.921875 72.308594 48.5 71.667969 47.980469 C 71.71875 48.464844 71.628906 48.765625 71.300781 49.054688 C 71.183594 48.507812 70.789062 47.917969 70.039062 47.4375 C 70.097656 47.925781 70.09375 48.4375 69.660156 48.773438 C 69.253906 48.121094 69.113281 47.511719 68.011719 46.964844 C 68.148438 47.675781 68.042969 48.09375 67.675781 48.605469 C 67.398438 47.765625 66.847656 47.230469 65.679688 46.558594 C 66.042969 47.320312 66.058594 47.980469 65.570312 48.691406 C 64.9375 47.730469 64.335938 46.882812 62.480469 46.433594 C 63.160156 47.445312 63.125 48.449219 62.902344 49.253906 C 61.410156 48.019531 59.691406 47.667969 57.851562 47.675781 C 58.800781 48.652344 59.070312 50.296875 58.933594 52.199219 C 60.203125 52.332031 59.996094 53.21875 63.726562 52.550781 C 74.117188 50.691406 84.496094 57.71875 82.058594 50.214844 C 79.621094 42.710938 73.019531 40.835938 73.652344 35.039062 C 74.28125 29.246094 76.835938 26.871094 81.292969 25.160156 "/><path style=" stroke:none;fill-rule:evenodd;fill:rgb(5.099487%,34.899902%,58.039856%);fill-opacity:1;" d="M 62.601562 49.503906 C 51.988281 52.78125 41.679688 62.941406 42.039062 71.28125 C 42.171875 74.296875 43.207031 77.007812 46.785156 79.054688 C 57.125 84.964844 68.976562 72.851562 86.796875 81.160156 C 83.316406 78.179688 75.351562 74.492188 63.722656 76.597656 C 52.097656 78.703125 46.433594 77.417969 46.195312 71.15625 C 45.960938 64.894531 56.523438 57.988281 61.777344 59.742188 C 67.027344 61.5 64.375 52.957031 64.375 52.957031 L 62.601562 49.503906 "/><path style=" stroke:none;fill-rule:evenodd;fill:rgb(1.568604%,12.548828%,22.749329%);fill-opacity:1;" d="M 58.769531 54.882812 C 58.339844 55.027344 57.660156 54.902344 57.367188 55.261719 C 56.285156 56.574219 56.945312 58.480469 56.09375 58.902344 C 49.921875 61.980469 46.082031 65.871094 46.195312 71.15625 C 45.960938 64.894531 56.523438 57.988281 61.777344 59.742188 C 67.027344 61.5 64.375 52.957031 64.375 52.957031 L 58.769531 54.882812 "/><path style=" stroke:none;fill-rule:evenodd;fill:rgb(1.568604%,12.548828%,22.749329%);fill-opacity:1;" d="M 73.976562 55.652344 C 73.976562 55.652344 70.136719 56.078125 69.472656 59.03125 C 68.808594 61.988281 67.832031 62.984375 63.707031 64.464844 C 63.878906 65.1875 64.890625 66.332031 66.246094 67.640625 C 66.808594 68.183594 66.328125 68.640625 66.96875 68.871094 C 67.519531 69.0625 68.75 68.890625 69.476562 68.929688 C 69.976562 68.953125 70.460938 69.1875 70.640625 69.613281 C 70.039062 69.519531 69.703125 69.644531 69.253906 69.890625 C 69.90625 70.070312 70.792969 70.179688 71.042969 71.289062 C 70.320312 70.910156 69.722656 70.945312 69.160156 70.976562 C 69.703125 71.28125 70.023438 71.578125 69.964844 72.367188 C 69.128906 71.609375 68.121094 71.699219 67.234375 71.722656 C 65.882812 71.757812 64.65625 71.566406 64.222656 71.332031 C 63.78125 71.089844 63.457031 70.683594 63.621094 70.042969 C 63.734375 69.609375 63.589844 69.015625 63.480469 68.71875 C 63.214844 69.097656 62.707031 69.066406 62.652344 69.65625 C 62.417969 69.1875 62.519531 68.882812 62.8125 68.324219 C 63.617188 66.769531 58.121094 64.472656 59.328125 63.859375 C 61.851562 62.582031 60.78125 59.757812 61.1875 58.0625 C 61.746094 55.746094 63.222656 52.8125 66.882812 52.035156 C 73.78125 50.570312 74.1875 54.316406 73.976562 55.652344 "/><path style=" stroke:none;fill-rule:evenodd;fill:rgb(5.099487%,34.899902%,58.039856%);fill-opacity:1;" d="M 85.421875 25.703125 C 84.246094 25.035156 77.855469 23.617188 74.070312 28.203125 C 69.414062 33.847656 69.78125 40.128906 75.082031 45.714844 C 80.378906 51.300781 79.199219 52.050781 78.023438 52.050781 C 76.84375 52.050781 72.125 47.003906 63.644531 48.964844 C 54.804688 51.007812 57.496094 58.984375 57.476562 61.347656 C 60.097656 60.207031 63.140625 60.03125 66.417969 61.179688 C 74.21875 63.910156 79.621094 63.054688 83.824219 60.136719 C 84.9375 59.363281 85.886719 58.59375 86.523438 57.628906 C 88.914062 54.019531 87.777344 48.921875 84.582031 45.796875 C 81.449219 42.734375 74.917969 39.382812 76.496094 33.941406 C 77.085938 31.910156 78.742188 30.105469 80.964844 31.289062 L 83.234375 28.953125 L 85.421875 25.703125 "/><path style=" stroke:none;fill-rule:evenodd;fill:rgb(1.568604%,12.548828%,22.749329%);fill-opacity:1;" d="M 67.140625 58.703125 C 66.726562 58.4375 67.554688 57.164062 67.242188 57.25 C 62.015625 56.664062 59.464844 58.203125 57.476562 61.347656 C 60.269531 60.730469 63.140625 60.03125 66.417969 61.179688 C 74.21875 63.910156 79.621094 63.054688 83.824219 60.136719 C 84.9375 59.363281 85.886719 58.59375 86.523438 57.628906 C 84.164062 59.640625 82.429688 60.035156 81.53125 59.925781 C 80.050781 59.75 78.109375 58.378906 78.226562 57.25 C 78.285156 56.675781 77.839844 57 77.011719 57.945312 C 76.261719 58.808594 75.589844 59.761719 75.058594 59.882812 C 72.621094 60.445312 68.386719 59.496094 67.140625 58.703125 "/><path style=" stroke:none;fill-rule:evenodd;fill:rgb(1.568604%,12.548828%,22.749329%);fill-opacity:1;" d="M 85.421875 25.703125 C 84.773438 25.335938 82.535156 24.738281 80.027344 25.046875 C 80.582031 26.230469 80.96875 26.773438 81.542969 27.390625 C 80.28125 28.25 79.601562 29.316406 79.453125 30.917969 C 79.917969 30.890625 80.425781 31 80.964844 31.289062 L 83.234375 28.953125 L 85.421875 25.703125 "/><path style=" stroke:none;fill-rule:evenodd;fill:rgb(5.099487%,34.899902%,58.039856%);fill-opacity:1;" d="M 85.347656 25.238281 C 83.683594 23.363281 80.714844 19.429688 81.359375 13.035156 C 80.003906 17.851562 80.726562 22.300781 83.515625 26.351562 C 84.265625 27.441406 85.347656 25.238281 85.347656 25.238281 "/><path style=" stroke:none;fill-rule:evenodd;fill:rgb(1.568604%,12.548828%,22.749329%);fill-opacity:1;" d="M 92.566406 36.898438 C 92.144531 37.230469 91.445312 37.527344 90.632812 37.546875 C 91.40625 37.121094 91.761719 36.746094 91.980469 36.269531 C 91.53125 36.691406 91.113281 36.875 90.632812 36.9375 C 91.15625 36.613281 91.375 36.328125 91.539062 35.957031 C 91.199219 36.222656 90.90625 36.371094 90.527344 36.4375 C 90.871094 36.121094 91.066406 35.972656 91.210938 35.539062 C 90.867188 35.824219 90.578125 35.933594 90.210938 36 C 90.570312 35.707031 90.75 35.507812 90.90625 35.121094 C 90.589844 35.398438 90.308594 35.554688 89.960938 35.644531 C 90.304688 35.398438 90.523438 35.175781 90.675781 34.910156 C 90.289062 35.175781 89.957031 35.316406 89.582031 35.328125 C 89.976562 35.089844 90.207031 34.839844 90.445312 34.492188 C 90.058594 34.71875 89.714844 34.882812 89.328125 34.910156 C 89.609375 34.640625 89.867188 34.441406 89.960938 34.105469 C 89.652344 34.320312 89.238281 34.4375 88.867188 34.453125 C 89.179688 34.214844 89.269531 34.039062 89.394531 33.675781 C 89.085938 33.941406 88.796875 34.050781 88.46875 34.097656 C 88.667969 33.953125 88.804688 33.738281 88.847656 33.511719 C 88.621094 33.707031 88.3125 33.785156 87.984375 33.78125 C 88.269531 33.503906 88.351562 33.296875 88.414062 33 C 88.140625 33.191406 87.835938 33.265625 87.542969 33.238281 C 87.714844 33.03125 87.835938 32.863281 87.835938 32.652344 C 87.640625 32.785156 87.445312 32.898438 87.1875 32.882812 C 87.320312 32.675781 87.335938 32.507812 87.394531 32.257812 C 87.246094 32.425781 87.136719 32.539062 86.785156 32.507812 C 87.039062 32.390625 87.121094 32.234375 87.164062 32.066406 C 86.933594 32.195312 86.710938 32.253906 86.472656 32.171875 C 86.710938 32.003906 86.800781 31.890625 86.871094 31.671875 C 86.605469 31.890625 86.390625 31.972656 86.070312 31.984375 C 86.34375 31.746094 86.472656 31.574219 86.640625 31.273438 C 86.640625 31.273438 89.351562 31.898438 90.296875 33.03125 C 91.242188 34.160156 92.609375 36.207031 92.566406 36.898438 "/><path style=" stroke:none;fill-rule:evenodd;fill:rgb(1.568604%,12.548828%,22.749329%);fill-opacity:1;" d="M 87.511719 39.03125 C 88.15625 38.945312 88.738281 38.683594 89.140625 38.257812 C 88.464844 38.421875 88.144531 38.476562 87.660156 38.445312 C 88.101562 38.28125 88.269531 38.136719 88.46875 37.859375 C 87.980469 37.960938 87.765625 37.988281 87.34375 38.015625 C 87.691406 37.871094 87.835938 37.734375 88.046875 37.441406 C 87.675781 37.558594 87.347656 37.59375 86.964844 37.546875 C 87.355469 37.433594 87.554688 37.324219 87.816406 37.023438 C 87.339844 37.152344 87.074219 37.1875 86.671875 37.117188 C 87.015625 37.003906 87.148438 36.929688 87.394531 36.605469 C 87.046875 36.664062 86.871094 36.65625 86.574219 36.613281 C 86.800781 36.511719 87.207031 36.28125 87.300781 36.039062 C 87.03125 36.128906 86.667969 36.132812 86.449219 36.0625 C 86.675781 35.992188 86.9375 35.839844 87.101562 35.601562 C 86.828125 35.703125 86.554688 35.71875 86.28125 35.683594 C 86.546875 35.554688 86.675781 35.4375 86.859375 35.214844 C 86.539062 35.273438 86.300781 35.289062 85.988281 35.222656 C 86.25 35.105469 86.429688 35.070312 86.597656 34.816406 C 86.332031 34.902344 86.074219 34.875 85.820312 34.847656 C 86.125 34.710938 86.304688 34.617188 86.449219 34.347656 C 86.117188 34.460938 85.761719 34.484375 85.421875 34.410156 C 85.722656 34.277344 85.976562 34.15625 86.175781 33.824219 C 85.855469 33.945312 85.574219 33.972656 85.210938 33.90625 C 85.480469 33.824219 85.726562 33.71875 85.925781 33.40625 C 85.664062 33.542969 85.457031 33.5625 85.144531 33.53125 C 85.453125 33.351562 85.671875 33.222656 85.839844 32.863281 C 85.582031 32.972656 85.320312 32.996094 85.0625 32.90625 C 85.285156 32.816406 85.480469 32.742188 85.640625 32.507812 C 85.351562 32.539062 85.160156 32.539062 84.9375 32.488281 C 84.9375 32.488281 84.597656 32.675781 84.597656 33.574219 C 84.597656 34.472656 85 35.769531 85.734375 37.003906 C 86.472656 38.234375 87.511719 39.03125 87.511719 39.03125 "/><path style=" stroke:none;fill-rule:evenodd;fill:rgb(1.568604%,12.548828%,22.749329%);fill-opacity:1;" d="M 87.042969 39.132812 C 86.816406 39.242188 85.71875 39.808594 83.839844 39.507812 C 83.839844 39.507812 85.332031 39.375 85.738281 39.058594 C 85.738281 39.058594 85.015625 39.214844 84.101562 39.203125 C 84.101562 39.203125 84.992188 39.003906 85.367188 38.75 C 85.238281 38.773438 84.851562 38.816406 84.578125 38.703125 C 84.886719 38.632812 85.574219 38.496094 85.644531 37.832031 C 85.644531 37.832031 85.964844 37.664062 86.152344 38.210938 C 86.339844 38.761719 87.042969 39.132812 87.042969 39.132812 "/><g clip-rule="nonzero"><path style=" stroke:none;fill-rule:evenodd;fill:rgb(5.099487%,34.899902%,58.039856%);fill-opacity:1;" d="M 86.304688 31.550781 C 86.800781 32.113281 87.308594 32.992188 88.460938 33.367188 C 90.070312 33.882812 90.546875 33.792969 90.703125 34.625 C 90.855469 35.457031 91.234375 35.667969 91.808594 36.054688 C 92.378906 36.4375 92.421875 37.324219 92.421875 37.324219 C 92.421875 37.324219 93.742188 35.988281 92.511719 33.984375 C 91.28125 31.980469 90.023438 31.351562 89.582031 30.023438 C 89.972656 29.53125 89.867188 28.554688 88.761719 27.597656 C 87.277344 26.300781 85.402344 25.496094 83.949219 23.5 C 83.949219 23.5 84.246094 25.933594 82.527344 27.339844 C 80.804688 28.746094 79.515625 30.472656 80.886719 32.878906 C 82.253906 35.28125 84.066406 35.714844 84.75 36.582031 C 85.429688 37.449219 85.851562 37.875 85.640625 38.519531 C 85.429688 39.164062 87.296875 39.570312 87.8125 39.308594 C 88.324219 39.050781 87.777344 38.117188 87.109375 37.546875 C 86.441406 36.972656 86.820312 36.378906 86.570312 35.628906 C 86.320312 34.882812 85.550781 34.425781 85.636719 33.746094 C 85.6875 33.359375 85.535156 32.703125 85.269531 32.105469 C 85.023438 31.550781 84.449219 30.769531 84.972656 30.824219 C 85.460938 30.871094 85.984375 31.1875 86.304688 31.550781 "/></g><path style=" stroke:none;fill-rule:evenodd;fill:rgb(1.568604%,12.548828%,22.749329%);fill-opacity:1;" d="M 88.890625 28.535156 C 88.890625 28.535156 89.457031 29.539062 89.035156 29.800781 C 88.613281 30.058594 88.476562 29.707031 88.394531 29.359375 C 88.347656 29.164062 88.214844 28.6875 87.820312 28.25 C 87.523438 27.917969 86.976562 27.59375 86.066406 27.765625 C 86.261719 27.804688 86.5 27.878906 86.648438 27.960938 C 86.296875 28.675781 86.253906 30.15625 87.191406 30.582031 C 87.828125 30.875 88.628906 30.6875 88.867188 30.449219 C 89.058594 30.257812 89.273438 29.976562 89.582031 30.023438 C 89.792969 29.757812 89.859375 29.355469 89.703125 28.890625 C 89.753906 29.550781 89.601562 29.554688 89.4375 29.347656 C 89.308594 29.078125 89.117188 28.769531 88.890625 28.535156 "/><path style=" stroke:none;fill-rule:evenodd;fill:rgb(99.609375%,92.549133%,39.608765%);fill-opacity:1;" d="M 88.671875 30.289062 C 87.882812 30.109375 88.0625 28.351562 86.875 28.035156 C 86.667969 28.671875 86.667969 30.894531 88.671875 30.289062 "/><path style=" stroke:none;fill-rule:evenodd;fill:rgb(51.368713%,65.489197%,86.669922%);fill-opacity:1;" d="M 61.445312 50.226562 C 64.605469 48.628906 68.535156 48.5625 72.265625 49.855469 C 76.996094 51.5 76.886719 52.46875 75.082031 51.964844 C 73.492188 51.527344 67.679688 50.058594 61.699219 51.972656 C 60.113281 52.480469 59.035156 53.183594 58.109375 54.664062 C 57.6875 55.339844 57.554688 55.246094 57.769531 54.257812 C 58.167969 52.421875 59.867188 51.023438 61.445312 50.226562 "/><path style=" stroke:none;fill-rule:evenodd;fill:rgb(1.568604%,12.548828%,22.749329%);fill-opacity:1;" d="M 83.960938 25.613281 C 83.273438 25.160156 82.476562 24.339844 81.984375 23.636719 C 82.175781 24.070312 82.390625 24.496094 82.628906 24.921875 C 82.816406 25.257812 83.566406 25.96875 83.945312 26.214844 C 84.664062 26.679688 84.476562 25.953125 83.960938 25.613281 "/><path style=" stroke:none;fill-rule:evenodd;fill:rgb(98.429871%,78.039551%,2.749634%);fill-opacity:1;" d="M 92.566406 36.019531 C 92.558594 35.789062 92.441406 35.582031 92.335938 35.328125 C 92.230469 35.078125 92.472656 34.722656 92.628906 35.035156 C 92.789062 35.351562 92.746094 35.800781 92.566406 36.019531 "/><path style=" stroke:none;fill-rule:evenodd;fill:rgb(6.669617%,43.919373%,72.158813%);fill-opacity:1;" d="M 5.453125 11.777344 C 5.453125 11.777344 20.925781 15.363281 15.964844 28.621094 C 22.503906 28.886719 35.132812 33.71875 32.28125 42.210938 C 36.484375 41.429688 50.203125 39.492188 49.980469 47.296875 C 55.804688 41.664062 61.085938 41.191406 66.207031 46.339844 C 66.207031 46.339844 64.402344 42.796875 63.726562 35.207031 C 63.054688 27.621094 65.914062 20.367188 65.914062 20.367188 C 65.914062 20.367188 53.46875 14.945312 37.996094 13.027344 C 22.523438 11.113281 5.453125 11.777344 5.453125 11.777344 "/><path style=" stroke:none;fill-rule:evenodd;fill:rgb(1.568604%,12.548828%,22.749329%);fill-opacity:1;" d="M 6.867188 12.203125 C 19.910156 12.609375 42.042969 13.753906 62.277344 20.40625 C 63.628906 20.851562 64.160156 21.367188 62.222656 21.695312 C 61.484375 21.820312 60.316406 21.972656 58.851562 22.035156 C 53.339844 22.035156 35.203125 22.230469 15.976562 28.59375 L 15.964844 28.621094 C 16.449219 28.640625 16.96875 28.6875 17.507812 28.753906 C 35.707031 25.890625 40.265625 24.785156 59.1875 24.535156 C 64.695312 24.460938 61.835938 25.828125 60.867188 26.453125 C 59.28125 27.320312 42.296875 34.515625 32.34375 42.199219 C 32.71875 42.128906 33.167969 42.050781 33.671875 41.976562 C 38.007812 39.710938 46.28125 35.476562 53.113281 32.410156 C 55.785156 31.210938 58.027344 30.363281 59.945312 29.703125 C 62.683594 28.765625 62.734375 30.070312 60.53125 32.457031 C 58.101562 34.949219 53.058594 40.671875 49.980469 47.296875 C 50.410156 46.882812 50.835938 46.496094 51.257812 46.136719 C 54.496094 41.710938 58.125 37.125 61.078125 35.457031 C 62.671875 34.5625 62.296875 38.042969 63.308594 41.710938 C 63.617188 42.835938 64.28125 44.0625 65.019531 45.246094 C 65.417969 45.578125 65.8125 45.941406 66.207031 46.339844 C 66.207031 46.339844 64.402344 42.796875 63.726562 35.207031 C 63.054688 27.621094 65.914062 20.367188 65.914062 20.367188 C 65.914062 20.367188 53.46875 14.945312 37.996094 13.027344 C 22.523438 11.113281 5.453125 11.777344 5.453125 11.777344 C 5.453125 11.777344 6.007812 11.90625 6.867188 12.203125 "/><path style=" stroke:none;fill-rule:evenodd;fill:rgb(5.099487%,34.899902%,58.039856%);fill-opacity:1;" d="M 74.238281 51.800781 C 73.109375 50.96875 70.308594 50.058594 67.421875 44.734375 C 65.855469 41.84375 64.253906 37.832031 64.402344 32.207031 C 64.574219 25.578125 66.03125 22.679688 67.679688 21.558594 C 70.011719 19.976562 71.96875 22.199219 72.386719 23.410156 C 72.265625 21.425781 71.546875 19.617188 67.679688 18.449219 C 63.8125 17.28125 35.894531 8.109375 2.261719 11.945312 C 2.261719 11.945312 37.835938 11.265625 62.972656 20.117188 C 64.824219 20.769531 64.570312 22.035156 58.851562 22.035156 C 53.132812 22.035156 33.960938 22.035156 13.949219 29.121094 C 34.464844 25.703125 39.679688 24.117188 59.605469 24.117188 C 65.492188 24.117188 62.550781 25.535156 60.867188 26.453125 C 59.1875 27.371094 40.4375 34.957031 30.851562 43.128906 C 30.851562 43.128906 51.222656 31.945312 60.152344 29.164062 C 63.097656 28.246094 63.054688 29.871094 60.53125 32.457031 C 58.011719 35.039062 52.125 41.378906 49.179688 48.632812 C 53.046875 43.378906 57.488281 36.839844 61.121094 34.875 C 62.972656 33.875 62.46875 37.957031 63.476562 41.628906 C 64.484375 45.296875 69.109375 50.132812 67.847656 50.964844 C 65.015625 52.835938 78.160156 54.6875 74.238281 51.800781 "/><path style=" stroke:none;fill-rule:evenodd;fill:rgb(51.368713%,65.489197%,86.669922%);fill-opacity:1;" d="M 76.347656 38.652344 C 76.808594 39.660156 77.894531 41.128906 80.082031 42.898438 C 83.238281 45.453125 85.40625 46.726562 86.625 49.914062 C 86.820312 50.417969 87.089844 51.332031 87.097656 52.398438 C 87.113281 54.871094 85.90625 50.359375 83.753906 48.359375 C 80.535156 45.367188 77.25 42.914062 76.179688 39.703125 C 75.988281 39.125 75.769531 38.191406 75.84375 37.839844 C 75.914062 37.507812 75.96875 37.820312 76.347656 38.652344 "/><path style=" stroke:none;fill-rule:evenodd;fill:rgb(5.099487%,34.899902%,58.039856%);fill-opacity:1;" d="M 84.414062 26.453125 C 82.984375 25.371094 78.949219 21.410156 78.609375 14.988281 C 77.777344 18.867188 79.125 24.574219 82.773438 27.828125 C 83.761719 28.710938 84.414062 26.453125 84.414062 26.453125 "/><path style=" stroke:none;fill-rule:evenodd;fill:rgb(51.368713%,65.489197%,86.669922%);fill-opacity:1;" d="M 83.304688 25.683594 C 83.027344 25.417969 82.738281 25.152344 82.542969 24.945312 C 82.097656 24.476562 81.558594 23.832031 81.082031 23.046875 C 80.050781 21.351562 79.597656 20.171875 79.441406 19.671875 C 79.335938 19.324219 79.21875 19.265625 79.34375 19.929688 C 79.578125 21.179688 80.179688 22.40625 80.804688 23.4375 C 81.476562 24.550781 82.664062 26.007812 83.71875 26.777344 C 84.003906 26.984375 84.027344 26.597656 83.722656 26.117188 C 83.632812 25.976562 83.414062 25.789062 83.304688 25.683594 "/><path style=" stroke:none;fill-rule:evenodd;fill:rgb(51.368713%,65.489197%,86.669922%);fill-opacity:1;" d="M 86.996094 27.582031 C 86.996094 27.582031 87.871094 27.75 88.175781 28.429688 C 88.476562 29.109375 88.53125 29.515625 88.804688 29.515625 C 89.078125 29.515625 89.035156 29.058594 88.824219 28.597656 C 88.613281 28.136719 88.089844 27.425781 87.007812 27.40625 C 85.925781 27.386719 86.859375 27.574219 86.996094 27.582031 "/><path style=" stroke:none;fill-rule:evenodd;fill:rgb(51.368713%,65.489197%,86.669922%);fill-opacity:1;" d="M 89.59375 30.550781 C 89.472656 30.09375 89.210938 30.378906 89.234375 30.699219 C 89.273438 31.195312 89.414062 31.8125 89.894531 32.261719 C 90.34375 32.683594 90.53125 32.894531 90.726562 33.207031 C 90.882812 33.449219 90.921875 33.652344 90.882812 33.746094 C 90.839844 33.839844 90.75 33.699219 90.605469 33.613281 C 90.441406 33.511719 90.382812 33.492188 89.5625 33.195312 C 88.742188 32.898438 87.804688 32.351562 87.269531 31.722656 C 86.734375 31.097656 86.40625 30.773438 85.523438 30.574219 C 84.640625 30.375 84.238281 30.695312 84.734375 30.679688 C 85.578125 30.644531 86.15625 30.949219 86.878906 31.910156 C 87.605469 32.871094 88.257812 33.078125 89.457031 33.4375 C 90.207031 33.664062 90.511719 33.871094 90.644531 34.027344 C 91.054688 34.488281 91 35.070312 91.753906 35.355469 C 92.050781 35.46875 92.113281 35.460938 92.097656 35.261719 C 92.085938 35.09375 92.132812 34.875 92.296875 34.761719 C 92.320312 34.75 92.347656 34.730469 92.378906 34.71875 C 92.503906 34.664062 92.324219 34.261719 92.113281 33.875 C 91.90625 33.488281 91.328125 32.695312 91.09375 32.464844 C 90.597656 31.96875 89.714844 31.007812 89.59375 30.550781 "/><path style=" stroke:none;fill-rule:evenodd;fill:rgb(51.368713%,65.489197%,86.669922%);fill-opacity:1;" d="M 84.933594 24.9375 C 84.5 24.5 84.179688 24.183594 83.847656 23.730469 C 83.449219 23.191406 82.914062 22.363281 82.496094 21.363281 C 81.738281 19.527344 81.46875 18.292969 81.390625 17.777344 C 81.335938 17.421875 81.242188 17.34375 81.292969 18.019531 C 81.394531 19.371094 81.796875 20.539062 82.253906 21.652344 C 82.832031 23.054688 83.339844 23.703125 83.582031 23.976562 C 84.269531 24.742188 85.183594 25.191406 84.933594 24.9375 "/><path style=" stroke:none;fill-rule:evenodd;fill:rgb(51.368713%,65.489197%,86.669922%);fill-opacity:1;" d="M 78.753906 25.574219 C 77.527344 25.914062 75.433594 26.882812 73.984375 28.828125 C 72.613281 30.65625 72.175781 31.832031 72.03125 32.425781 C 71.929688 32.832031 71.957031 33.136719 72.28125 32.757812 C 73.203125 31.675781 73.917969 29.746094 76.484375 28.074219 C 79.050781 26.402344 80.378906 26.894531 80.003906 26.152344 C 79.777344 25.695312 79.480469 25.375 78.753906 25.574219 "/><path style=" stroke:none;fill-rule:evenodd;fill:rgb(51.368713%,65.489197%,86.669922%);fill-opacity:1;" d="M 85.082031 27.332031 C 84.914062 27.273438 84.652344 27.3125 84.378906 27.511719 C 84.105469 27.707031 83.527344 27.804688 82.886719 27.65625 C 82.433594 27.554688 81.671875 28.320312 81.167969 29.078125 C 80.660156 29.84375 80.492188 30.65625 80.636719 31.464844 C 80.691406 31.769531 80.804688 32.027344 80.941406 32.214844 C 81.234375 32.613281 80.953125 31.011719 81.65625 30.121094 C 82.359375 29.234375 82.925781 29.390625 83.402344 29.390625 C 83.875 29.390625 84.011719 29.214844 84.304688 28.480469 C 84.546875 27.875 84.839844 27.699219 85.082031 27.59375 C 85.324219 27.488281 85.386719 27.4375 85.082031 27.332031 "/><path style=" stroke:none;fill-rule:evenodd;fill:rgb(51.368713%,65.489197%,86.669922%);fill-opacity:1;" d="M 27.066406 11.601562 C 30.511719 11.765625 34.046875 12.078125 37.386719 12.488281 C 45.542969 13.488281 55.425781 15.199219 68.207031 19.117188 C 68.207031 19.117188 69.074219 19.382812 69.847656 19.855469 C 70.789062 20.429688 71.242188 20.917969 70.015625 20.414062 C 69.65625 20.269531 68.808594 20.289062 68.246094 20.429688 C 66.820312 20.785156 66.882812 19.738281 62.300781 18.273438 C 60.480469 17.6875 58.136719 17.242188 56.160156 16.78125 C 41.644531 13.40625 35.582031 12.738281 30.554688 12.320312 C 29.378906 12.222656 28.082031 12.097656 26.789062 12.003906 C 20.621094 11.566406 19.910156 11.332031 22.160156 11.375 C 23.183594 11.394531 23.65625 11.441406 27.066406 11.601562 "/><path style=" stroke:none;fill-rule:evenodd;fill:rgb(51.368713%,65.489197%,86.669922%);fill-opacity:1;" d="M 87.75 39.148438 C 87.847656 39.078125 87.828125 38.632812 87.585938 38.285156 C 87.34375 37.933594 86.847656 37.597656 86.691406 37.253906 C 86.535156 36.90625 86.554688 36.144531 86.492188 35.875 C 86.429688 35.601562 85.703125 34.648438 85.597656 34.335938 C 85.492188 34.023438 85.511719 33.457031 85.429688 33.101562 C 85.34375 32.746094 85.136719 32.109375 85.144531 32.425781 C 85.15625 32.738281 85.304688 33.101562 85.324219 33.8125 C 85.34375 34.523438 85.441406 34.679688 85.765625 35.027344 C 86.09375 35.371094 86.449219 35.683594 86.398438 36.5 C 86.34375 37.316406 86.664062 37.566406 87.039062 37.871094 C 87.410156 38.171875 87.648438 38.402344 87.613281 38.800781 C 87.589844 39.023438 87.601562 39.261719 87.75 39.148438 "/><path style=" stroke:none;fill-rule:evenodd;fill:rgb(51.368713%,65.489197%,86.669922%);fill-opacity:1;" d="M 13.875 15.355469 C 15.058594 16.46875 16.296875 17.9375 17.035156 19.816406 C 17.636719 21.355469 17.527344 21.878906 19.144531 21.882812 C 19.683594 21.882812 19.699219 21.765625 20.714844 21.667969 C 21 21.644531 21.660156 21.90625 22.328125 21.648438 C 22.539062 21.566406 22.152344 20.355469 22.386719 20.335938 C 22.625 20.3125 23.503906 21.476562 23.746094 21.519531 C 24.472656 21.65625 24.457031 21.246094 24.847656 21.210938 C 25.117188 21.191406 25.175781 21.5 25.703125 21.351562 C 25.929688 21.289062 25.882812 20.730469 26.121094 20.707031 C 26.363281 20.6875 26.902344 21.195312 27.148438 21.234375 C 28.074219 21.382812 28.363281 20.773438 28.921875 20.734375 C 29.550781 20.6875 29.949219 21.160156 30.714844 20.96875 C 31.214844 20.839844 30.089844 19.28125 30.355469 19.261719 C 30.566406 19.246094 31.453125 20.566406 32.144531 20.871094 C 32.597656 21.070312 32.816406 20.742188 33.15625 20.722656 C 33.496094 20.699219 33.839844 20.761719 34.183594 20.742188 C 34.4375 20.726562 34.269531 20.105469 34.523438 20.089844 C 34.722656 20.078125 35.246094 20.496094 35.433594 20.558594 C 35.929688 20.726562 36.304688 20.710938 36.683594 20.601562 C 36.980469 20.515625 36.359375 19.496094 36.546875 19.484375 C 36.785156 19.472656 37.28125 20.46875 37.960938 20.535156 C 38.289062 20.570312 38.5 20.394531 38.777344 20.382812 C 39.054688 20.371094 39.339844 20.472656 39.617188 20.460938 C 39.847656 20.453125 40.015625 20.316406 40.246094 20.308594 C 40.476562 20.296875 40.769531 20.414062 41.003906 20.40625 C 41.269531 20.394531 40.609375 19.027344 40.878906 19.019531 C 40.972656 19.015625 41.195312 19.28125 41.460938 19.578125 C 41.980469 20.167969 42.148438 20.375 42.914062 20.375 C 43.300781 20.375 43.339844 20.082031 43.582031 20.074219 C 43.84375 20.058594 43.964844 20.335938 44.507812 20.308594 C 44.609375 20.304688 44.714844 20.300781 44.824219 20.296875 C 45.378906 20.269531 45.214844 19.710938 45.355469 19.710938 C 45.542969 19.707031 45.972656 20.222656 46.402344 20.265625 C 46.828125 20.308594 46.761719 20.144531 47.03125 20.140625 C 47.242188 20.136719 47.628906 20.25 47.835938 20.25 C 48.125 20.25 47.65625 19.285156 47.941406 19.285156 C 48.164062 19.285156 48.695312 20.109375 49.367188 20.246094 C 49.710938 20.320312 49.714844 20.15625 49.933594 20.15625 C 50.105469 20.160156 50.371094 20.253906 50.542969 20.253906 C 50.769531 20.257812 50.644531 19.800781 50.882812 19.808594 C 51.066406 19.808594 51.414062 20.273438 51.804688 20.28125 C 52.023438 20.28125 52.121094 20.144531 52.34375 20.152344 C 52.539062 20.15625 52.863281 20.3125 53.058594 20.316406 C 53.265625 20.324219 53.183594 19.847656 53.386719 19.855469 C 53.59375 19.863281 54.101562 20.300781 54.292969 20.355469 C 54.609375 20.441406 54.734375 20.417969 54.917969 20.367188 C 55.113281 20.316406 54.773438 19.808594 54.964844 19.8125 C 55.15625 19.8125 55.675781 20.378906 56.0625 20.378906 C 56.296875 20.375 56.328125 20.269531 56.523438 20.261719 C 56.71875 20.25 57.082031 20.34375 57.230469 20.328125 C 58.074219 20.226562 58.0625 19.929688 56.34375 19.359375 C 55.933594 19.222656 55.671875 19.183594 55.066406 18.984375 C 54.808594 18.894531 54.886719 19.289062 54.757812 19.253906 C 54.332031 19.136719 54.160156 18.6875 53.429688 18.554688 C 53.238281 18.519531 53.335938 18.957031 53.132812 18.902344 C 52.960938 18.859375 51.773438 17.707031 51.613281 18.28125 C 51.578125 18.398438 51.65625 18.769531 51.621094 18.761719 C 51.375 18.703125 50.707031 17.867188 50.464844 17.808594 C 50.257812 17.761719 50.136719 17.929688 49.945312 17.886719 C 49.753906 17.84375 49.605469 17.582031 49.289062 17.53125 C 49.070312 17.496094 49.371094 18.246094 49.265625 18.222656 C 49.132812 18.195312 48.648438 17.390625 48.515625 17.359375 C 48.394531 17.332031 48.292969 17.429688 48.195312 17.410156 C 48.007812 17.371094 47.957031 17.234375 47.800781 17.199219 C 47.558594 17.148438 47.632812 17.585938 47.535156 17.566406 C 47.410156 17.539062 47.152344 17.066406 47.027344 17.039062 C 46.820312 16.996094 46.648438 17.210938 46.453125 17.171875 C 46.246094 17.125 46.265625 16.898438 45.910156 16.8125 C 45.742188 16.773438 45.710938 17.003906 45.625 16.984375 C 45.371094 16.9375 45.289062 16.648438 44.726562 16.566406 C 44.460938 16.527344 44.53125 17.085938 44.394531 17.058594 C 44.257812 17.035156 43.902344 16.425781 43.765625 16.398438 C 43.46875 16.347656 43.226562 16.535156 42.933594 16.480469 C 42.554688 16.414062 42.542969 16.21875 41.921875 16.082031 C 41.484375 15.984375 41.847656 16.972656 41.6875 16.945312 C 41.484375 16.914062 41.015625 15.933594 40.539062 15.847656 C 40.066406 15.761719 39.867188 16.136719 39.792969 16.125 C 39.558594 16.089844 39.429688 15.667969 39.03125 15.609375 C 38.558594 15.535156 38.65625 16.050781 38.484375 16.023438 C 38.285156 15.996094 37.960938 15.457031 37.625 15.394531 C 37.367188 15.347656 37.160156 15.53125 36.898438 15.492188 C 36.59375 15.453125 36.128906 15.097656 35.898438 15.160156 C 35.660156 15.222656 36.039062 16.390625 35.796875 16.359375 C 35.554688 16.328125 35.015625 15.101562 34.4375 14.96875 C 34.097656 14.890625 33.722656 15.109375 33.375 15.070312 C 33.007812 15.023438 33.039062 14.71875 32.355469 14.695312 C 31.855469 14.683594 32.175781 15.59375 31.9375 15.566406 C 31.394531 15.503906 31.261719 14.527344 30.34375 14.476562 C 30.117188 14.464844 29.964844 14.6875 29.824219 14.671875 C 29.640625 14.652344 29.4375 14.414062 29.046875 14.375 C 28.738281 14.34375 28.597656 14.539062 28.292969 14.507812 C 28.003906 14.480469 27.753906 14.242188 27.46875 14.195312 C 27.082031 14.132812 26.894531 14.402344 26.957031 14.726562 C 27.015625 15.054688 27.222656 15.496094 26.976562 15.429688 C 26.75 15.363281 26.011719 14.109375 25.40625 14.003906 C 25.160156 13.960938 24.960938 14.109375 24.710938 14.085938 C 24.460938 14.066406 24.160156 13.875 23.910156 13.875 C 23.261719 13.878906 24.652344 15.988281 24.308594 15.960938 C 23.964844 15.933594 22.566406 13.878906 21.847656 13.710938 C 21.25 13.574219 21.152344 13.925781 20.78125 13.898438 C 20.363281 13.867188 20.019531 13.441406 19.488281 13.535156 C 19.144531 13.597656 19.96875 14.570312 19.625 14.546875 C 19.277344 14.523438 18.269531 13.511719 17.40625 13.394531 C 17.144531 13.359375 16.945312 13.550781 16.683594 13.53125 C 16.476562 13.519531 16.210938 13.316406 16.007812 13.304688 C 15.542969 13.273438 15.625 13.871094 15.164062 13.84375 C 14.902344 13.828125 14.617188 13.269531 13.886719 13.175781 C 13.324219 13.105469 13.328125 13.433594 13.015625 13.429688 C 12.613281 13.425781 12.0625 13.140625 11.84375 13.164062 C 10.464844 13.308594 12.46875 14.039062 13.875 15.355469 "/><path style=" stroke:none;fill-rule:evenodd;fill:rgb(51.368713%,65.489197%,86.669922%);fill-opacity:1;" d="M 53.984375 25.347656 C 53.871094 25.351562 53.894531 25.46875 53.785156 25.472656 C 53.695312 25.476562 53.585938 25.363281 53.382812 25.375 C 53.121094 25.386719 53.429688 25.910156 53.234375 25.917969 C 52.976562 25.929688 52.273438 25.417969 52.015625 25.429688 C 51.675781 25.441406 51.878906 25.75 51.53125 25.761719 C 51.257812 25.773438 50.863281 25.480469 50.367188 25.484375 C 49.800781 25.492188 50.597656 26.214844 50.402344 26.222656 C 50.207031 26.230469 49.191406 25.550781 48.996094 25.558594 C 48.554688 25.582031 48.691406 25.960938 48.234375 25.984375 C 47.773438 26.007812 47.300781 25.550781 46.449219 25.710938 C 45.890625 25.816406 46.558594 26.582031 46.285156 26.597656 C 46.074219 26.613281 45.375 25.84375 44.777344 25.804688 C 44.371094 25.78125 44.484375 26.023438 44.21875 26.042969 C 43.953125 26.0625 43.597656 25.832031 43.175781 25.925781 C 42.875 25.996094 43.835938 27.148438 43.515625 27.175781 C 43.199219 27.203125 42.265625 26.222656 41.265625 26.089844 C 40.960938 26.050781 41.058594 26.25 40.871094 26.269531 C 40.6875 26.285156 40.363281 26.066406 40.15625 26.199219 C 40.027344 26.28125 40.183594 26.605469 40.03125 26.621094 C 39.875 26.636719 39.382812 26.277344 39.230469 26.292969 C 39.09375 26.304688 39.628906 27.167969 39.492188 27.183594 C 39.355469 27.199219 38.542969 26.367188 38.40625 26.382812 C 38.207031 26.402344 38.199219 26.71875 38 26.742188 C 37.800781 26.765625 37.410156 26.496094 37.207031 26.519531 C 37.019531 26.542969 37.128906 26.710938 36.9375 26.734375 C 36.742188 26.757812 36.253906 26.46875 36.195312 26.777344 C 36.160156 26.960938 36.808594 27.503906 36.621094 27.527344 C 36.519531 27.542969 36.101562 27.332031 35.699219 27.132812 C 34.941406 26.761719 34.648438 26.785156 34.269531 26.902344 C 34.097656 26.957031 33.867188 27.296875 33.6875 27.324219 C 33.457031 27.355469 32.867188 27.097656 32.632812 27.132812 C 32.507812 27.152344 32.601562 27.402344 32.472656 27.421875 C 32.34375 27.441406 31.996094 27.230469 31.867188 27.25 C 31.664062 27.28125 31.878906 27.648438 31.675781 27.679688 C 31.484375 27.710938 30.867188 27.40625 30.671875 27.4375 C 30.390625 27.484375 30.472656 27.710938 30.183594 27.757812 C 29.914062 27.800781 29.117188 27.429688 29 27.71875 C 28.9375 27.875 29.785156 28.539062 29.601562 28.570312 C 29.417969 28.597656 28.101562 27.863281 27.902344 27.894531 C 27.664062 27.929688 27.84375 28.265625 27.601562 28.304688 C 27.359375 28.347656 26.753906 28.089844 26.449219 28.140625 C 25.828125 28.242188 28.265625 29.4375 27.96875 29.539062 C 27.761719 29.605469 27.214844 29.429688 26.617188 29.199219 C 25.304688 28.691406 24.496094 28.167969 23.097656 28.734375 C 22.613281 28.933594 22.519531 29.300781 24.089844 29.859375 C 26.320312 30.648438 29.09375 32.160156 30.945312 34.175781 C 31.640625 34.933594 32 35.265625 32.734375 35.210938 C 32.96875 35.195312 33.042969 34.882812 33.402344 34.746094 C 33.6875 34.640625 34.027344 34.839844 34.621094 34.542969 C 34.902344 34.40625 34.179688 33.125 34.464844 32.988281 C 34.746094 32.855469 35.785156 33.792969 36.324219 33.746094 C 36.839844 33.703125 36.578125 33.4375 36.742188 33.363281 C 36.957031 33.269531 37.242188 33.328125 37.453125 33.238281 C 37.628906 33.15625 37.28125 32.429688 37.457031 32.355469 C 37.632812 32.277344 38.121094 32.753906 38.507812 32.773438 C 39.242188 32.8125 38.847656 32.238281 39.113281 32.128906 C 39.378906 32.015625 39.765625 32.246094 40.03125 32.136719 C 40.175781 32.074219 39.988281 31.511719 40.132812 31.453125 C 40.320312 31.375 40.714844 31.667969 41.238281 31.625 C 41.699219 31.582031 41.582031 31.359375 41.207031 30.742188 C 41 30.40625 40.804688 30.078125 40.871094 30.050781 C 40.980469 30.007812 42 30.976562 42.589844 31.027344 C 43.125 31.078125 42.964844 30.816406 43.179688 30.734375 C 43.394531 30.648438 43.632812 30.691406 43.847656 30.609375 C 44.082031 30.519531 43.617188 29.703125 43.847656 29.613281 C 44.078125 29.527344 44.628906 30.039062 45.234375 30.089844 C 45.992188 30.152344 45.984375 29.539062 46.292969 29.425781 C 46.742188 29.261719 47.054688 29.445312 47.5 29.289062 C 47.726562 29.207031 47.40625 28.5 47.632812 28.421875 C 47.855469 28.339844 48.332031 28.800781 48.855469 28.789062 C 49.675781 28.769531 49.433594 28.367188 49.761719 28.253906 C 50.132812 28.125 50.386719 28.28125 50.949219 28.09375 C 51.167969 28.015625 50.761719 27.210938 50.984375 27.132812 C 51.207031 27.058594 51.753906 27.601562 52.28125 27.621094 C 52.992188 27.648438 52.824219 27.15625 53.140625 27.050781 C 53.480469 26.9375 53.894531 27.113281 54.238281 27 C 54.488281 26.917969 54.222656 26.460938 54.445312 26.382812 C 54.621094 26.324219 55.304688 26.558594 55.46875 26.546875 C 55.949219 26.507812 55.839844 26.207031 56.078125 26.121094 C 56.398438 26 56.847656 26.039062 57.070312 25.945312 C 58.054688 25.523438 58.054688 25.324219 57.058594 25.292969 C 56.371094 25.273438 56.320312 25.46875 56.035156 25.480469 C 55.730469 25.496094 55.527344 25.292969 55.132812 25.304688 C 54.957031 25.308594 54.953125 25.609375 54.761719 25.617188 C 54.570312 25.625 54.191406 25.339844 53.984375 25.347656 "/><path style=" stroke:none;fill-rule:evenodd;fill:rgb(51.368713%,65.489197%,86.669922%);fill-opacity:1;" d="M 55.660156 32.097656 C 55.539062 32.148438 55.542969 32.246094 55.421875 32.296875 C 55.300781 32.351562 55.125 32.308594 54.921875 32.421875 C 54.699219 32.539062 55.113281 32.78125 55.011719 32.828125 C 54.835938 32.902344 54.257812 32.710938 54.078125 32.789062 C 53.953125 32.84375 53.988281 32.953125 53.859375 33.007812 C 53.699219 33.078125 53.375 33.101562 53.207031 33.175781 C 53.03125 33.253906 53.027344 33.417969 52.839844 33.503906 C 52.628906 33.597656 52.332031 33.550781 52.125 33.664062 C 51.785156 33.851562 52.835938 34.226562 52.671875 34.300781 C 52.511719 34.375 51.210938 34.074219 51.042969 34.148438 C 50.859375 34.234375 50.96875 34.484375 50.78125 34.570312 C 50.589844 34.660156 50.105469 34.578125 49.910156 34.667969 C 49.707031 34.761719 49.796875 34.984375 49.585938 35.078125 C 49.320312 35.203125 48.753906 35.207031 48.476562 35.335938 C 48.257812 35.4375 48.414062 35.6875 48.191406 35.792969 C 47.96875 35.898438 47.363281 35.859375 47.136719 35.96875 C 46.953125 36.054688 48.089844 36.519531 47.902344 36.609375 C 47.664062 36.722656 46.09375 36.464844 45.851562 36.582031 C 45.59375 36.707031 45.964844 36.957031 45.707031 37.082031 C 45.445312 37.210938 44.550781 37.210938 44.285156 37.34375 C 43.996094 37.484375 45.449219 37.757812 45.15625 37.902344 C 44.925781 38.019531 42.953125 38.011719 42.71875 38.128906 C 42.519531 38.230469 42.738281 38.398438 42.53125 38.503906 C 42.328125 38.605469 41.703125 38.648438 41.496094 38.753906 C 41.058594 38.976562 41.207031 39.203125 40.757812 39.429688 C 40.546875 39.535156 40.054688 39.636719 39.667969 39.742188 C 39.488281 39.792969 40.25 40.148438 40.140625 40.160156 C 39.203125 40.246094 38.753906 40.21875 38.304688 40.417969 C 37.753906 40.660156 37.492188 41.066406 38.15625 41.015625 C 40.90625 40.8125 43.644531 40.957031 45.644531 41.542969 C 46.90625 41.914062 47.363281 41.960938 47.757812 41.6875 C 47.898438 41.585938 47.675781 41.34375 47.835938 41.160156 C 47.910156 41.078125 48.34375 41.09375 48.433594 40.992188 C 48.859375 40.507812 46.867188 40.125 47.339844 39.96875 C 47.816406 39.8125 48.976562 40.320312 49.273438 40.015625 C 49.394531 39.894531 49.3125 39.789062 49.355469 39.738281 C 49.429688 39.652344 49.5625 39.679688 49.644531 39.601562 C 49.894531 39.359375 49.308594 39.09375 49.421875 38.96875 C 49.535156 38.84375 50.214844 38.972656 50.328125 38.847656 C 50.398438 38.777344 50.402344 38.617188 50.472656 38.546875 C 50.578125 38.429688 50.75 38.484375 50.859375 38.285156 C 50.9375 38.140625 50.453125 37.773438 50.570312 37.65625 C 50.683594 37.535156 51.429688 37.6875 51.542969 37.570312 C 51.695312 37.414062 51.597656 36.988281 51.753906 36.832031 C 51.90625 36.679688 52.3125 36.796875 52.46875 36.644531 C 52.5625 36.550781 51.671875 36.101562 51.765625 36.011719 C 51.859375 35.917969 52.796875 36.261719 53.125 36.054688 C 53.246094 35.980469 53.21875 35.777344 53.355469 35.664062 C 53.511719 35.53125 53.734375 35.496094 53.855469 35.382812 C 53.992188 35.257812 53.953125 35.027344 54.0625 34.914062 C 54.199219 34.769531 54.46875 34.835938 54.625 34.628906 C 54.816406 34.371094 54.0625 33.953125 54.207031 33.824219 C 54.320312 33.726562 55.066406 34.015625 55.429688 33.90625 C 55.6875 33.824219 55.570312 33.644531 55.683594 33.546875 C 55.828125 33.421875 56.113281 33.476562 56.207031 33.238281 C 56.246094 33.132812 55.894531 32.90625 55.972656 32.839844 C 56.050781 32.769531 56.417969 32.921875 56.683594 32.828125 C 56.921875 32.742188 56.746094 32.601562 56.816406 32.535156 C 56.890625 32.472656 57.054688 32.492188 57.113281 32.429688 C 58.222656 31.371094 57.863281 31.171875 56.589844 31.71875 C 56.46875 31.769531 56.355469 31.980469 56.222656 32.035156 C 56.050781 32.105469 55.855469 32.019531 55.660156 32.097656 "/><path style=" stroke:none;fill-rule:evenodd;fill:rgb(51.368713%,65.489197%,86.669922%);fill-opacity:1;" d="M 56.292969 40.777344 C 56.410156 40.625 57.628906 40.421875 57.753906 40.265625 C 57.882812 40.105469 56.921875 39.992188 57.058594 39.832031 C 57.195312 39.667969 57.78125 39.628906 57.929688 39.46875 C 58.074219 39.308594 57.785156 39.019531 57.933594 38.867188 C 58.074219 38.71875 58.574219 38.660156 58.71875 38.523438 C 58.828125 38.417969 58.582031 38.226562 58.695312 38.125 C 59.886719 37.042969 60.289062 36.746094 59.320312 38.90625 C 59.246094 39.070312 58.792969 39.179688 58.726562 39.355469 C 58.671875 39.492188 58.996094 39.695312 58.945312 39.835938 C 58.894531 39.984375 58.84375 40.132812 58.796875 40.285156 C 58.734375 40.496094 58.105469 40.683594 58.039062 40.847656 C 57.957031 41.054688 58.441406 41.230469 58.347656 41.378906 C 58.03125 41.878906 57.625 42.066406 56.929688 42.269531 C 54.953125 42.855469 54.445312 43.042969 55.132812 42.234375 C 55.25 42.09375 55.960938 41.863281 56.125 41.664062 C 56.25 41.511719 55.820312 41.394531 55.964844 41.195312 C 56.0625 41.0625 56.175781 40.925781 56.292969 40.777344 "/><path style=" stroke:none;fill-rule:evenodd;fill:rgb(5.099487%,34.899902%,58.039856%);fill-opacity:1;" d="M 70.195312 55.699219 C 70.195312 55.699219 67.003906 56.113281 66.222656 59.308594 C 65.441406 62.503906 64.644531 63.878906 59.808594 65.480469 C 59.980469 66.292969 60.402344 67.929688 61.757812 69.402344 C 62.320312 70.011719 61.824219 70.378906 62.453125 70.601562 C 63.011719 70.796875 63.769531 70.816406 65.105469 70.945312 C 65.800781 71.011719 66.574219 71.277344 66.785156 72.050781 C 66.273438 71.722656 65.535156 71.8125 64.792969 71.992188 C 65.445312 72.195312 66.464844 72.238281 66.773438 73.597656 C 66.066406 73.058594 65.382812 73.066406 64.71875 73.152344 C 64.980469 73.347656 65.609375 73.855469 65.550781 74.742188 C 64.785156 73.992188 63.632812 73.960938 62.746094 73.988281 C 61.394531 74.027344 60.167969 73.8125 59.738281 73.546875 C 59.292969 73.273438 58.96875 72.820312 59.132812 72.101562 C 59.246094 71.613281 59.101562 70.945312 58.992188 70.609375 C 58.726562 71.035156 58.21875 71 58.164062 71.664062 C 57.929688 71.136719 58.035156 70.796875 58.324219 70.167969 C 59.132812 68.421875 54.222656 65.488281 55.429688 64.800781 C 57.953125 63.363281 57 60.308594 57.40625 58.402344 C 57.964844 55.800781 59.441406 52.503906 63.101562 51.632812 C 70 49.984375 70.40625 54.195312 70.195312 55.699219 "/><path style=" stroke:none;fill-rule:evenodd;fill:rgb(5.099487%,34.899902%,58.039856%);fill-opacity:1;" d="M 84.007812 57.550781 C 83.722656 59.730469 82.875 60.289062 79.507812 64.078125 C 79.832031 65.367188 79.75 67.320312 80.679688 68.558594 C 81.539062 69.710938 80.597656 70.667969 83.074219 71.339844 C 84.109375 71.621094 85.160156 72.199219 85.078125 72.710938 C 85.375 73.125 85.632812 73.289062 85.605469 73.949219 C 85.089844 73.460938 83.90625 73.648438 82.75 73.398438 C 82.863281 73.578125 83.292969 74.101562 83.121094 74.582031 C 82.929688 74.332031 81.679688 73.863281 80.679688 73.894531 C 78.847656 73.953125 77.785156 73.292969 78.066406 71.324219 C 77.707031 71.5625 77.5625 71.753906 77.324219 72.367188 C 76.972656 72.082031 77.199219 70.714844 77.621094 69.992188 C 78.039062 69.273438 78.109375 68.777344 77.332031 67.550781 C 76.601562 66.40625 73.902344 64.050781 74.9375 62.984375 C 76.320312 61.558594 76.882812 58.144531 78.851562 56.15625 C 80.511719 54.480469 84.503906 53.757812 84.007812 57.550781 "/><path style=" stroke:none;fill-rule:evenodd;fill:rgb(51.368713%,65.489197%,86.669922%);fill-opacity:1;" d="M 75.949219 62.140625 C 75.949219 62.140625 76.777344 60.675781 77.097656 59.742188 C 77.421875 58.808594 78.425781 56.863281 79.339844 56.421875 C 80.253906 55.984375 81.90625 55.589844 82.820312 56.992188 C 83.734375 58.398438 82.40625 57.375 81.730469 57.402344 C 81.050781 57.429688 79.960938 57.722656 78.925781 58.980469 C 78.394531 59.628906 77.5 60.90625 76.761719 61.734375 C 76.066406 62.511719 75.492188 62.890625 75.949219 62.140625 "/><path style=" stroke:none;fill-rule:evenodd;fill:rgb(1.568604%,12.548828%,22.749329%);fill-opacity:1;" d="M 82.109375 72.808594 C 83.199219 73.175781 85.5 73.070312 85.605469 73.949219 C 85.089844 73.460938 83.90625 73.648438 82.75 73.398438 C 82.53125 73.136719 82.347656 72.996094 82.109375 72.808594 "/><path style=" stroke:none;fill-rule:evenodd;fill:rgb(1.568604%,12.548828%,22.749329%);fill-opacity:1;" d="M 85.082031 72.628906 C 85.082031 72.65625 85.082031 72.683594 85.078125 72.710938 C 84.691406 72.296875 84.113281 72.152344 83.785156 72.082031 C 84.101562 72 84.359375 72.035156 84.574219 72.132812 C 84.855469 72.261719 84.996094 72.460938 85.082031 72.628906 "/><path style=" stroke:none;fill-rule:evenodd;fill:rgb(1.568604%,12.548828%,22.749329%);fill-opacity:1;" d="M 80.808594 73.3125 C 81.695312 73.464844 82.867188 73.828125 83.121094 74.582031 C 82.929688 74.332031 81.679688 73.863281 80.679688 73.894531 C 78.847656 73.953125 77.785156 73.292969 78.066406 71.324219 C 77.707031 71.5625 77.5625 71.753906 77.324219 72.367188 C 77.25 71.800781 77.628906 70.949219 78.390625 70.632812 C 78.132812 73.183594 79.675781 73.117188 80.808594 73.3125 "/><path style=" stroke:none;fill-rule:evenodd;fill:rgb(1.568604%,12.548828%,22.749329%);fill-opacity:1;" d="M 63.261719 73.472656 C 64.390625 73.558594 65.253906 73.882812 65.550781 74.742188 C 64.785156 73.992188 63.632812 73.960938 62.746094 73.988281 C 61.394531 74.027344 60.167969 73.8125 59.738281 73.546875 C 59.292969 73.273438 58.96875 72.820312 59.132812 72.101562 C 59.246094 71.613281 59.101562 70.945312 58.992188 70.609375 C 58.726562 71.035156 58.21875 71 58.164062 71.664062 C 58.039062 70.746094 58.894531 70.628906 59.023438 69.976562 C 59.941406 71.109375 59.277344 72.285156 59.902344 72.898438 C 60.777344 73.761719 62.488281 73.410156 63.261719 73.472656 "/><path style=" stroke:none;fill-rule:evenodd;fill:rgb(1.568604%,12.548828%,22.749329%);fill-opacity:1;" d="M 66.773438 73.597656 C 66.066406 73.058594 65.382812 73.066406 64.71875 73.152344 C 64.507812 73.003906 64.234375 72.824219 63.828125 72.742188 C 64.390625 72.523438 66.316406 72.601562 66.773438 73.597656 "/><path style=" stroke:none;fill-rule:evenodd;fill:rgb(1.568604%,12.548828%,22.749329%);fill-opacity:1;" d="M 66.785156 72.050781 C 66.273438 71.722656 65.535156 71.8125 64.792969 71.992188 C 64.605469 71.945312 64.410156 71.910156 64.152344 71.871094 C 64.828125 71.585938 66.15625 71.226562 66.785156 72.050781 "/><path style=" stroke:none;fill-rule:evenodd;fill:rgb(1.568604%,12.548828%,22.749329%);fill-opacity:1;" d="M 42.039062 71.28125 C 42.171875 74.296875 43.207031 77.007812 46.785156 79.054688 C 57.125 84.964844 68.976562 72.851562 86.796875 81.160156 C 80.691406 77.855469 75.675781 76.15625 64.046875 78.265625 C 59.757812 79.039062 45.230469 83.058594 42.039062 71.28125 "/><path style=" stroke:none;fill-rule:evenodd;fill:rgb(51.368713%,65.489197%,86.669922%);fill-opacity:1;" d="M 80.105469 77.695312 C 78.453125 77.148438 76.40625 76.640625 73.972656 76.347656 C 68.871094 75.734375 60.320312 77.402344 57.992188 77.636719 C 55.660156 77.871094 51.789062 78.007812 49.46875 76.847656 C 49.222656 76.722656 48.59375 76.699219 49.96875 77.402344 C 51.914062 78.394531 54.839844 78.527344 58.125 78.132812 C 61.410156 77.738281 68.019531 76.53125 71.199219 76.613281 C 75.011719 76.710938 77.140625 76.992188 79.957031 77.847656 C 80.777344 78.101562 81.375 78.304688 81.757812 78.421875 C 82.027344 78.507812 81.992188 78.40625 81.8125 78.332031 C 81.65625 78.269531 80.976562 77.984375 80.105469 77.695312 "/><path style=" stroke:none;fill-rule:evenodd;fill:rgb(51.368713%,65.489197%,86.669922%);fill-opacity:1;" d="M 55.917969 53.085938 C 54.480469 53.929688 52.527344 55.160156 50.464844 56.96875 C 47.835938 59.269531 45.757812 61.722656 43.933594 65.214844 C 43.210938 66.601562 43.378906 66.808594 43.691406 66.410156 C 43.835938 66.222656 44.105469 65.800781 44.5 65.238281 C 45.894531 63.234375 47.878906 60.359375 51.621094 57.492188 C 54.09375 55.59375 55.492188 54.605469 56.632812 53.5 C 58.253906 51.921875 57.871094 51.941406 55.917969 53.085938 "/></g></svg>