<?xml version="1.0" encoding="utf-8"?>
<!-- Generator: Adobe Illustrator 23.0.2, SVG Export Plug-In . SVG Version: 6.00 Build 0)  -->
<svg version="1.1" id="Layer_1" xmlns="http://www.w3.org/2000/svg" xmlns:xlink="http://www.w3.org/1999/xlink" x="0px" y="0px"
	 viewBox="0 0 194.8526 299.969" enable-background="new 0 0 194.8526 299.969" xml:space="preserve">
<g>
	<path d="M158.9294,199.4468c-0.3398,5.8081-5.1611,10.3574-10.9746,10.3574c-0.2158,0-0.4326-0.0059-0.6504-0.0186
		c-5.0336-0.2951-9.077-3.9525-10.0975-8.6555h-0.3208l4.2096,51.6146c2.4487,10.668,5.8771,19.3105,10.6822,24.7081l1.2733-0.1777
		c14.4752-1.6835,41.8014,7.0546,41.8014,7.0546s-6.5917-121.7257-31.3333-152.817c-7.7922-9.792-13.4115-15.0585-17.1476-17.8948
		c-0.5317,1.1825-1.102,2.5286-1.6979,4.0486C156.5055,131.4239,161.301,158.8998,158.9294,199.4468z"/>
	<path d="M77.9843,178.6693c0.0836-8.3923-0.3036-16.0015-0.9921-22.8721c-0.1187,0.8448-0.2338,1.7061-0.3401,2.6037
		c-0.502,4.2314-3.4414,7.8247-7.4873,9.1553l-28.2411,9.2869l9.3271,100.5071c3.5381-0.33,6.8877-0.4063,9.7366-0.075
		l1.2733,0.1777c4.8051-5.3976,8.2334-14.0402,10.6822-24.7082L77.9843,178.6693z"/>
	<path d="M18.1859,284.3298c0,0,9.7431-3.1144,20.675-5.2664l-8.6478-93.1828C21.0782,230.9677,18.1859,284.3298,18.1859,284.3298z"
		/>
	<path d="M55.8152,148.7871c2.3576-13.7492,6.5661-24.1787,12.5479-31.124c-0.5954-1.5184-1.1653-2.8632-1.6965-4.0449
		c-3.7362,2.8364-9.3553,8.1029-17.1473,17.8946c-4.0691,5.1134-7.6443,12.6884-10.783,21.7601l0.1018,1.0972L55.8152,148.7871z"/>
	<path d="M128.0709,96.3912c0.1247,3.838,0.2916,7.3567,0.6429,10.3774l2.9565-0.623c-0.0426-0.3918-0.082-0.7936-0.1193-1.201
		c-0.3466-3.7852-0.474-8.1824-0.5886-12.1675c-0.0127-0.442-0.0259-0.885-0.0388-1.3278c-0.2561,0.153-0.5297,0.2849-0.8237,0.3916
		C129.5776,93.4459,128.8842,94.9604,128.0709,96.3912z"/>
	<path d="M84.3251,106.77c0.3515-3.0214,0.5184-6.5411,0.6429-10.3801c-0.813-1.4304-1.5063-2.9444-2.0287-4.549
		c-0.2943-0.1068-0.568-0.2389-0.8243-0.392c-0.0129,0.4429-0.0261,0.886-0.0388,1.3281c-0.1146,3.9851-0.242,8.3821-0.5886,12.1674
		c-0.0374,0.4079-0.0767,0.8102-0.1194,1.2026L84.3251,106.77z"/>
	<path d="M85.0775,75.169c0.353,0.1543,0.6889,0.354,1.0087,0.5942c0.6214-4.9387,1.6649-9.1918,3.5276-11.7806
		c7.4141-10.3032,15.7725-5.4253,16.1182-5.2168l0.7871,0.4849l0.7871-0.4844c0.3486-0.2158,8.6553-5.1577,16.1191,5.2163
		c1.863,2.5891,2.9065,6.8428,3.5278,11.7823c0.3231-0.2429,0.6631-0.4454,1.0214-0.6022c0.376-0.2017,0.9901-1.041,1.625-2.1402
		c-0.718-4.3995-1.8565-8.1757-3.7386-10.7918c-7.6699-10.6572-16.666-7.6514-19.3418-6.4219
		c-2.6748-1.2305-11.6709-4.2383-19.3408,6.4219c-1.8821,2.6158-3.0207,6.3915-3.7388,10.7904
		C84.0764,74.1219,84.6941,74.9637,85.0775,75.169z"/>
	<path d="M105.7828,63.7346l0.7305,0.7837l0.7373-0.7783c0.1924-0.2031,4.8105-4.8906,13.5029,2.5762l1.3027-1.5166
		c-8.168-7.0195-13.6436-4.4009-15.5371-3.0356c-1.8936-1.3652-7.3652-3.9858-15.5361,3.0356l1.3027,1.5166
		C100.9791,58.8503,105.5953,63.5363,105.7828,63.7346z"/>
	<path d="M136.7454,142.0372c3.138,10.3342,5.3975,27.5775,3.7153,56.329c-0.2422,4.1353,2.9141,7.6831,7.0488,7.9253
		c0.1494,0.0088,0.2979,0.0127,0.4453,0.0127c3.9414,0,7.2471-3.0762,7.4805-7.062c2.2949-39.2367-2.0974-65.7277-13.0552-78.8683
		C140.4193,125.8868,138.3555,133.1006,136.7454,142.0372z"/>
	<path d="M73.3062,291.5682c1.5355,4.5291,5.6367,7.9463,10.7054,8.3595c4.4014,0.3585,8.4429-1.6418,10.9059-4.9359
		C88.4778,294.3911,80.415,293.3492,73.3062,291.5682z"/>
	<path d="M118.1213,294.9918c2.463,3.2941,6.5045,5.2944,10.9059,4.9359c5.0687-0.4132,9.17-3.8304,10.7055-8.3596
		C132.6239,293.3492,124.561,294.3911,118.1213,294.9918z"/>
	<path d="M131.866,182.6304h-19.7534c-0.1851,0.54-0.4447,1.0443-0.7689,1.501l2.1946,2.1946l-1.4142,1.4142l-2.1958-2.1957
		c-0.9642,0.6817-2.1382,1.0859-3.4089,1.0859c-1.2747,0-2.4522-0.407-3.4181-1.0927l-2.2026,2.2026l-1.4142-1.4142l2.2038-2.2038
		c-0.3211-0.4543-0.5782-0.9555-0.762-1.4918H81.1729l-5.7409,70.39c-3.2255,14.2997-8.0728,24.9061-15.3211,30.2374
		c8.9904,8.8889,46.4085,10.2057,46.4085,10.2057s37.4182-1.3168,46.4085-10.2057c-7.2482-5.3312-12.0956-15.9376-15.321-30.2371
		L131.866,182.6304z"/>
	<path d="M81.4855,177.6304h19.9911c0.0678-0.1107,0.1373-0.2198,0.212-0.3256l-2.2041-2.2041l1.4142-1.4142l2.203,2.203
		c0.9658-0.6855,2.1431-1.0925,3.4177-1.0925c1.2704,0,2.4445,0.4041,3.4085,1.0856l2.1962-2.1962l1.4142,1.4142l-2.1949,2.1949
		c0.0771,0.1087,0.1489,0.2209,0.2188,0.3348h19.9911c-0.2657-49.4833,15.2082-72.3148,15.2082-72.3148l-24.7264,5.2113
		l1.8659-8.6971c-3.6621,3.594-8.4088,6.0247-13.627,6.8218l-3.7545,47.0747l-3.7545-47.0748
		c-5.2183-0.7974-9.9654-3.2284-13.6276-6.823l1.8662,8.6984l-24.7262-5.2112C66.2774,105.3156,81.7512,128.147,81.4855,177.6304z"
		/>
	<path d="M20.7896,46.4548l0.2339,2.5215l-3.9829,0.3696l0.1387,1.4935l3.9829-0.3696l0.127,1.3691l-2.593,0.2406l0.1387,1.4937
		l2.593-0.2407l0.1309,1.4106l-1.8596,0.1726l0.1387,1.4937l1.8596-0.1726l9.7283,104.8317
		c-2.2669,1.9151-3.273,5.0793-2.2891,8.0712c0.6049,1.8398,1.8635,3.2704,3.4239,4.1581L44.02,296.7866l4.4807-0.4159
		L37.166,174.2271c0.4804-0.0588,0.9614-0.1487,1.4383-0.3057l29.4668-9.6899c2.7705-0.9111,4.7617-3.3457,5.1055-6.2422
		c0.7698-6.4983,1.8706-11.7117,3.1287-15.8849c-1.6124-8.9711-3.6826-16.2095-5.6492-21.7372
		c-5.6589,6.7896-9.5901,17.1988-11.7275,31.0806l-23.1694,7.6194L26.178,55.821l1.8596-0.1726l-0.1384-1.4937l-1.8599,0.1726
		l-0.1309-1.4106l2.593-0.2406l-0.1387-1.4935l-2.593,0.2405l-0.127-1.369l3.9829-0.3696l-0.1387-1.4935l-3.9829,0.3696
		l-0.2339-2.5216L41.688,29.7345L40.0364,11.936l-1.9746,15.2476l-12.1265,9.7808l8.8979-17.5154L26.1658,0l3.5845,20.5901
		l-5.8188,9.3623l-4.304-20.3699l-0.4822,20.8141l-7.4424-8.1317L11.4373,1.3667L6.4968,22.0785l11.9688,15.579l-13.719-7.3822
		L0,15.6514l1.6516,17.7985L20.7896,46.4548z"/>
	<path d="M106.5197,106.6441c10.4546,0,19.2404-7.1294,21.7673-16.7908c2.9541-0.0516,3.4009-3.5382,5.4827-7.3682
		c2.5486-4.6891-0.4927-11.7882-0.4927-11.7882s-2.2241,5.63-4.3811,6.5732c-0.989,0.4325-1.6813,1.4865-2.1442,2.5018
		c-7.6925-6.595-32.7726-6.5947-40.4645,0.0004c-0.4629-1.0155-1.1553-2.0697-2.1443-2.5022
		c-2.157-0.9432-4.3811-6.5732-4.3811-6.5732s-3.0413,7.0991-0.4927,11.7882c2.082,3.8303,2.5288,7.3169,5.4834,7.3682
		C87.2799,99.5147,96.0668,106.6441,106.5197,106.6441z M118.3948,84.0904c0.4645,2.1597-0.9097,4.2872-3.0694,4.7517
		s-4.2872-0.9097-4.7517-3.0694C110.1091,83.613,117.9302,81.9307,118.3948,84.0904z M94.6441,84.0904
		c0.4645-2.1597,8.2856-0.4774,7.8211,1.6823c-0.4646,2.1597-2.592,3.5339-4.7517,3.0694
		C95.5537,88.3776,94.1795,86.2501,94.6441,84.0904z M98.9744,95.1796l7.5451,1.3224l7.5451-1.3224l5.7636-2.4559l-5.2397,5.0535
		l-8.069,2.5031l-8.0691-2.5031l-5.2396-5.0535L98.9744,95.1796z"/>
	<path d="M106.5193,183.6304c1.6084,0,2.917-1.3081,2.917-2.9165s-1.3086-2.917-2.917-2.917c-1.6074,0-2.916,1.3086-2.916,2.917
		S104.9119,183.6304,106.5193,183.6304z"/>
</g>
</svg>
